<svg preserveAspectRatio="none" width="100%" height="100%" overflow="visible" style="display: block;" viewBox="0 0 80.5061 14.8305" fill="none" xmlns="http://www.w3.org/2000/svg">
<g id="text">
<path id="Vector" d="M75.5946 10.0304L76.4562 10.1419C76.5373 10.1521 76.5829 10.1571 76.5829 10.1977C76.5829 10.2534 76.5221 10.2737 76.4816 10.2838C76.4714 10.3751 76.4664 10.4359 76.4562 10.6387C77.8856 10.5778 78.0427 10.5728 78.139 10.5626C78.134 10.6691 78.1238 11.1709 78.1441 11.3787C77.2267 11.3331 76.8415 11.3331 76.4714 11.3381C76.4613 11.7031 76.4664 11.7943 76.4765 11.9008C76.7705 12.2606 76.7705 12.803 76.7705 12.874C76.7705 13.5937 76.2991 14.4351 75.5946 14.8305C75.3766 14.6226 75.0978 14.4351 74.8545 14.3084C75.0066 14.2476 75.6047 13.9941 75.7872 13.5785C75.7365 13.619 75.6351 13.7001 75.3867 13.7001C75.3056 13.7001 75.0167 13.7001 74.8393 13.4721C74.6568 13.2389 74.6214 12.9094 74.6214 12.7219C74.6214 11.6068 75.5743 11.6423 75.6807 11.6575C75.6858 11.4953 75.6858 11.4496 75.6858 11.3736C74.6264 11.4395 73.9624 11.5764 73.6634 11.6372L73.6076 10.7806C73.7242 10.7856 73.9168 10.7755 75.6655 10.6741C75.63 10.2484 75.63 10.2332 75.5946 10.0304ZM75.5641 12.3012C75.3969 12.3012 75.2854 12.4685 75.2854 12.6763C75.2854 13.0108 75.4526 13.102 75.5439 13.102C75.701 13.102 75.7922 12.8689 75.7922 12.6154C75.7922 12.4989 75.7669 12.3012 75.5641 12.3012Z" fill="var(--fill-0, black)"/>
<path id="Vector_2" d="M70.4751 10.0608L71.3571 10.218C71.4027 10.2281 71.4483 10.2332 71.4483 10.2838C71.4483 10.3396 71.3926 10.3497 71.3571 10.3548C71.3368 10.5525 71.3368 10.5981 71.3318 10.6539C71.5649 10.6539 72.3506 10.6387 72.7307 10.6843V11.4395C72.4874 11.4192 72.0464 11.3787 71.3064 11.3939V11.9514C71.4483 11.9413 72.016 11.8856 72.5939 11.7132V12.4685C72.1782 12.5597 71.7525 12.6002 71.3267 12.6357C71.3267 12.8537 71.3267 12.8739 71.3368 13.0868C71.9704 13.173 72.8422 13.614 73.0298 13.7559C72.8676 13.913 72.7763 14.0245 72.4671 14.3895C72.2188 14.1766 71.7575 13.8877 71.3824 13.7508C71.3926 14.0144 71.4281 14.6125 70.318 14.6125C69.5324 14.6125 68.9596 14.2526 68.9596 13.7914C68.9596 13.2136 69.6844 12.9652 70.5309 12.9804C70.5309 12.8638 70.5309 12.8638 70.5258 12.6813C70.024 12.6915 69.1066 12.7067 69.1066 12.2049C69.1066 12.0275 69.1978 11.8653 69.4614 11.5916L70.019 11.7183C69.9277 11.8399 69.9125 11.8551 69.9125 11.8906C69.9125 11.9464 69.9125 12.0325 70.5056 12.0072C70.5056 11.916 70.5005 11.5054 70.5005 11.4243C69.877 11.4496 69.3296 11.5206 68.9089 11.5764V10.7755C69.1573 10.7502 70.2673 10.6995 70.4954 10.6843C70.4954 10.4917 70.4954 10.294 70.4751 10.0608ZM70.5309 13.5836C70.4802 13.5734 70.4093 13.5633 70.3079 13.5633C70.2825 13.5633 69.7959 13.5633 69.7959 13.7711C69.7959 13.9384 70.0747 13.9536 70.1609 13.9536C70.4093 13.9536 70.5613 13.8623 70.5309 13.5836Z" fill="var(--fill-0, black)"/>
<path id="Vector_3" d="M64.3268 10.1216L65.2493 10.2585C65.3254 10.2686 65.3659 10.2737 65.3659 10.3295C65.3659 10.3751 65.3304 10.3903 65.2696 10.4156C65.1479 11.0137 65.1074 11.8146 65.1074 12.4279C65.1074 13.5785 65.2189 13.7914 65.6092 13.7914C66.4759 13.7914 67.2413 12.6205 67.3782 12.3367C67.5049 12.5039 67.7279 12.7827 67.9661 13.0007C67.3883 13.9384 66.5266 14.6429 65.5028 14.6429C64.3775 14.6429 64.2863 13.69 64.2863 12.4228C64.2863 12.1288 64.337 10.8465 64.337 10.588C64.337 10.441 64.337 10.2686 64.3268 10.1216Z" fill="var(--fill-0, black)"/>
<path id="Vector_4" d="M60.5456 12.6915H60.064V12.1542H60.6419C60.652 12.0782 60.652 12.0325 60.6622 11.9768H60.1857V11.4344H60.3226C60.1705 11.1759 60.1147 11.0898 60.064 11.0188L60.5405 10.8313C60.4391 10.8313 60.3378 10.8313 60.2567 10.8262C60.2465 10.7552 60.1908 10.4967 60.0336 10.2534C60.6875 10.2737 61.6708 10.2534 62.3551 10.0152L62.7859 10.5677C62.8011 10.588 62.8163 10.6082 62.8163 10.6234C62.8163 10.6589 62.8011 10.6741 62.7555 10.6741C62.7099 10.6741 62.6542 10.6387 62.6035 10.6133C62.5629 10.6184 62.3855 10.6488 62.35 10.6589L62.8214 10.882C62.8417 10.8921 62.862 10.9073 62.862 10.9377C62.862 10.9985 62.8113 11.0087 62.7099 11.0137C62.6491 11.1405 62.5832 11.2722 62.4869 11.4344H62.7859V11.9768H61.3515C61.3464 12.0731 61.3414 12.1086 61.3363 12.1542H62.9887V12.6915H61.2096C61.2045 12.7422 61.1893 12.8385 61.1792 12.874H62.5072L62.6744 13.0564C62.4666 13.5481 62.1625 13.8877 62.0915 13.9637C62.4818 14.1462 62.8265 14.1918 62.9785 14.2121C62.6998 14.5973 62.6694 14.6683 62.6237 14.795C62.1777 14.7038 61.7519 14.4503 61.6303 14.3743C61.5492 14.4351 61.2501 14.6632 60.9055 14.7696C60.7483 14.5466 60.576 14.4047 60.4746 14.3236C60.2668 14.5618 60.1451 14.648 60.0336 14.724C59.912 14.5618 59.8106 14.4452 59.6281 14.3084C59.5927 14.6683 59.324 14.7139 58.9236 14.7139C58.7867 14.7139 58.7462 14.7088 58.6347 14.6885C58.5941 14.3743 58.5384 14.2019 58.4269 13.9181C58.4928 13.9333 58.7006 13.9637 58.7969 13.9637C58.9591 13.9637 58.9591 13.8978 58.9591 13.7001V13.0818C58.8881 13.102 58.7361 13.1527 58.6448 13.1679C58.6195 13.2541 58.5941 13.2997 58.5485 13.2997C58.5181 13.2997 58.5029 13.2642 58.4978 13.2389L58.3407 12.5191C58.4775 12.4887 58.6043 12.4634 58.9591 12.3671V11.5307H58.4269V10.8921H58.9591V10.0862L59.6738 10.1115C59.7295 10.1115 59.765 10.147 59.765 10.1825C59.765 10.2281 59.7244 10.2534 59.6383 10.2889V10.8921H59.9475V11.5307H59.6383V12.1593C59.8055 12.1035 59.8664 12.0731 59.9475 12.0376C59.9323 12.2657 59.9323 12.3417 59.9323 12.4279C59.9323 12.5546 59.9373 12.6104 59.9475 12.6813C59.765 12.7776 59.7042 12.803 59.6383 12.8283V14.1361C60.0843 13.8623 60.3986 13.3555 60.5456 12.6915ZM61.4579 11.4344H61.7519C61.8989 11.2317 62.0358 11.0036 62.1473 10.6893C61.9547 10.7198 61.7722 10.7502 61.5796 10.7704C61.7519 11.034 61.7823 11.1303 61.8178 11.2621C61.7317 11.2976 61.6353 11.3331 61.4579 11.4344ZM60.9359 10.9326L61.24 10.7907C60.8244 10.8161 60.7787 10.8211 60.652 10.8262C60.7686 10.9985 60.8598 11.1455 60.9359 11.328C60.9004 11.3432 60.7382 11.4192 60.7027 11.4344H61.1944C61.0474 11.0999 60.9916 11.0137 60.9359 10.9326ZM61.8634 13.3504H61.2805C61.3414 13.4214 61.4478 13.5481 61.6303 13.69C61.7266 13.5785 61.7722 13.5177 61.8634 13.3504ZM60.8953 13.6849C60.7585 13.9688 60.652 14.1006 60.505 14.2881C60.9511 14.1361 61.0676 14.055 61.1589 13.9941C61.0423 13.8776 60.9663 13.7812 60.8953 13.6849Z" fill="var(--fill-0, black)"/>
<path id="Vector_5" d="M56.0344 10.7248H57.9859V11.3838H56.0344V11.774H56.9569L57.3117 12.068C57.0735 12.6509 56.7187 13.1781 56.2473 13.5886C56.5058 13.7204 57.0583 13.9637 57.9707 14.0752C57.7274 14.3388 57.626 14.5314 57.5398 14.7494C56.9367 14.6277 56.3284 14.4605 55.6594 14.0296C55.0106 14.4402 54.4733 14.5872 53.8042 14.7443C53.642 14.4148 53.5153 14.2526 53.3632 14.0752C54.0526 13.9941 54.6253 13.8218 55.0612 13.5886C54.9041 13.4416 54.7369 13.2845 54.3871 12.8283L54.7977 12.4685H53.9107V11.774H55.2539V11.3838H53.3176V10.7248H55.2539V10.0456L56.0699 10.0811C56.1054 10.0811 56.1459 10.1064 56.1459 10.1521C56.1459 10.1926 56.1054 10.2129 56.0344 10.2484V10.7248ZM56.2372 12.4685H54.9751C55.1778 12.8182 55.5174 13.097 55.634 13.1882C55.7759 13.0615 56.0547 12.8233 56.2372 12.4685Z" fill="var(--fill-0, black)"/>
<path id="Vector_6" d="M50.1294 9.98986L50.8998 10.1419C50.9303 10.147 51.0012 10.1622 51.0012 10.2332C51.0012 10.3041 50.91 10.3092 50.8745 10.3092L50.7579 10.5576C50.9049 10.5373 51.3864 10.4714 51.8071 10.3193V11.0695C51.0519 11.2013 50.9607 11.2165 50.3626 11.2874C50.3017 11.3939 50.2916 11.4142 50.1649 11.6372C50.3474 11.5358 50.5653 11.5358 50.6059 11.5358C50.8644 11.5358 51.1888 11.6879 51.3459 11.9667C52.0961 11.6068 52.1822 11.5713 52.3698 11.4649L52.6688 12.2758C52.1062 12.4532 51.8122 12.5597 51.5132 12.6864C51.5233 12.8334 51.5284 12.9905 51.5284 13.1426C51.5284 13.3707 51.5182 13.5126 51.5132 13.6495C51.351 13.6393 51.1685 13.6393 51.0063 13.6393C50.839 13.6393 50.8137 13.6393 50.7123 13.6495C50.7326 13.4873 50.7427 13.3859 50.7478 13.0716C50.4335 13.2642 50.1142 13.4771 50.1142 13.6849C50.1142 13.913 50.6312 13.9282 50.8897 13.9282C51.4473 13.9282 51.9744 13.837 52.5117 13.6799C52.4458 13.9333 52.4103 14.2425 52.4154 14.4858C51.9541 14.5922 51.4777 14.6328 51.0012 14.6328C50.6616 14.6328 49.3438 14.6328 49.3438 13.7356C49.3438 13.1375 50.1497 12.6357 50.7022 12.3468C50.6211 12.1238 50.4437 12.0934 50.322 12.0934C49.7949 12.0934 49.4401 12.6611 49.1613 13.1122L48.4567 12.7118C48.7913 12.3569 49.2981 11.6575 49.4857 11.3483C49.212 11.3584 48.9889 11.3584 48.771 11.3533L48.7761 10.6184C48.9332 10.6336 49.2272 10.6589 49.5718 10.6589C49.7188 10.6589 49.7797 10.6589 49.8608 10.6539C50.0483 10.2636 50.0889 10.1267 50.1294 9.98986Z" fill="var(--fill-0, black)"/>
<path id="Vector_7" d="M46.7689 10.0558L47.4531 10.4359C47.4785 10.4511 47.5038 10.4815 47.5038 10.5018C47.5038 10.5322 47.4785 10.5576 47.4278 10.5576C47.4075 10.5576 47.3872 10.5525 47.3416 10.5474C47.0071 11.0442 46.8348 11.2672 46.7486 11.3787H47.8029V12.0173H46.1708C45.9629 12.21 45.8666 12.286 45.7805 12.3519H47.3213V14.7088H46.5915V14.5213H44.9137V14.7088H44.1838V13.2896C43.7986 13.4518 43.6212 13.5075 43.4945 13.543C43.3424 13.1274 43.1752 12.9246 43.0991 12.8283C43.7885 12.7168 44.6299 12.3164 45.0861 12.0173H43.2005V11.3787H44.9593V11.11H43.5502V10.4815H44.9593V10.0558L45.7551 10.0862C45.7855 10.0862 45.8362 10.0912 45.8362 10.1419C45.8362 10.1825 45.8007 10.1977 45.7095 10.2332V10.4815H46.3076V10.8262C46.5965 10.4207 46.708 10.1774 46.7689 10.0558ZM44.9137 13.9485H46.5915V13.7154H44.9137V13.9485ZM44.9137 13.1882H46.5915V12.95H44.9137V13.1882ZM45.7095 11.3787H45.8464C45.892 11.3331 45.9477 11.2722 46.0846 11.11H45.7095V11.3787Z" fill="var(--fill-0, black)"/>
<path id="Vector_8" d="M40.7878 13.8117V14.7088H40.0985V13.8319C39.6068 14.2374 38.9631 14.6024 38.6742 14.6936C38.4258 14.3641 38.2889 14.278 38.147 14.1918C38.9529 13.9232 39.4953 13.4822 39.622 13.3808H38.147V12.8233H40.0985V12.6712H38.7299V12.1593H40.0985V12.0173H38.3903V11.475H39.3534C39.328 11.4142 39.252 11.252 39.2419 11.2317H38.147V10.6741H38.7654C38.6843 10.5221 38.6437 10.4562 38.5728 10.3447L39.1557 9.98986C39.2773 10.1825 39.4243 10.4612 39.475 10.5626L39.2672 10.6741H39.6169V10.0608L40.2911 10.0862C40.3418 10.0862 40.3924 10.0963 40.3924 10.1419C40.3924 10.1926 40.357 10.2078 40.2911 10.2382V10.6741H40.5394V10.0608L41.2186 10.0862C41.2389 10.0862 41.3251 10.0912 41.3251 10.1521C41.3251 10.2027 41.2541 10.2332 41.2186 10.2433V10.6741H41.614L41.3251 10.5626C41.3808 10.4612 41.5126 10.2382 41.5836 10.0405L42.2881 10.2889C42.3135 10.2991 42.3338 10.3193 42.3338 10.3447C42.3338 10.4156 42.2527 10.4106 42.1868 10.4106C42.1411 10.4765 42.1259 10.4967 42.0246 10.6741H42.724V11.2317H41.6546C41.614 11.3331 41.5735 11.4344 41.5532 11.475H42.425V12.0173H40.7878V12.1593H42.1158V12.6712H40.7878V12.8233H42.724V13.3808H41.2643C41.832 13.8573 42.4351 14.0702 42.7291 14.1715C42.3642 14.4452 42.2881 14.572 42.2273 14.6885C41.8928 14.5821 41.2136 14.2172 40.7878 13.8117ZM40.879 11.2317H40.0224C40.0579 11.3128 40.0731 11.3483 40.1289 11.475H40.7675C40.803 11.399 40.8233 11.3635 40.879 11.2317Z" fill="var(--fill-0, black)"/>
<path id="Vector_9" d="M37.4374 12.7878H37.6908V13.2642H37.4374V14.1056H36.6872V13.9434H35.7546V14.2678C35.7546 14.5263 35.6887 14.7038 34.9335 14.7038C34.8321 14.7038 34.7307 14.6987 34.6648 14.6936C34.6243 14.4655 34.5381 14.2476 34.4266 14.06C34.5685 14.0803 34.7662 14.1006 34.8574 14.1006C35.0044 14.1006 35.0044 14.0499 35.0044 13.9434H33.423V13.4366H35.0044V13.2642H33.0732V12.7878H35.0044V12.6256H33.423V12.1795H35.0044V12.0376H33.717V11.0087H35.0044V10.8667H33.0732V10.3345H35.0044V10.0558L35.7901 10.0862C35.8255 10.0862 35.8661 10.1064 35.8661 10.1521C35.8661 10.1977 35.8357 10.2078 35.7546 10.2484V10.3345H37.6705V10.8667H35.7546V11.0087H37.0218V12.0376H35.7546V12.1795H37.4374V12.7878ZM35.7546 13.4366H36.6872V13.2642H35.7546V13.4366ZM35.7546 12.7878H36.6872V12.6256H35.7546V12.7878ZM36.3679 11.4142H35.7546V11.6118H36.3679V11.4142ZM34.386 11.6118H35.0044V11.4142H34.386V11.6118Z" fill="var(--fill-0, black)"/>
<path id="Vector_10" d="M30.3868 12.5293H29.3934V11.8602H30.5186V11.5561H29.5606V10.9326H30.0016C29.8648 10.7045 29.7887 10.6032 29.5606 10.3447L30.0878 9.9341C30.3007 10.1419 30.5237 10.4106 30.691 10.6741C30.6453 10.7198 30.4274 10.8921 30.3868 10.9326H30.9089C31.0508 10.7552 31.2637 10.446 31.4766 9.94424L32.1507 10.1673C32.1964 10.1825 32.2318 10.1926 32.2318 10.2332C32.2318 10.3041 32.1558 10.3143 32.0696 10.3295C32.024 10.441 31.9632 10.5829 31.73 10.9326H32.2927V11.5561H31.2587V11.8602H32.5562V12.5293H31.3904C31.7605 13.0615 32.2014 13.2693 32.5613 13.391C32.4397 13.4822 32.1558 13.7001 32.0696 13.9434C31.4715 13.7052 31.0255 13.097 30.9495 12.9855C30.6859 13.4011 30.3412 13.6697 29.8141 13.9282C29.6012 13.6292 29.5404 13.5532 29.2971 13.4264C29.8445 13.1933 30.1841 13.0007 30.3868 12.5293ZM27.9082 10.4562L28.4303 10C28.6533 10.1875 29.0386 10.5069 29.2514 10.7806C29.2312 10.8009 28.8814 11.0948 28.699 11.257C28.5925 11.1354 28.2478 10.7299 27.9082 10.4562ZM27.9387 11.8602H29.145V13.5532C29.145 13.6951 29.2413 13.8218 29.368 13.9029C29.515 13.9941 29.6519 14.055 30.4983 14.055C32.0392 14.055 32.3839 14.0144 32.7945 13.9485C32.5968 14.3084 32.5562 14.4351 32.5562 14.6733H30.2297C29.8039 14.6733 29.1906 14.6733 28.8105 14.1969C28.7344 14.2577 28.3746 14.5162 28.3036 14.572C28.3036 14.6531 28.3036 14.7291 28.2326 14.7291C28.1921 14.7291 28.1718 14.6987 28.1617 14.6733L27.8119 13.9992C27.9184 13.9536 28.1363 13.8573 28.3898 13.6697V12.5293H27.9387V11.8602Z" fill="var(--fill-0, black)"/>
<path id="Vector_11" d="M26.1646 11.2925V11.4243H27.2696V12.9753H26.1646V13.1172H27.4977V13.619H26.1646V13.9029H25.5209V13.619H24.2892V13.1172H25.5209V12.9753H24.4159V11.4243H25.5209V11.2925H24.6643V11.105H24.0915V10.1571H27.4977V11.105H26.9249V11.2925H26.1646ZM26.1646 11.8298V12.0224H26.6157V11.8298H26.1646ZM25.5209 12.0224V11.8298H25.0698V12.0224H25.5209ZM26.1646 12.3721V12.5698H26.6157V12.3721H26.1646ZM25.5209 12.5698V12.3721H25.0698V12.5698H25.5209ZM26.1646 10.6691V10.8313H26.8844V10.6691H26.1646ZM25.5209 10.8313V10.6691H24.7048V10.8313H25.5209ZM22.8193 10.5778L23.3109 10.1216C23.5846 10.3497 23.7925 10.5474 24.0459 10.8414C23.8127 11.0137 23.6607 11.1607 23.4883 11.3584C23.245 11.0137 23.0322 10.7856 22.8193 10.5778ZM22.9257 11.9261H24.1574V13.4366C24.1574 13.9891 24.7809 14.0043 25.7439 14.0043C26.3876 14.0043 27.0314 13.9434 27.67 13.8775C27.5636 14.1107 27.4977 14.3236 27.4774 14.6328H25.2573C24.6896 14.6328 24.1878 14.5922 23.8077 14.1411C23.7063 14.2374 23.539 14.3895 23.2602 14.5568C23.2653 14.6581 23.2704 14.7139 23.1944 14.7139C23.1639 14.7139 23.1285 14.6733 23.1082 14.6328L22.7686 13.9637C23.0372 13.8573 23.2197 13.7559 23.4174 13.6342V12.585H22.9257V11.9261Z" fill="var(--fill-0, black)"/>
<path id="Vector_12" d="M20.2951 10.8414H21.4558C21.6231 10.8414 21.7143 10.8059 21.8157 10.7654L22.2364 11.1253C22.1451 11.2773 21.8359 11.9717 21.7194 12.2302C20.9388 13.984 19.8135 14.5466 19.3675 14.7696C19.2813 14.6581 19.1394 14.4909 18.7136 14.1918C19.4841 13.8674 20.0974 13.3099 20.361 12.9905C20.7715 12.4938 21.0047 11.8805 21.1162 11.5713H19.849C19.5246 12.0528 19.1394 12.4837 18.7086 12.8689C18.4348 12.58 18.3335 12.4735 18.0902 12.3215C19.3219 11.2773 19.6412 10.3852 19.7527 10.0811L20.4826 10.4359C20.5029 10.446 20.5485 10.4714 20.5485 10.5119C20.5485 10.5626 20.4775 10.5778 20.4268 10.5829C20.3457 10.74 20.3305 10.7806 20.2951 10.8414Z" fill="var(--fill-0, black)"/>
<path id="Vector_13" d="M13.2901 11.5865L13.944 11.3128C14.1011 11.5662 14.314 12.0072 14.4103 12.2404C14.2836 12.286 13.9947 12.4026 13.7666 12.5546C13.6297 12.2252 13.4574 11.8957 13.2901 11.5865ZM14.314 11.3483L14.978 11.0796C15.1503 11.3635 15.272 11.622 15.3936 12.0325C15.0236 12.1694 14.902 12.2201 14.755 12.2961C14.6587 12.0376 14.4509 11.5865 14.314 11.3483ZM16.0779 11.1658L16.8129 11.3939C16.8686 11.4091 16.9092 11.4243 16.9092 11.4699C16.9092 11.5206 16.8382 11.5257 16.8129 11.5257C16.3871 13.3251 15.571 14.0347 14.3951 14.5415C14.3343 14.4351 14.1822 14.1867 13.9136 13.9688C15.2112 13.467 15.86 12.7776 16.0779 11.1658Z" fill="var(--fill-0, black)"/>
<path id="Vector_14" d="M8.62185 10.2788H11.5617V11.0036H8.62185V10.2788ZM7.97813 11.4598H11.2626C11.4198 11.4598 11.5516 11.4547 11.6986 11.4142L12.1902 11.7639C12.1041 11.9261 11.734 12.6459 11.6529 12.7878C11.141 13.6849 10.5936 14.2577 9.44805 14.7342C9.30613 14.4959 9.05269 14.2273 8.89557 14.0803C9.36189 13.9181 10.5175 13.5177 11.0194 12.1998H7.97813V11.4598Z" fill="var(--fill-0, black)"/>
<path id="Vector_15" d="M4.87102 11.8653L5.15993 11.4598C5.9101 11.8399 6.55383 12.2758 6.92891 12.6509C6.70082 12.9804 6.67547 13.0159 6.45245 13.3605C6.28518 13.2034 5.77832 12.732 4.87102 12.2353V14.6125H4.01441V10.1369L4.87102 10.1774C4.9065 10.1774 4.96732 10.1825 4.96732 10.2332C4.96732 10.2838 4.91157 10.3041 4.87102 10.3143V11.8653Z" fill="var(--fill-0, black)"/>
<path id="Vector_16" d="M79.3353 0.106438L79.7408 0.658925C79.3961 0.887017 78.6104 1.67266 78.4989 1.78924C78.5851 1.76897 78.8335 1.71321 79.1072 1.71321C79.7965 1.71321 80.5061 2.14912 80.5061 3.04628C80.5061 4.16139 79.4468 4.64799 78.5699 4.64799C77.916 4.64799 77.2824 4.38949 77.2824 3.77617C77.2824 3.27437 77.7487 2.96518 78.2759 2.96518C78.7524 2.96518 79.2491 3.23382 79.3657 3.71028C79.7002 3.54301 79.7002 3.15272 79.7002 3.11217C79.7002 2.99053 79.6596 2.37214 78.874 2.37214C78.0174 2.37214 77.5308 2.87395 76.8262 3.60891L76.218 3.01587C76.8009 2.61037 77.9312 1.49526 78.2708 1.04415C78.1086 1.07963 77.9363 1.12018 76.9226 1.22155L76.8009 0.425766C76.9986 0.430834 78.4634 0.44604 79.3353 0.106438ZM78.7118 4.00933C78.6307 3.66466 78.357 3.59877 78.2151 3.59877C78.0427 3.59877 78.0022 3.69507 78.0022 3.78124C78.0022 3.97385 78.286 4.04988 78.4584 4.04988C78.5749 4.04988 78.6611 4.02454 78.7118 4.00933Z" fill="var(--fill-0, black)"/>
<path id="Vector_17" d="M71.4281 0.324394L72.2543 0.557554C72.2999 0.57276 72.3557 0.587966 72.3557 0.633584C72.3557 0.699478 72.2948 0.709615 72.2492 0.714684C72.1428 1.02387 71.9654 1.55609 71.9654 2.24036C71.9654 2.85874 72.158 3.28958 72.305 3.28958C72.4672 3.28958 72.6598 2.84354 72.7966 2.52421C72.9842 2.78271 73.1768 2.95505 73.3288 3.06149C72.9233 4.04482 72.4621 4.38949 72.2137 4.38949C71.9299 4.38949 71.1797 3.78631 71.1797 2.22009C71.1797 1.57129 71.2912 0.978256 71.4281 0.324394ZM74.0486 1.00867L74.7025 0.593035C75.26 1.3432 75.6402 2.20488 75.7263 3.14259C75.4273 3.25917 75.0674 3.43151 74.9001 3.51767C74.8393 2.44311 74.5251 1.70308 74.0486 1.00867Z" fill="var(--fill-0, black)"/>
<path id="Vector_18" d="M70.4295 0.116577L70.5765 0.957981C69.1269 0.942775 68.2652 2.21502 68.2652 2.87395C68.2652 3.71535 69.4107 3.77618 69.6794 3.79138C69.4361 4.2425 69.3499 4.53648 69.2992 4.70375C68.4122 4.49593 67.4339 4.02454 67.4339 2.93477C67.4339 2.00213 68.1334 1.41923 68.3311 1.25703C67.9357 1.27731 66.6939 1.43951 66.2377 1.55609L66.1313 0.603172C66.2428 0.608241 66.3492 0.618378 66.5114 0.618378C67.2565 0.618378 69.2789 0.476455 70.4295 0.116577Z" fill="var(--fill-0, black)"/>
<path id="Vector_19" d="M61.7925 0.121643L62.715 0.258498C62.791 0.268636 62.8316 0.273704 62.8316 0.32946C62.8316 0.375078 62.7961 0.390284 62.7352 0.415628C62.6136 1.01373 62.5731 1.81459 62.5731 2.4279C62.5731 3.57849 62.6846 3.79138 63.0749 3.79138C63.9416 3.79138 64.707 2.62051 64.8438 2.33666C64.9705 2.50393 65.1936 2.78271 65.4318 3.00066C64.854 3.93837 63.9923 4.64292 62.9684 4.64292C61.8432 4.64292 61.7519 3.69001 61.7519 2.42283C61.7519 2.12885 61.8026 0.846467 61.8026 0.587963C61.8026 0.440971 61.8026 0.268635 61.7925 0.121643Z" fill="var(--fill-0, black)"/>
<path id="Vector_20" d="M59.5927 4.501H56.7542V4.71895H55.999V1.15566H57.5348C57.5855 1.03908 57.6412 0.9225 57.6919 0.785645H55.852V0.172333H60.5152V0.785645H58.6296C58.6093 0.831263 58.5384 0.978255 58.4421 1.15566H60.353V4.71895H59.5927V4.501ZM59.1922 3.85221H59.5927V1.7487H59.1922V3.85221ZM57.8946 3.85221H58.4522V3.48726H57.8946V3.85221ZM57.8946 2.96518H58.4522V2.62558H57.8946V2.96518ZM57.8946 2.07309H58.4522V1.7487H57.8946V2.07309ZM56.7542 3.85221H57.1546V1.7487H56.7542V3.85221Z" fill="var(--fill-0, black)"/>
<path id="Vector_21" d="M53.4747 0.41056H55.4009V1.01374H53.4747V1.22662H54.8686V3.73056H52.0302V1.22662H52.7296V1.01374H50.8086V0.41056H52.7296V0.0354767L53.5052 0.116576C53.566 0.121644 53.6217 0.131782 53.6217 0.182469C53.6217 0.233156 53.6065 0.238224 53.4747 0.283843V0.41056ZM54.1083 2.57489V2.36201H52.8209V2.57489H54.1083ZM52.8209 1.73349V1.94638H54.1083V1.73349H52.8209ZM54.1083 3.20848V2.99053H52.8209V3.20848H54.1083ZM51.7514 3.90289H55.4009V4.51114H51.7514V4.68854H51.0114V1.37361L51.7514 1.4243C51.8223 1.42937 51.868 1.43444 51.868 1.49019C51.868 1.53074 51.8578 1.53581 51.7514 1.6017V3.90289Z" fill="var(--fill-0, black)"/>
<path id="Vector_22" d="M46.2519 0.152061L47.0324 0.446046C47.1287 0.481527 47.1693 0.496733 47.1693 0.532214C47.1693 0.577832 47.0679 0.587969 47.0324 0.593038C46.8804 1.04415 46.703 1.62198 46.703 2.68641C46.703 2.89423 46.7131 2.94998 46.7385 3.09191C46.7689 3.03615 46.8905 2.81313 46.9513 2.71175C47.0983 2.93984 47.2605 3.07163 47.3416 3.12739C47.2149 3.36562 46.9817 3.95358 47.0071 4.3388L46.2873 4.53142C46.115 4.05496 45.9275 3.49233 45.9275 2.50394C45.9275 1.5865 46.0694 0.957984 46.2519 0.152061ZM47.7573 1.4243V0.664C47.9093 0.674137 48.1121 0.689343 48.4162 0.689343C49.2525 0.689343 49.7138 0.572763 49.9064 0.527145C49.9115 0.608244 49.9317 1.05429 49.9773 1.29759C49.7695 1.33814 49.2373 1.44965 48.4162 1.44965C48.1171 1.44965 47.9195 1.43444 47.7573 1.4243ZM47.7218 2.70668L48.3706 2.82833C48.3402 2.9145 48.2945 3.08684 48.2945 3.18821C48.2945 3.41123 48.4162 3.44671 48.9991 3.44671C49.3387 3.44671 49.7847 3.42644 50.2511 3.30986C50.1598 3.68494 50.175 4.0651 50.175 4.13606C49.8253 4.18674 49.2525 4.20195 48.8926 4.20195C48.1374 4.20195 47.5545 4.07016 47.5545 3.45178C47.5545 3.38589 47.5545 3.09697 47.7218 2.70668Z" fill="var(--fill-0, black)"/>
<path id="Vector_23" d="M44.0825 2.2353V2.37722H44.6197V2.63572H44.0825V2.77765H44.6197V3.06149H44.0825V3.20342H45.2635C45.2635 3.42644 45.2331 4.00934 45.0252 4.36922C44.934 4.52635 44.7819 4.71896 44.1433 4.68854C44.1433 4.49087 44.1179 4.37935 44.0115 4.13606C44.0825 4.14619 44.199 4.15126 44.27 4.15126C44.3764 4.15126 44.5741 4.15126 44.5843 3.61905H43.236V3.70015H42.648V2.50394C42.572 2.54955 42.5466 2.55969 42.4858 2.59517C42.425 2.50394 42.3844 2.44311 42.2121 2.27584V4.17154C42.2121 4.60238 41.9536 4.62772 41.5228 4.67334C41.4518 4.41483 41.3302 4.20702 41.3048 4.16647C41.2693 4.3236 41.2136 4.54155 41.1122 4.73923C41.0007 4.68348 40.7827 4.5821 40.4837 4.52635C40.6408 4.19688 40.8081 3.76604 40.8081 2.47859V0.192611H42.2121V2.04775C42.4402 1.90583 42.5517 1.80446 42.6227 1.72843H42.2932V1.30772H42.9369C42.9623 1.26211 43.0028 1.18608 43.0231 1.14553H42.3997V0.684274H42.6784C42.5669 0.491663 42.5416 0.451114 42.4098 0.278778L42.8913 0C42.942 0.0608245 43.1042 0.27371 43.2005 0.511938C43.0383 0.598106 42.9978 0.618381 42.9065 0.684274H43.1752C43.2461 0.395358 43.2563 0.197679 43.2613 0.035481L43.9659 0.136855C44.0064 0.141923 44.0368 0.15713 44.0368 0.187542C44.0368 0.223023 44.0115 0.238229 43.9304 0.283847C43.9051 0.405496 43.8696 0.557557 43.8392 0.684274H44.4069C44.2751 0.603175 44.1433 0.557557 44.0875 0.537282C44.1433 0.446045 44.3055 0.197679 44.346 0.0202746L44.934 0.217954C44.9593 0.228091 45.005 0.243298 45.005 0.278778C45.005 0.324397 44.9441 0.334534 44.8681 0.334534C44.8073 0.461251 44.7566 0.54235 44.6603 0.684274H44.9847V1.14553H44.4271C44.4525 1.19114 44.4677 1.22156 44.5184 1.30772H45.2331V1.72843H44.8428C45.0708 1.95652 45.2381 2.04775 45.3648 2.11872C45.2381 2.2353 45.081 2.41777 44.9847 2.56476C44.8681 2.49887 44.7617 2.44818 44.5336 2.2353H44.0825ZM43.5198 2.37722V2.2353H43.236V2.37722H43.5198ZM43.5198 2.77765V2.63572H43.236V2.77765H43.5198ZM44.0977 1.72843H43.4185C43.3982 1.76391 43.3475 1.83994 43.3019 1.89569H44.2142C44.1686 1.83994 44.1331 1.78418 44.0977 1.72843ZM43.5198 3.20342V3.06149H43.236V3.20342H43.5198ZM43.824 1.14553H43.6161C43.5959 1.19621 43.5857 1.22662 43.5502 1.30772H43.8848C43.8645 1.26211 43.8544 1.23676 43.824 1.14553ZM41.6292 1.88556H41.4163V2.48366H41.6292V1.88556ZM41.4163 1.35334H41.6292V0.790717H41.4163V1.35334ZM41.6292 3.06656H41.4163C41.4113 3.30986 41.3758 3.7407 41.3403 3.96879C41.391 3.97893 41.4518 3.984 41.5025 3.984C41.5937 3.984 41.6292 3.96372 41.6292 3.837V3.06656ZM42.5365 3.67481L42.9876 3.82687C43.018 3.837 43.0484 3.85728 43.0484 3.88769C43.0484 3.92824 43.0079 3.93838 42.942 3.94345C42.9268 4.01948 42.8558 4.30839 42.7088 4.63786C42.6176 4.59224 42.4047 4.48073 42.1918 4.43004C42.3591 4.19688 42.4858 3.88262 42.5365 3.67481ZM43.5553 3.81166L43.8848 3.7407C43.9608 3.95358 43.9862 4.08537 44.0014 4.21716C43.7834 4.26784 43.7074 4.29825 43.6415 4.3236C43.6313 4.17661 43.6161 4.07016 43.5553 3.81166ZM43.0535 3.86235L43.4185 3.80659C43.4691 4.02961 43.4945 4.19688 43.5046 4.44018C43.4387 4.44018 43.3323 4.44018 43.0839 4.50607C43.0839 4.27291 43.0839 4.02961 43.0535 3.86235ZM44.0064 3.73056L44.3359 3.62919C44.4373 3.89276 44.4423 3.95865 44.4525 4.02455C44.3359 4.04482 44.2548 4.07523 44.1129 4.12592C44.1027 4.01441 44.0825 3.92317 44.0064 3.73056Z" fill="var(--fill-0, black)"/>
<path id="Vector_24" d="M38.9681 4.21715H37.5337V4.40469H36.8545V3.08176H38.9884V4.00934C39.1202 4.03975 39.1455 4.04482 39.2013 4.04482C39.2925 4.04482 39.3179 4.00934 39.3179 3.90796V2.87902H36.52V4.69868H35.785V2.3468H40.0326V4.12592C40.0326 4.56689 39.845 4.71895 39.1608 4.73923C39.1253 4.5821 39.0847 4.42497 38.9681 4.21715ZM38.2991 3.51767H37.5337V3.76097H38.2991V3.51767ZM36.5301 1.0847H39.2824V2.17447H36.5301V1.0847ZM38.5931 1.51554H37.2194V1.74363H38.5931V1.51554ZM38.2991 0.334531H40.2201V0.912362H35.5772V0.334531H37.5084V0.0202713L38.2991 0.0506835C38.3295 0.0506835 38.4004 0.0658898 38.4004 0.116577C38.4004 0.146989 38.3751 0.172332 38.2991 0.202744V0.334531Z" fill="var(--fill-0, black)"/>
<path id="Vector_25" d="M34.1681 0.932636V1.46992H35.0805V4.71388H34.4063V4.5162H32.6272V4.71388H31.9531V1.46992H32.8604V0.932636H31.9125V0.466316C31.8821 0.476453 31.872 0.476453 31.8416 0.481522C31.7098 0.816056 31.6692 0.927567 31.6033 1.06442L31.6996 1.10497C31.73 1.12018 31.7655 1.14045 31.7655 1.17593C31.7655 1.21648 31.7402 1.23169 31.6692 1.26717V4.71388H30.9495V2.22515C30.8785 2.3316 30.8177 2.40256 30.7518 2.48873C30.6048 2.19474 30.4629 2.03761 30.3007 1.88555C30.8785 1.14552 31.1319 0.309186 31.2029 0.0354767L31.9125 0.273705V0.248362H35.197V0.932636H34.1681ZM33.6359 2.19981H33.3976V3.82686H33.6359V2.19981ZM33.6308 1.46992V0.932636H33.3976V1.46992H33.6308ZM34.4063 2.19981H34.1732V3.82686H34.4063V2.19981ZM32.6272 2.19981V3.82686H32.8604V2.19981H32.6272Z" fill="var(--fill-0, black)"/>
<path id="Vector_26" d="M27.0111 3.19834V4.71388H26.2761V3.21862C26.048 3.28451 25.9061 3.31999 25.7287 3.36561C25.7084 3.4315 25.678 3.52274 25.6273 3.52274C25.6172 3.52274 25.5614 3.51767 25.5462 3.44671L25.4043 2.66613C25.8199 2.58503 25.9365 2.55462 26.2761 2.47352V1.61691H26.048C26.0024 1.81459 25.9821 1.90076 25.9264 2.0883C25.7439 1.99706 25.5209 1.90583 25.2827 1.87034C25.455 1.33813 25.531 1.01374 25.5462 0.400423L26.1747 0.456178C26.2102 0.461247 26.2609 0.466316 26.2761 0.486591V0.0608201L27.0111 0.0963008C27.0618 0.0963008 27.1378 0.10137 27.1378 0.157125C27.1378 0.202744 27.1023 0.21795 27.0111 0.263568V0.947842H27.3051V1.33813C27.5484 0.861674 27.6852 0.29398 27.7359 0.0354767L28.481 0.192606C28.5165 0.197675 28.552 0.21795 28.552 0.253431C28.552 0.309186 28.481 0.324392 28.405 0.33453C28.3137 0.618377 28.3036 0.653857 28.1972 0.912361H30.0168C30.0168 3.29465 29.9256 3.94344 29.7887 4.26784C29.7127 4.44017 29.5809 4.69868 28.6787 4.70375C28.6229 4.41483 28.5874 4.28811 28.3898 3.95865C28.1769 4.21715 27.9893 4.42497 27.6345 4.68347C27.4521 4.46045 27.3507 4.37428 27.0871 4.20195C27.4318 3.9992 28.4151 3.20341 28.8561 1.58143H28.6483C28.3999 2.44818 27.9234 3.2541 27.5078 3.65453C27.3203 3.4315 27.2949 3.41123 27.0111 3.19834ZM27.0111 1.85007V2.26063C27.1581 2.21502 27.2595 2.17954 27.4419 2.11871C27.4014 2.39242 27.3963 2.43804 27.3912 2.80805C27.7004 2.45324 27.9539 2.01734 28.1059 1.58143H27.9032C27.8778 1.63718 27.7308 1.93117 27.5433 2.14912C27.3304 2.0072 27.2544 1.95651 27.0111 1.85007ZM27.0111 2.97532V3.17807C27.1378 3.06656 27.2341 2.98039 27.376 2.82833C27.224 2.89422 27.0466 2.96518 27.0111 2.97532ZM28.4253 3.91303C28.5064 3.92317 28.7344 3.9333 28.8865 3.9333C29.0791 3.9333 29.1551 3.84207 29.1906 3.64439C29.2717 3.20848 29.2869 2.89422 29.3123 2.20488C29.0994 2.88915 28.7598 3.48726 28.4253 3.91303ZM27.0111 1.51554V1.78925C27.0973 1.6828 27.1479 1.60677 27.2037 1.51554H27.0111ZM26.1038 0.947842H26.2761V0.542346C26.2457 0.582896 26.2052 0.603171 26.1393 0.623446C26.1291 0.689339 26.1241 0.734957 26.1038 0.947842Z" fill="var(--fill-0, black)"/>
<path id="Vector_27" d="M20.8678 2.75737L20.3812 1.992C20.6195 1.89062 20.7817 1.80446 21.2885 1.51554C21.106 1.18608 20.9793 0.952916 20.7208 0.628519L21.5622 0.299054C21.5825 0.288916 21.6078 0.278779 21.6433 0.278779C21.6737 0.278779 21.7143 0.283847 21.7143 0.344672C21.7143 0.380153 21.6839 0.400428 21.6535 0.420702C21.7447 0.62345 21.9018 0.932641 21.9981 1.12525C22.135 1.05429 22.2414 0.998534 22.4797 0.892091C22.2668 0.598107 22.1451 0.471389 22.0285 0.349741L22.6976 0.0405502C22.7939 0.126718 22.946 0.27371 23.2096 0.623451C23.4123 0.572764 23.6049 0.542351 23.8178 0.542351C24.7961 0.542351 25.0748 1.18608 25.0748 1.70308C25.0748 2.8334 23.9192 3.00574 23.1893 3.01588C23.1031 2.69655 23.0626 2.56983 22.9156 2.25557C23.2755 2.27078 23.4731 2.25557 23.6708 2.21502C24.2943 2.07817 24.2943 1.81459 24.2943 1.6676C24.2943 1.41417 24.0966 1.26211 23.8533 1.26211C23.7925 1.26211 23.7063 1.27224 23.6607 1.27731C23.7773 1.45979 23.8482 1.60171 23.904 1.71322C23.6151 1.81459 23.3261 1.94638 23.1386 2.03255C23.0828 1.89569 23.0271 1.75884 22.8852 1.51554C22.6469 1.60678 22.4695 1.69295 22.3124 1.77404C22.87 2.96012 23.1437 3.84207 23.2349 4.26784C23.098 4.31853 22.4999 4.60238 22.3783 4.65813C22.2617 3.6596 21.9373 2.9145 21.6231 2.19475C21.3088 2.40763 21.248 2.45325 20.8678 2.75737Z" fill="var(--fill-0, black)"/>
<path id="Vector_28" d="M16.0627 2.33667L16.823 2.46339C16.894 2.47352 16.9294 2.48366 16.9294 2.51914C16.9294 2.56983 16.8737 2.58504 16.7977 2.60531C16.7622 2.83847 16.7419 2.96012 16.7115 3.09191C16.8382 3.28452 16.9903 3.45685 17.2437 3.62412V2.04775H15.8194V0.167267H19.4537V2.04775H18.0091V2.49887H19.4942V3.19328H18.0091V3.9029C18.1865 3.92824 18.4653 3.95358 18.8403 3.95358C19.3168 3.95358 19.697 3.9181 19.9808 3.88769C19.7831 4.19181 19.7122 4.36415 19.6615 4.65306C19.1039 4.67841 18.0496 4.65813 17.5225 4.50607C17.117 4.38442 16.752 4.17154 16.4834 3.83193C16.2908 4.24757 16.0931 4.48073 15.9106 4.66827C15.6927 4.50607 15.5457 4.42497 15.2213 4.30839C15.8954 3.62412 16.0323 3.01081 16.0627 2.33667ZM18.668 0.821129H16.5949V1.39389H18.668V0.821129Z" fill="var(--fill-0, black)"/>
<path id="Vector_29" d="M13.0113 1.88049L13.5131 1.37362C14.0504 1.75884 14.7499 2.45325 14.9932 2.78271C14.9476 2.82326 14.4863 3.24397 14.385 3.35548C13.797 2.54955 13.1279 2.03255 13.0113 1.95145V4.71389H12.2054V2.29612C11.6175 2.84861 11.1157 3.10711 10.5986 3.30986C10.4364 2.99053 10.2996 2.82326 10.0664 2.62558C11.44 2.25557 12.175 1.21142 12.393 0.876884H10.2438V0.182472H14.8817V0.876884H13.4168C13.2597 1.12018 13.1381 1.27731 13.0519 1.37868C13.0924 1.39389 13.1381 1.4091 13.1381 1.46992C13.1381 1.53075 13.0722 1.55609 13.0113 1.5713V1.88049Z" fill="var(--fill-0, black)"/>
<path id="Vector_30" d="M7.95279 1.06442V1.48006H9.51901V2.17954H7.95279V2.52928H9.85355V3.24396H7.95279V4.00427C7.95279 4.63786 7.65373 4.72909 6.75657 4.7443C6.69575 4.34387 6.55383 4.12085 6.42711 3.94851C6.61972 3.98906 6.8985 4.00427 6.91877 4.00427C7.12659 4.00427 7.13673 3.9029 7.13673 3.7559V3.24396H5.13966V2.52928H7.13673V2.17954H5.4742V1.48006H7.13673V1.16073C6.63999 1.19621 6.07737 1.20635 5.78845 1.20635C5.76311 1.03908 5.70229 0.775509 5.50461 0.511937C6.21929 0.532212 7.59798 0.562624 8.86515 0.0304108L9.37709 0.643723C9.39737 0.669066 9.4075 0.69441 9.4075 0.709616C9.4075 0.745097 9.37709 0.800853 9.31627 0.800853C9.26051 0.800853 9.19462 0.765372 9.16421 0.745097C8.85502 0.861677 8.53569 0.96812 7.95279 1.06442Z" fill="var(--fill-0, black)"/>
<path id="Vector_31" d="M2.01227 0.0557556L2.82327 0.111511C2.93478 0.121648 2.94491 0.172336 2.94491 0.187541C2.94491 0.223023 2.92971 0.243297 2.82327 0.293984C2.78778 1.89062 2.76244 3.06149 4.81526 4.06509C4.55169 4.26784 4.42497 4.4047 4.27798 4.69361C3.88262 4.50607 3.59371 4.29319 3.24903 3.96372C2.88916 3.61905 2.74723 3.39603 2.44311 2.91957C2.37722 3.0919 2.25557 3.40616 1.68788 3.95865C1.32293 4.30839 1.05429 4.47566 0.638657 4.68854C0.364947 4.32867 0.228091 4.21716 0 4.0803C1.05429 3.7407 1.55609 3.00067 1.74363 2.53435C1.97679 1.94131 2.04268 1.38375 2.01227 0.0557556Z" fill="var(--fill-0, black)"/>
</g>
</svg>
