<svg xmlns="http://www.w3.org/2000/svg" viewBox="0 0 100 100">
  <rect width="100" height="100" rx="16" fill="#E8821A"/>
  <path d="M75 35h-11.25V20H16.25c-4.125 0-7.5 3.375-7.5 7.5v41.25h7.5c0 6.225 5.025 11.25 11.25 11.25s11.25-5.025 11.25-11.25h22.5c0 6.225 5.025 11.25 11.25 11.25s11.25-5.025 11.25-11.25H91.25V53.75L75 35zM27.5 73.125c-3.1125 0-5.625-2.5125-5.625-5.625s2.5125-5.625 5.625-5.625 5.625 2.5125 5.625 5.625-2.5125 5.625-5.625 5.625zm50.625-33.75 7.35 9.375H63.75V39.375H78.125zm-5.625 33.75c-3.1125 0-5.625-2.5125-5.625-5.625s2.5125-5.625 5.625-5.625 5.625 2.5125 5.625 5.625-2.5125 5.625-5.625 5.625z" fill="white"/>
</svg>
