<svg width="58" height="10" viewBox="0 0 58 10" fill="none" xmlns="http://www.w3.org/2000/svg">
<path d="M55.9662 7.76135V7.99789H57.2587V8.53009H56.4984L57.0391 8.74551C57.0771 8.76241 57.1024 8.77086 57.1024 8.7962C57.1024 8.84266 57.0349 8.85111 56.9673 8.85533C56.8955 9.04118 56.8448 9.1679 56.7645 9.31151H57.4108V9.83105H53.867V9.31151H54.5723C54.471 9.0792 54.4118 8.9736 54.2429 8.75396L54.6568 8.53009H54.0401V7.99789H55.3495V7.76135H54.7413V7.46568C54.4625 7.64308 54.3865 7.69377 54.0401 7.88384C53.8838 7.68532 53.736 7.52904 53.5502 7.40232C54.7286 6.89968 55.2608 6.27033 55.3875 6.03379L56.076 6.10982C56.1014 6.11404 56.1309 6.11827 56.1309 6.15206C56.1309 6.1943 56.0887 6.21542 56.0465 6.22809C56.7519 6.97149 57.4361 7.2207 57.774 7.34319C57.6938 7.41077 57.3981 7.6811 57.3094 7.89229C57.0222 7.7698 56.8574 7.66843 56.566 7.46568V7.76135H55.9662ZM55.9662 8.53009V9.31151H56.4815C56.3126 9.21858 56.2323 9.18057 56.1521 9.14678C56.3337 8.87645 56.4182 8.64836 56.4562 8.53009H55.9662ZM55.3495 9.31151V8.53009H54.8131C54.868 8.59768 55.0243 8.80465 55.1595 9.10032C54.9821 9.19747 54.9018 9.24393 54.8004 9.31151H55.3495ZM55.0961 7.21647H56.2239C55.9831 7.03485 55.8479 6.90813 55.6663 6.69694C55.4509 6.94192 55.1975 7.14044 55.0961 7.21647Z" fill="#E8821A"/>
<path d="M51.2988 8.2471H50.8976V7.79937H51.3791C51.3875 7.73601 51.3875 7.69799 51.396 7.65153H50.9989V7.19958H51.113C50.9863 6.98416 50.9398 6.91235 50.8976 6.85322L51.2946 6.69694C51.2101 6.69694 51.1257 6.69694 51.0581 6.69271C51.0496 6.63358 51.0032 6.41816 50.8722 6.21542C51.4171 6.23231 52.2365 6.21542 52.8068 6.0169L53.1658 6.4773C53.1785 6.49419 53.1911 6.51109 53.1911 6.52376C53.1911 6.55333 53.1785 6.566 53.1404 6.566C53.1024 6.566 53.056 6.53643 53.0137 6.51531C52.9799 6.51954 52.8321 6.54488 52.8025 6.55333L53.1954 6.73918C53.2122 6.74762 53.2291 6.7603 53.2291 6.78564C53.2291 6.83633 53.1869 6.84477 53.1024 6.849C53.0517 6.95459 52.9968 7.06441 52.9166 7.19958H53.1658V7.65153H51.9704C51.9662 7.73178 51.962 7.76135 51.9578 7.79937H53.3347V8.2471H51.8522C51.8479 8.28933 51.8353 8.36959 51.8268 8.39916H52.9335L53.0729 8.55121C52.8997 8.96093 52.6462 9.24393 52.5871 9.30729C52.9124 9.45935 53.1996 9.49736 53.3263 9.51426C53.094 9.83527 53.0686 9.8944 53.0306 10C52.6589 9.92397 52.3041 9.71278 52.2027 9.64942C52.1352 9.70011 51.886 9.89018 51.5987 9.97888C51.4678 9.79303 51.3242 9.67476 51.2397 9.60718C51.0665 9.8057 50.9651 9.87751 50.8722 9.94087C50.7709 9.8057 50.6864 9.70855 50.5343 9.59451C50.5047 9.8944 50.2809 9.93242 49.9472 9.93242C49.8332 9.93242 49.7994 9.92819 49.7064 9.9113C49.6727 9.64942 49.6262 9.50581 49.5333 9.26927C49.5882 9.28194 49.7613 9.30729 49.8416 9.30729C49.9768 9.30729 49.9768 9.25238 49.9768 9.08765V8.57233C49.9176 8.58923 49.7909 8.63147 49.7149 8.64414C49.6938 8.71595 49.6726 8.75396 49.6346 8.75396C49.6093 8.75396 49.5966 8.72439 49.5924 8.70327L49.4615 8.10348C49.5755 8.07814 49.6811 8.05702 49.9768 7.97677V7.27983H49.5333V6.74762H49.9768V6.07603L50.5723 6.09715C50.6188 6.09715 50.6484 6.12672 50.6484 6.15628C50.6484 6.1943 50.6146 6.21542 50.5428 6.24498V6.74762H50.8004V7.27983H50.5428V7.80359C50.6822 7.75713 50.7328 7.73178 50.8004 7.70222C50.7878 7.89229 50.7877 7.95565 50.7877 8.02746C50.7877 8.13305 50.792 8.17951 50.8004 8.23865C50.6484 8.3189 50.5977 8.34002 50.5428 8.36114V9.4509C50.9145 9.22281 51.1763 8.80042 51.2988 8.2471ZM52.0591 7.19958H52.3041C52.4266 7.03062 52.5407 6.84055 52.6336 6.57867C52.4731 6.60401 52.321 6.62936 52.1605 6.64625C52.3041 6.86589 52.3295 6.94615 52.359 7.05597C52.2872 7.08553 52.207 7.1151 52.0591 7.19958ZM51.6241 6.78141L51.8775 6.66315C51.5312 6.68427 51.4931 6.68849 51.3875 6.69271C51.4847 6.83633 51.5607 6.95882 51.6241 7.11088C51.5945 7.12355 51.4593 7.18691 51.4298 7.19958H51.8395C51.717 6.9208 51.6705 6.849 51.6241 6.78141ZM52.397 8.7962H51.9113C51.962 8.85533 52.0507 8.96093 52.2027 9.0792C52.283 8.98627 52.321 8.93559 52.397 8.7962ZM51.5903 9.07497C51.4762 9.31151 51.3875 9.42133 51.265 9.57761C51.6367 9.4509 51.7339 9.38332 51.8099 9.33263C51.7128 9.23548 51.6494 9.15523 51.5903 9.07497Z" fill="#E8821A"/>
<path d="M47.5396 6.60824H49.1658V7.15734H47.5396V7.48258H48.3083L48.604 7.72756C48.4055 8.21331 48.1098 8.65259 47.717 8.99472C47.9324 9.10454 48.3928 9.30729 49.1531 9.40021C48.9504 9.61985 48.8659 9.78036 48.7941 9.96199C48.2914 9.86061 47.7846 9.72123 47.227 9.3622C46.6864 9.70433 46.2386 9.82682 45.6811 9.95776C45.5459 9.68321 45.4403 9.54805 45.3136 9.40021C45.8881 9.33263 46.3654 9.18902 46.7286 8.99472C46.5977 8.87223 46.4583 8.74129 46.1668 8.36114L46.509 8.06125H45.7698V7.48258H46.8891V7.15734H45.2756V6.60824H46.8891V6.04224L47.5692 6.07181C47.5987 6.07181 47.6325 6.09292 47.6325 6.13094C47.6325 6.16473 47.5987 6.18163 47.5396 6.21119V6.60824ZM47.7086 8.06125H46.6568C46.8258 8.35269 47.1088 8.58501 47.2059 8.66103C47.3242 8.55544 47.5565 8.35692 47.7086 8.06125Z" fill="#E8821A"/>
<path d="M43.2819 8.96938V9.93242H42.7033V8.98627C42.2049 9.48469 41.6262 9.78458 41.4319 9.88596C41.2672 9.66632 41.1742 9.59873 40.963 9.44245C41.2038 9.36642 41.4784 9.26082 41.8712 8.9905H41.3178V7.86272H42.7033V7.70222H41.0391V7.19958H42.7033V6.95882L43.3115 7.05174C43.3495 7.05597 43.3749 7.08131 43.3749 7.11088C43.3749 7.15312 43.3326 7.16579 43.2819 7.18691V7.19958H44.9081V7.70222H43.2819V7.86272H44.68V8.66103C44.68 8.96515 44.3717 9.02429 44.2027 9.04963C44.5533 9.26927 44.8363 9.37064 44.9842 9.42133C44.7392 9.57761 44.6632 9.63252 44.5111 9.88173C44.0507 9.64942 43.6199 9.35797 43.2819 8.96938ZM43.5523 6.81943H43.3875C43.3242 6.91658 43.2777 6.97149 43.2313 7.03062C42.9947 6.92503 42.9652 6.91658 42.7033 6.849C42.7117 6.84055 42.7202 6.82788 42.7286 6.81943H42.4414C42.4794 6.90391 42.5048 6.95459 42.547 7.08131C42.3274 7.08976 42.2133 7.11088 41.9599 7.17001C41.8923 6.96304 41.8796 6.92503 41.8332 6.81943H41.6938C41.5755 6.97571 41.5121 7.04752 41.453 7.1151C41.3347 7.05174 41.1404 6.96727 40.9293 6.91658C41.0475 6.78986 41.3474 6.45618 41.5248 6.00845L42.095 6.11827C42.1246 6.12249 42.15 6.14361 42.15 6.16895C42.15 6.21542 42.1035 6.24076 42.0444 6.24921C42.0317 6.27033 42.019 6.29567 42.0063 6.32101H42.8891V6.59556C42.9652 6.4604 43.0539 6.283 43.151 6L43.7508 6.10982C43.7761 6.11404 43.8099 6.13094 43.8099 6.17318C43.8099 6.21119 43.7677 6.23654 43.7001 6.23231L43.6621 6.32101H44.8406V6.81943H44.2027C44.2492 6.90391 44.3083 7.03062 44.3252 7.07709C44.0929 7.08553 43.9873 7.10243 43.6959 7.15734C43.6663 7.07286 43.641 6.99261 43.5523 6.81943ZM44.0718 8.34847H43.4467C43.5227 8.44562 43.7001 8.67371 43.9493 8.868C43.886 8.69483 43.8479 8.62724 43.7761 8.52165C43.8057 8.52587 43.9535 8.54277 43.9873 8.54277C44.0465 8.54277 44.0718 8.52165 44.0718 8.46251V8.34847ZM41.9134 8.34847V8.96093C42.0232 8.87645 42.3105 8.66104 42.5681 8.34847H41.9134Z" fill="#E8821A"/>
<path d="M38.9947 7.12355H39.7719V6.05913L40.4182 6.09293C40.4857 6.09715 40.5153 6.11404 40.5153 6.14361C40.5153 6.19007 40.4604 6.20697 40.4097 6.22387V7.12355H40.7983V7.68532H40.4097V9.30729C40.4097 9.85639 40.1605 9.91552 39.4467 9.91552C39.4044 9.61141 39.3242 9.44245 39.1552 9.23126C39.2735 9.25238 39.5058 9.28194 39.6198 9.28194C39.7381 9.28194 39.7719 9.23971 39.7719 9.04118V7.68532H38.9356V7.17423H38.7075C38.6188 7.71067 38.4667 8.11616 38.3147 8.44562C38.5047 8.73707 38.6779 9.04118 38.83 9.35375C38.471 9.5227 38.34 9.60718 38.2344 9.67476C38.1584 9.4509 38.095 9.29039 37.981 9.04118C37.5924 9.60296 37.339 9.8057 37.1869 9.92397C37.0348 9.7339 36.9124 9.6452 36.6631 9.54805C37.0602 9.29039 37.3643 8.9018 37.6093 8.49208C37.3812 8.17951 37.2038 7.9641 36.8743 7.65998L37.3432 7.33474C37.6135 7.56283 37.8416 7.85005 37.8965 7.92186C38.0021 7.67265 38.0486 7.49103 38.1162 7.17423H36.8279V6.6378H37.6008V6.03802L38.2809 6.07181C38.302 6.07181 38.3569 6.07603 38.3569 6.12249C38.3569 6.16896 38.3062 6.19007 38.2809 6.19852V6.6378H38.9947V7.12355ZM38.6399 8.14572L39.1552 7.85005C39.2946 8.03168 39.4762 8.31468 39.603 8.64414C39.5438 8.67371 39.2228 8.85111 39.0327 8.95248C38.9694 8.73284 38.7582 8.32313 38.6399 8.14572Z" fill="#E8821A"/>
<path d="M35.4678 7.86695V7.98522H35.9155V8.20063H35.4678V8.3189H35.9155V8.55544H35.4678V8.67371H36.452C36.452 8.85956 36.4266 9.3453 36.2534 9.64519C36.1774 9.77613 36.0507 9.93664 35.5185 9.9113C35.5185 9.74657 35.4974 9.65364 35.4087 9.4509C35.4678 9.45934 35.5649 9.46357 35.6241 9.46357C35.7128 9.46357 35.8775 9.46357 35.886 9.02006H34.7624V9.08764H34.2724V8.09081C34.2091 8.12883 34.188 8.13727 34.1373 8.16684C34.0866 8.09081 34.0528 8.04013 33.9092 7.90074V9.48046C33.9092 9.83949 33.6938 9.86061 33.3347 9.89863C33.2756 9.68321 33.1742 9.51003 33.1531 9.47624C33.1235 9.60718 33.0771 9.78881 32.9926 9.95354C32.8997 9.90707 32.7181 9.8226 32.4688 9.77613C32.5998 9.50158 32.7392 9.14255 32.7392 8.06969V6.16473H33.9092V7.71066C34.0993 7.5924 34.1922 7.50792 34.2513 7.44456H33.9768V7.09398H34.5132C34.5343 7.05597 34.5681 6.99261 34.585 6.95882H34.0655V6.57444H34.2978C34.2049 6.41394 34.1837 6.38015 34.0739 6.23654L34.4752 6.00422C34.5174 6.05491 34.6526 6.23231 34.7328 6.43083C34.5977 6.50264 34.5639 6.51953 34.4879 6.57444H34.7117C34.7709 6.33368 34.7793 6.16895 34.7835 6.03379L35.3706 6.11827C35.4044 6.12249 35.4298 6.13516 35.4298 6.16051C35.4298 6.19007 35.4087 6.20274 35.3411 6.24076C35.32 6.34213 35.2904 6.46885 35.265 6.57444H35.7381C35.6283 6.50686 35.5185 6.46885 35.472 6.45195C35.5185 6.37592 35.6536 6.16895 35.6874 6.02112L36.1774 6.18585C36.1985 6.1943 36.2365 6.20697 36.2365 6.23654C36.2365 6.27455 36.1859 6.283 36.1225 6.283C36.0718 6.38859 36.0296 6.45618 35.9493 6.57444H36.2196V6.95882H35.755C35.7761 6.99683 35.7888 7.02217 35.831 7.09398H36.4266V7.44456H36.1014C36.2914 7.63463 36.4308 7.71066 36.5364 7.7698C36.4308 7.86695 36.2999 8.01901 36.2196 8.1415C36.1225 8.08659 36.0338 8.04435 35.8437 7.86695H35.4678ZM34.9989 7.98522V7.86695H34.7624V7.98522H34.9989ZM34.9989 8.3189V8.20063H34.7624V8.3189H34.9989ZM35.4805 7.44456H34.9145C34.8976 7.47413 34.8553 7.53749 34.8173 7.58395H35.5776C35.5396 7.53749 35.51 7.49102 35.4805 7.44456ZM34.9989 8.67371V8.55544H34.7624V8.67371H34.9989ZM35.2524 6.95882H35.0792C35.0623 7.00106 35.0539 7.0264 35.0243 7.09398H35.3031C35.2862 7.05597 35.2777 7.03485 35.2524 6.95882ZM33.4234 7.5755H33.246V8.07392H33.4234V7.5755ZM33.246 7.13199H33.4234V6.66315H33.246V7.13199ZM33.4234 8.55966H33.246C33.2418 8.76241 33.2123 9.12144 33.1827 9.31151C33.2249 9.31996 33.2756 9.32418 33.3178 9.32418C33.3939 9.32418 33.4234 9.30729 33.4234 9.20169V8.55966ZM34.1795 9.06653L34.5554 9.19324C34.5808 9.20169 34.6061 9.21858 34.6061 9.24393C34.6061 9.27772 34.5723 9.28617 34.5174 9.29039C34.5048 9.35375 34.4456 9.59451 34.3231 9.86906C34.2471 9.83104 34.0697 9.73812 33.8923 9.69588C34.0317 9.50158 34.1373 9.2397 34.1795 9.06653ZM35.0285 9.18057L35.3031 9.12144C35.3664 9.29884 35.3875 9.40866 35.4002 9.51848C35.2186 9.56072 35.1552 9.58606 35.1003 9.60718C35.0919 9.48469 35.0792 9.39599 35.0285 9.18057ZM34.6103 9.22281L34.9145 9.17635C34.9567 9.3622 34.9778 9.50158 34.9863 9.70433C34.9314 9.70433 34.8427 9.70433 34.6357 9.75924C34.6357 9.56494 34.6357 9.3622 34.6103 9.22281ZM35.4044 9.11299L35.679 9.02851C35.7635 9.24815 35.7677 9.30306 35.7761 9.35797C35.679 9.37487 35.6114 9.40021 35.4931 9.44245C35.4847 9.34952 35.4678 9.27349 35.4044 9.11299Z" fill="#E8821A"/>
<path d="M31.2059 9.51848H30.0106V9.67476H29.4446V8.57233H31.2228V9.3453C31.3326 9.37064 31.3537 9.37487 31.4002 9.37487C31.4762 9.37487 31.4974 9.3453 31.4974 9.26082V8.40338H29.1658V9.91975H28.5533V7.95987H32.0929V9.44245C32.0929 9.80993 31.9366 9.93664 31.3664 9.95354C31.3369 9.8226 31.3031 9.69166 31.2059 9.51848ZM30.6484 8.93559H30.0106V9.13833H30.6484V8.93559ZM29.1742 6.90813H31.4678V7.81626H29.1742V6.90813ZM30.8933 7.26716H29.7487V7.45723H30.8933V7.26716ZM30.6484 6.283H32.2492V6.76452H28.3801V6.283H29.9894V6.02112L30.6484 6.04646C30.6737 6.04646 30.7328 6.05913 30.7328 6.10137C30.7328 6.12672 30.7117 6.14783 30.6484 6.17318V6.283Z" fill="#E8821A"/>
<path d="M27.2059 6.78141V7.22914H27.9662V9.93242H27.4044V9.76769H25.9219V9.93242H25.3601V7.22914H26.1162V6.78141H25.3263V6.39282C25.301 6.40127 25.2925 6.40127 25.2672 6.40549C25.1573 6.68427 25.1236 6.77719 25.0686 6.89124L25.1489 6.92503C25.1742 6.9377 25.2038 6.95459 25.2038 6.98416C25.2038 7.01795 25.1827 7.03062 25.1236 7.06019V9.93242H24.5238V7.8585C24.4646 7.9472 24.4139 8.00634 24.359 8.07814C24.2365 7.83316 24.1183 7.70222 23.9831 7.5755C24.4646 6.95882 24.6758 6.26188 24.735 6.03379L25.3263 6.23231V6.21119H28.0634V6.78141H27.2059ZM26.7624 7.83738H26.5639V9.19324H26.7624V7.83738ZM26.7582 7.22914V6.78141H26.5639V7.22914H26.7582ZM27.4044 7.83738H27.2101V9.19324H27.4044V7.83738ZM25.9219 7.83738V9.19324H26.1162V7.83738H25.9219Z" fill="#E8821A"/>
<path d="M21.2418 8.66948V9.93242H20.6294V8.68638C20.4393 8.74129 20.321 8.77086 20.1732 8.80887C20.1563 8.86378 20.1309 8.93981 20.0887 8.93981C20.0802 8.93981 20.0338 8.93559 20.0211 8.87645L19.9028 8.22598C20.2492 8.15839 20.3464 8.13305 20.6294 8.06547V7.35164H20.4393C20.4013 7.51637 20.3844 7.58817 20.3379 7.74446C20.1858 7.66843 20 7.5924 19.8015 7.56283C19.9451 7.11932 20.0084 6.849 20.0211 6.33791L20.5449 6.38437C20.5744 6.3886 20.6167 6.39282 20.6294 6.40971V6.05491L21.2418 6.08448C21.284 6.08448 21.3474 6.0887 21.3474 6.13516C21.3474 6.17318 21.3178 6.18585 21.2418 6.22386V6.79409H21.4868V7.11932C21.6895 6.72228 21.8036 6.24921 21.8458 6.03379L22.4667 6.16473C22.4963 6.16895 22.5259 6.18585 22.5259 6.21542C22.5259 6.26188 22.4667 6.27455 22.4034 6.283C22.3273 6.51954 22.3189 6.5491 22.2302 6.76452H23.7466C23.7466 8.74974 23.6705 9.29039 23.5565 9.56072C23.4931 9.70433 23.3833 9.91975 22.6315 9.92397C22.585 9.68321 22.5554 9.57761 22.3907 9.30306C22.2133 9.51848 22.057 9.69166 21.7613 9.90708C21.6093 9.72123 21.5248 9.64942 21.3052 9.50581C21.5924 9.33685 22.4118 8.67371 22.7793 7.32207H22.6061C22.3991 8.04435 22.0021 8.71595 21.6557 9.04963C21.4995 8.86378 21.4783 8.84689 21.2418 8.66948ZM21.2418 7.54593V7.88807C21.3643 7.85005 21.4488 7.82049 21.6008 7.7698C21.567 7.99789 21.5628 8.0359 21.5586 8.34424C21.8163 8.04857 22.0274 7.68532 22.1542 7.32207H21.9852C21.9641 7.36853 21.8416 7.61352 21.6853 7.79514C21.5079 7.67687 21.4446 7.63464 21.2418 7.54593ZM21.2418 8.48363V8.65259C21.3474 8.55966 21.4277 8.48786 21.5459 8.36114C21.4192 8.41605 21.2714 8.47518 21.2418 8.48363ZM22.4203 9.26505C22.4879 9.2735 22.6779 9.28194 22.8046 9.28194C22.9651 9.28194 23.0285 9.20591 23.0581 9.04118C23.1257 8.67793 23.1383 8.41605 23.1594 7.8416C22.982 8.41183 22.699 8.91024 22.4203 9.26505ZM21.2418 7.26716V7.49525C21.3136 7.40655 21.3559 7.34319 21.4023 7.26716H21.2418ZM20.4857 6.79409H20.6294V6.45618C20.604 6.48997 20.5702 6.50686 20.5153 6.52376C20.5069 6.57867 20.5026 6.61668 20.4857 6.79409Z" fill="#E8821A"/>
<path d="M18.1964 7.48258C18.4752 7.48258 18.7117 7.71067 18.7117 7.99789C18.7117 8.28089 18.4794 8.5132 18.1964 8.5132C17.9134 8.5132 17.6811 8.28089 17.6811 7.99789C17.6811 7.71067 17.9134 7.48258 18.1964 7.48258Z" fill="#E8821A"/>
<path d="M13.3854 7.95143L14.019 8.05702C14.0781 8.06547 14.1077 8.07392 14.1077 8.10349C14.1077 8.14572 14.0612 8.1584 13.9979 8.17529C13.9683 8.36959 13.9514 8.47096 13.9261 8.58078C14.0317 8.74129 14.1584 8.8849 14.3696 9.02429V7.71067H13.1827V6.14361H16.2112V7.71067H15.0074V8.08659H16.245V8.66526H15.0074V9.2566C15.1552 9.27772 15.3875 9.29884 15.7001 9.29884C16.0971 9.29884 16.4139 9.26927 16.6505 9.24393C16.4857 9.49736 16.4266 9.64097 16.3844 9.88173C15.9197 9.90285 15.0412 9.88596 14.6019 9.75924C14.264 9.65787 13.9599 9.48047 13.736 9.19747C13.5755 9.54382 13.4108 9.73812 13.2587 9.8944C13.0771 9.75924 12.9546 9.69166 12.6843 9.59451C13.246 9.02429 13.3601 8.5132 13.3854 7.95143ZM15.5565 6.68849H13.8289V7.16579H15.5565V6.68849Z" fill="#E8821A"/>
<path d="M10.8427 7.57128L11.2608 7.14889C11.7086 7.4699 12.2915 8.04857 12.4942 8.32313C12.4562 8.35692 12.0718 8.7075 11.9873 8.80042C11.4974 8.12883 10.9398 7.69799 10.8427 7.63041V9.93242H10.1711V7.91763C9.6811 8.37804 9.26294 8.59345 8.83211 8.76241C8.69694 8.4963 8.5829 8.35692 8.3886 8.19219C9.53327 7.88384 10.1457 7.01373 10.3274 6.73495H8.53643V6.15628H12.4013V6.73495H11.1806C11.0496 6.9377 10.9483 7.06864 10.8765 7.15311C10.9102 7.16579 10.9483 7.17846 10.9483 7.22914C10.9483 7.27983 10.8934 7.30095 10.8427 7.31362V7.57128Z" fill="#E8821A"/>
<path d="M6.62725 6.89124V7.23759H7.93242V7.82049H6.62725V8.11193H8.2112V8.7075H6.62725V9.34108C6.62725 9.86906 6.37804 9.94509 5.63041 9.95776C5.57973 9.62408 5.46146 9.43823 5.35586 9.29462C5.51637 9.32841 5.74868 9.34108 5.76558 9.34108C5.93876 9.34108 5.9472 9.2566 5.9472 9.13411V8.7075H4.283V8.11193H5.9472V7.82049H4.56178V7.23759H5.9472V6.97149C5.53327 7.00106 5.06442 7.0095 4.82366 7.0095C4.80254 6.87012 4.75185 6.65048 4.58712 6.43083C5.18268 6.44773 6.33158 6.47307 7.38754 6.02957L7.81415 6.54066C7.83105 6.56177 7.8395 6.58289 7.8395 6.59557C7.8395 6.62513 7.81415 6.6716 7.76347 6.6716C7.717 6.6716 7.66209 6.64203 7.63675 6.62513C7.37909 6.72228 7.11299 6.81098 6.62725 6.89124Z" fill="#E8821A"/>
<path d="M1.67687 6.05069L2.35269 6.09715C2.44562 6.1056 2.45407 6.14783 2.45407 6.16051C2.45407 6.19007 2.44139 6.20697 2.35269 6.24921C2.32313 7.57972 2.30201 8.55544 4.01267 9.39176C3.79303 9.56072 3.68743 9.67476 3.56494 9.91552C3.23548 9.75924 2.99472 9.58184 2.7075 9.30729C2.4076 9.02006 2.28933 8.83421 2.0359 8.43717C1.98099 8.58078 1.87962 8.84266 1.40655 9.30306C1.10243 9.59451 0.878564 9.7339 0.532207 9.9113C0.304118 9.6114 0.190074 9.51848 0 9.40443C0.878564 9.12144 1.29673 8.50475 1.45301 8.11616C1.64731 7.62196 1.70222 7.15734 1.67687 6.05069Z" fill="#E8821A"/>
<mask id="mask0_9_2" style="mask-type:luminance" maskUnits="userSpaceOnUse" x="0" y="0" width="52" height="4">
<path d="M52 0H0V3.94721H52V0Z" fill="white"/>
</mask>
<g mask="url(#mask0_9_2)">
<path d="M16.8298 0V0.196557H18.3345V0.893154H15.178V2.17837C15.1849 2.54496 15.1156 2.90899 14.9747 3.24747C14.8565 3.53848 14.6475 3.78359 14.3789 3.94633V2.79897C14.4323 2.73929 14.4678 2.66579 14.4814 2.58686C14.5024 2.4608 14.5114 2.33304 14.5083 2.20528V0.196557H16.1157V0H16.8298ZM16.6603 1.1741L16.129 3.1961C16.5418 3.21336 16.9545 3.15747 17.3478 3.03099L17.0531 1.90634H17.79L18.3345 3.94616H17.5891L17.5133 3.68408C17.2454 3.78909 16.9621 3.84941 16.6747 3.86265C16.338 3.88594 15.8112 3.89759 15.0942 3.89759V3.20134H15.3755L15.8884 1.17427L16.6603 1.1741Z" fill="black"/>
<path d="M20.7152 0L20.6659 0.125097H22.438V1.6343H19.5271V1.81286H22.5582V2.21891H19.5271V2.40638H22.6213V3.1477C22.6339 3.266 22.6195 3.38561 22.5792 3.49756C22.539 3.60951 22.4739 3.71091 22.3889 3.79416C22.2211 3.90791 22.0198 3.96143 21.8176 3.94599H21.5713V3.29971H21.7497C21.7755 3.30312 21.8018 3.30045 21.8264 3.29193C21.8511 3.2834 21.8734 3.26925 21.8916 3.25059C21.9098 3.23194 21.9234 3.20929 21.9314 3.18446C21.9393 3.15962 21.9413 3.13328 21.9373 3.10752V2.83985H20.3832V3.41118H20.7581V2.98277H21.4013V3.87138H18.6828V2.98277H19.3213V3.41135H19.714V2.84003H18.8525V0.125097H19.9599L20.0133 0H20.7152ZM19.5271 0.692229H21.7635V0.509126H19.5271V0.692229ZM19.5271 1.25482H21.7635V1.07189H19.5271V1.25482Z" fill="black"/>
<path d="M23.7498 0.245828V2.70165H26.9063V3.26861H26.5313L26.8572 3.94721H26.1338L25.8302 3.26861H25.3079V3.94721H24.607V3.26861H24.1382C24.097 3.39866 24.0462 3.5255 23.9864 3.64809C23.935 3.75637 23.8689 3.85703 23.79 3.94721H23.0137C23.1059 3.8579 23.1855 3.75652 23.2505 3.64582C23.3243 3.52668 23.3856 3.40028 23.4336 3.26861H23.0585V0.245828H23.7498ZM26.7992 2.50492H24.0316V0.0625496H26.8L26.7992 2.50492ZM24.6933 0.754779H26.1399V0.527646H24.6933V0.754779ZM24.6933 1.39319H26.1399V1.16554H24.6933V1.39319ZM24.6933 2.03161H26.1399V1.80448H24.6933V2.03161Z" fill="black"/>
<path d="M31.024 2.51663C30.5321 2.51792 30.0412 2.47376 29.5574 2.38471C29.1566 2.31862 28.7658 2.20228 28.3941 2.03842V3.88466H27.6485V0.00891113H28.3941V1.23385C28.7911 1.42883 29.2158 1.56153 29.6532 1.62732C30.1053 1.71174 30.5641 1.75507 31.024 1.75678V2.51663Z" fill="black"/>
<path d="M35.2387 2.10307C35.2265 2.33505 35.1675 2.56218 35.0655 2.77085C34.9634 2.97953 34.8203 3.16547 34.6447 3.31753C34.2137 3.68362 33.5619 3.86666 32.6894 3.86666H31.7157V3.12569H32.6847C33.2799 3.12569 33.713 3.04089 33.984 2.8713C34.1056 2.79438 34.2069 2.68926 34.2791 2.56485C34.3514 2.44044 34.3926 2.30043 34.3992 2.15671V2.05415H31.4115V1.32628H35.2378L35.2387 2.10307ZM35.1403 0.910975H31.5191V0.17H35.1401L35.1403 0.910975Z" fill="black"/>
<path d="M36.5559 2.56292H35.9171L35.77 0.982434H36.3906L36.5559 2.56292ZM38.8595 1.71904C38.8595 2.42432 38.7048 2.94672 38.3953 3.28625C38.0502 3.66422 37.4847 3.85321 36.6988 3.85321H35.8907V3.21043H36.6944C37.2717 3.21043 37.6735 3.0869 37.9 2.83985C38.1024 2.61645 38.2037 2.24144 38.2038 1.71485V0.933338H38.8599L38.8595 1.71904ZM37.5918 2.56292H36.9577L36.8059 0.982434H37.4263L37.5918 2.56292Z" fill="black"/>
<path d="M43.2755 1.70996C43.2891 1.9865 43.2462 2.26292 43.1495 2.52235C43.0527 2.78179 42.9042 3.01882 42.7129 3.21899C42.2694 3.65962 41.5952 3.87988 40.6906 3.87977H39.726V3.13425H40.686C41.3053 3.13425 41.7675 3.01597 42.0724 2.7794C42.3773 2.54283 42.5299 2.1701 42.53 1.66121V0.923729H40.7618C40.7059 1.19615 40.5761 1.44792 40.3866 1.65143C40.1378 1.9177 39.8085 2.09497 39.4492 2.15601V1.37502C39.5592 1.34398 39.662 1.29153 39.7516 1.22069C39.8413 1.14984 39.9161 1.06199 39.9718 0.962166C40.099 0.721137 40.1605 0.450889 40.1502 0.17856H43.2755V1.70996Z" fill="black"/>
<path d="M44.6016 0V0.754603H44.8471V1.38358H44.6016V3.94703H43.9317V1.38428H43.6683V0.755302H43.9317V0H44.6016ZM45.4588 1.76359V1.97325H46.1548V3.22353C46.1724 3.41503 46.1336 3.60747 46.0432 3.77721C45.9855 3.83988 45.9137 3.88794 45.8337 3.91743C45.7538 3.94692 45.6679 3.95701 45.5833 3.94686H45.378V3.30425H45.5566C45.64 3.30425 45.6816 3.2477 45.6815 3.1346V2.58581H45.4584C45.4684 2.88033 45.4095 3.1731 45.2865 3.44088C45.1805 3.65974 45.0055 3.83774 44.7886 3.94756V3.23227C44.8587 3.1725 44.9123 3.09558 44.9439 3.00898C44.9837 2.87132 45.0006 2.72808 44.994 2.58494H44.7887V1.9743H44.994V1.76464L45.4588 1.76359ZM46.2579 0V0.125097H47.5176V1.14317C47.522 1.21295 47.5114 1.28285 47.4868 1.34826C47.4621 1.41367 47.4239 1.47311 47.3745 1.52266C47.2451 1.62314 47.0824 1.67095 46.9192 1.65649H46.4237V1.10718H46.7185C46.7463 1.1084 46.7739 1.10238 46.7987 1.08971C46.8221 1.0765 46.8412 1.0569 46.8539 1.03319C46.8665 1.00949 46.8722 0.98267 46.8701 0.955877V0.687687H46.2586C46.2566 0.811464 46.2293 0.933523 46.1784 1.04637C46.1275 1.15922 46.0541 1.26047 45.9627 1.34392C45.8331 1.46478 45.6805 1.55829 45.5141 1.61887C45.3476 1.67945 45.1706 1.70585 44.9937 1.6965V1.12955C45.1579 1.14008 45.3203 1.0892 45.4492 0.986802C45.4929 0.949666 45.5285 0.903961 45.5538 0.852512C45.5791 0.801064 45.5937 0.744966 45.5964 0.687687H44.9937V0.125097H45.5964V0H46.2579ZM46.9411 1.76359V1.97325H47.624V3.29516C47.6437 3.47642 47.6054 3.65924 47.5147 3.81739C47.4514 3.86922 47.3781 3.90746 47.2993 3.92973C47.2206 3.952 47.1382 3.95783 47.0571 3.94686H46.8429V3.30425H47.0176C47.1039 3.30425 47.1471 3.2477 47.1471 3.1346V2.58581H46.9411C46.95 2.88095 46.8888 3.17399 46.7625 3.44088C46.6585 3.65888 46.486 3.83684 46.2714 3.94756V3.23227C46.3402 3.17087 46.3918 3.09258 46.4211 3.00513C46.4607 2.86905 46.4781 2.72744 46.4725 2.58581H46.2715V1.9743H46.4725V1.76464L46.9411 1.76359Z" fill="black"/>
<path d="M49.598 0H50.4462C50.5973 0.23225 50.8086 0.419003 51.0577 0.540225C51.3518 0.6912 51.6712 0.786564 51.9998 0.82152V1.50466C51.9222 1.49296 51.8651 1.48335 51.8281 1.47566C51.791 1.46797 51.7425 1.45714 51.6829 1.44212V1.82178H48.3746V1.4374L48.0442 1.50431V0.82117C48.3732 0.783939 48.6927 0.68789 48.9877 0.537605C49.2364 0.417453 49.4474 0.231536 49.598 0ZM52 2.17872V2.75931H49.4643L49.2372 3.25481C49.5736 3.25481 49.8719 3.24438 50.1323 3.22353C50.3746 3.20542 50.6155 3.17116 50.8533 3.12097L50.688 2.76368H51.4517L52.0007 3.94686H51.2319L51.1159 3.69247C50.8218 3.78925 50.5165 3.84797 50.2074 3.86719C49.8725 3.89048 49.3538 3.90213 48.6512 3.90213H48.0441V3.25952H48.4101L48.6423 2.75948H48.0441V2.1789L52 2.17872ZM48.9996 1.24573H51.0403C50.65 1.09856 50.3008 0.859634 50.0222 0.549136C49.8894 0.698871 49.7379 0.830931 49.5714 0.942075C49.392 1.0631 49.2003 1.16489 48.9996 1.24573Z" fill="black"/>
<path d="M0.786227 1.15977C0.747375 1.37512 0.66478 1.58021 0.543545 1.76237C0.415656 1.96839 0.225182 2.12807 0 2.21803L0 1.79871C0.12267 1.73639 0.222388 1.63673 0.284789 1.5141C0.349357 1.40491 0.392525 1.28442 0.411983 1.15907L0.786227 1.15977ZM0.883195 1.83907L0.633349 2.73956H0.887388C0.981545 2.74074 1.07567 2.73519 1.16903 2.72297C1.25086 2.70951 1.33073 2.68604 1.40682 2.65308L1.22721 2.15898H1.5929L1.94146 3.09669H1.56896L1.51864 2.95883C1.41948 3.00322 1.31483 3.03413 1.20747 3.05074C1.10448 3.0662 1.00044 3.0735 0.896299 3.07257H0.0524151V2.73956H0.252117L0.497594 1.83907H0.883195ZM1.52965 1.15977C1.55 1.28465 1.59305 1.40474 1.65667 1.5141C1.71831 1.63728 1.81824 1.73715 1.94146 1.79871V2.21803C1.71685 2.12865 1.52695 1.96939 1.39983 1.76377C1.27775 1.58152 1.19503 1.37581 1.15698 1.15977H1.52965Z" fill="black"/>
<path d="M2.79582 1.15977C2.81851 1.18971 2.83834 1.2217 2.85505 1.25534C2.87586 1.29688 2.89412 1.33965 2.90974 1.38341H3.429L3.52981 1.15977H3.8913L3.78647 1.38341H4.13276V1.67047H3.66801C3.71734 1.73825 3.78362 1.79188 3.8602 1.82597C3.94548 1.86467 4.03824 1.88412 4.13189 1.88293V2.20965L4.02706 2.19427V2.7815H4.13189V3.07293H2.19113V2.78132H2.29596V2.19427L2.19113 2.20965V1.88293C2.28474 1.88379 2.37743 1.86436 2.46281 1.82597C2.54055 1.79243 2.60792 1.73875 2.65797 1.67047H2.19113V1.38341H2.5638C2.54803 1.34055 2.52935 1.29881 2.50789 1.25849C2.48941 1.22314 2.46696 1.19002 2.44097 1.15977H2.79582ZM2.52851 2.1305H3.79503C3.67864 2.0884 3.57097 2.02527 3.4774 1.94425C3.39175 1.86955 3.32494 1.77569 3.28241 1.6703H3.04357C3.00321 1.77614 2.93717 1.87028 2.85138 1.94425C2.75575 2.02531 2.64624 2.08841 2.52816 2.1305M2.60713 2.78132H2.78901V2.39345H2.60783L2.60713 2.78132ZM3.0738 2.78132H3.24852V2.39345H3.0738V2.78132ZM3.53383 2.78132H3.71571V2.39345H3.53383V2.78132Z" fill="black"/>
<path d="M4.95218 1.15977V1.36594H5.17931V1.64828C5.16734 1.72724 5.14599 1.80449 5.11572 1.87838C5.08197 1.96188 5.04013 2.04188 4.99079 2.11722L5.22317 2.3012V2.67597L4.95218 2.4401V3.09739H4.63454V2.49846C4.55652 2.55767 4.47192 2.60768 4.38243 2.64749V2.26206C4.50204 2.20759 4.60657 2.12477 4.68696 2.02078C4.77068 1.91958 4.8279 1.79913 4.85347 1.6703H4.38173V1.36594H4.63385V1.15977H4.95218ZM5.94475 1.15977V1.63518H6.27986V1.98147H5.94475V2.72856H6.32371V3.07258H5.22823V2.72873H5.60737V1.98147H5.27418V1.63518H5.60737V1.15977H5.94475Z" fill="black"/>
<path d="M8.46225 3.07502H6.62597V1.19087H8.46225V3.07502ZM6.93732 2.77259H8.15108V1.49313H6.93732V2.77259ZM6.99428 1.69877H7.64073V1.54992H7.93897V1.69895H8.09622V1.99038H7.93897V2.47959C7.94251 2.51546 7.93825 2.55167 7.92649 2.58575C7.91473 2.61983 7.89574 2.65096 7.87083 2.67702C7.81949 2.71428 7.75658 2.73211 7.69332 2.72733H7.38652V2.49217H7.16725L7.09736 2.09556H7.37324L7.43474 2.46141H7.58814C7.59525 2.4624 7.6025 2.46172 7.60931 2.45944C7.61612 2.45715 7.6223 2.45332 7.62738 2.44824C7.63246 2.44316 7.63629 2.43698 7.63858 2.43017C7.64086 2.42336 7.64154 2.41611 7.64056 2.409V1.98968H6.9941L6.99428 1.69877Z" fill="black"/>
<path d="M9.27311 1.31964V1.64619L8.76468 1.47916V1.15977L9.27311 1.31964ZM9.27311 1.83243V2.15671L8.76468 1.9902V1.67047L9.27311 1.83243ZM8.98605 2.25542H9.30351C9.30832 2.44474 9.25656 2.63119 9.15483 2.79093C9.06426 2.93498 8.92629 3.04292 8.76468 3.09616V2.69117C8.83523 2.65557 8.89137 2.59678 8.92368 2.52466C8.96568 2.44118 8.98695 2.34887 8.98605 2.25542ZM9.86697 1.31527V1.15977H10.1977V1.31527H10.6534V1.63745H10.1977V1.92661H10.7061V2.24896H10.0137L9.83902 2.72436C9.91916 2.72536 9.99927 2.72057 10.0787 2.71004C10.1398 2.70132 10.1997 2.68627 10.2576 2.66514L10.1764 2.36497H10.505L10.7068 3.09634H10.3789L10.3459 2.98522C10.2375 3.02556 10.1239 3.05026 10.0085 3.0586C9.88165 3.06955 9.66477 3.07496 9.35785 3.07485V2.72873H9.48277L9.65574 2.24896H9.35837V1.92661H9.8668V1.63745H9.40904V1.31527H9.86697Z" fill="black"/>
<path d="M12.8971 2.70218V3.09669C12.6925 3.04686 12.5011 2.95334 12.3361 2.82256C12.1726 2.69486 12.0395 2.53249 11.9463 2.34715C11.8445 2.52955 11.7052 2.68826 11.5374 2.81277C11.3636 2.94388 11.1661 3.04027 10.9558 3.09669V2.70218C11.177 2.63786 11.3738 2.50894 11.5212 2.33195C11.6655 2.15533 11.743 1.9335 11.7401 1.70541V1.15977H12.1037V1.67012C12.1013 1.90424 12.1787 2.13221 12.323 2.31657C12.4666 2.50489 12.6684 2.64045 12.8971 2.70218Z" fill="black"/>
</g>
</svg>
