<svg preserveAspectRatio="none" width="100%" height="100%" overflow="visible" style="display: block;" viewBox="0 0 120 90.9091" fill="none" xmlns="http://www.w3.org/2000/svg">
<g id="image" clip-path="url(#clip0_6_483)">
<path id="Vector" d="M104.332 65.0806V50.5593H116.355L119.722 59.4784V71.8649H117.103V70.9061H113.096C113.096 70.9061 113.578 65.0867 109.619 65.0867H105.666" fill="var(--fill-0, #EE7800)"/>
<path id="Vector_2" d="M108.768 52.0006V56.9637H113.47L119.722 59.4723L116.898 52.0006H108.768Z" fill="var(--fill-0, white)"/>
<path id="Vector_3" d="M78.2296 67.0044C76.1173 67.0044 74.4093 68.711 74.4093 70.8216C74.4093 72.9323 76.1173 74.6389 78.2296 74.6389C80.342 74.6389 82.05 72.9323 82.05 70.8216C82.05 68.711 80.342 67.0044 78.2296 67.0044ZM78.2296 73.0167C77.0165 73.0167 76.0328 72.0338 76.0328 70.8216C76.0328 69.6095 77.0165 68.6266 78.2296 68.6266C79.4427 68.6266 80.4265 69.6095 80.4265 70.8216C80.4265 72.0338 79.4427 73.0167 78.2296 73.0167Z" fill="var(--fill-0, #595757)"/>
<path id="Vector_4" d="M107.941 67.0044C105.829 67.0044 104.121 68.711 104.121 70.8216C104.121 72.9323 105.829 74.6389 107.941 74.6389C110.054 74.6389 111.762 72.9323 111.762 70.8216C111.762 68.711 110.054 67.0044 107.941 67.0044ZM107.941 73.0167C106.728 73.0167 105.745 72.0338 105.745 70.8216C105.745 69.6095 106.728 68.6266 107.941 68.6266C109.155 68.6266 110.138 69.6095 110.138 70.8216C110.138 72.0338 109.155 73.0167 107.941 73.0167Z" fill="var(--fill-0, #595757)"/>
<path id="Vector_5" d="M67.1368 46.5008H102.57V64.9178H67.1368V48.2074" fill="var(--fill-0, #F6AC63)"/>
<path id="Vector_6" d="M56.0801 34.3495V39.2341H85.9548V34.2892L56.0801 34.3495Z" fill="var(--fill-0, #EE7800)"/>
<path id="Vector_7" d="M106.849 26.9019H35.0953V29.2839H106.849V26.9019Z" fill="var(--fill-0, #EE7800)"/>
<path id="Vector_8" d="M31.7578 23.9228L70.9209 13.6831L115.92 25.4485V22.4212L70.9209 10.6558L31.4802 20.9619" fill="var(--fill-0, #EE7800)"/>
<path id="Vector_9" d="M31.7578 23.9228L70.9209 13.6831L115.92 25.4485V22.4212L70.9209 10.6558L31.4802 20.9619" stroke="var(--stroke-0, #221815)" stroke-width="0.827273" stroke-miterlimit="10" stroke-linecap="round"/>
<path id="Vector_10" d="M35.548 24.4897L70.9209 15.239L106.457 24.5319" stroke="var(--stroke-0, #221815)" stroke-width="0.827273" stroke-miterlimit="10" stroke-linecap="round"/>
<path id="Vector_11" d="M106.849 29.2839H35.0953" stroke="var(--stroke-0, #221815)" stroke-width="0.827273" stroke-miterlimit="10" stroke-linecap="round"/>
<path id="Vector_12" d="M106.849 34.2892H35.0953" stroke="var(--stroke-0, #221815)" stroke-width="0.827273" stroke-miterlimit="10" stroke-linecap="round"/>
<path id="Vector_13" d="M35.0953 26.9019H106.849" stroke="var(--stroke-0, #221815)" stroke-width="0.827273" stroke-miterlimit="10" stroke-linecap="round"/>
<path id="Vector_14" d="M40.3219 29.2839V30.8397H49.7128V29.2839" stroke="var(--stroke-0, #221815)" stroke-width="0.827273" stroke-miterlimit="10" stroke-linecap="round"/>
<path id="Vector_15" d="M57.607 29.2839V30.8397H66.9979V29.2839" stroke="var(--stroke-0, #221815)" stroke-width="0.827273" stroke-miterlimit="10" stroke-linecap="round"/>
<path id="Vector_16" d="M74.8982 29.2839V30.8397H84.2891V29.2839" stroke="var(--stroke-0, #221815)" stroke-width="0.827273" stroke-miterlimit="10" stroke-linecap="round"/>
<path id="Vector_17" d="M92.1833 29.2839V30.8397H101.58V29.2839" stroke="var(--stroke-0, #221815)" stroke-width="0.827273" stroke-miterlimit="10" stroke-linecap="round"/>
<path id="Vector_18" d="M33.2304 25.744V39.2341" stroke="var(--stroke-0, #221815)" stroke-width="0.827273" stroke-miterlimit="10" stroke-linecap="round"/>
<path id="Vector_19" d="M108.557 25.6234V44.8485" stroke="var(--stroke-0, #221815)" stroke-width="0.827273" stroke-miterlimit="10" stroke-linecap="round"/>
<path id="Vector_20" d="M56.0801 34.3495V39.2341H85.9548V34.2892" stroke="var(--stroke-0, #221815)" stroke-width="0.827273" stroke-miterlimit="10" stroke-linecap="round"/>
<path id="Vector_21" d="M57.4259 39.2341V61.9448" stroke="var(--stroke-0, #221815)" stroke-width="0.827273" stroke-miterlimit="10" stroke-linecap="round"/>
<path id="Vector_22" d="M59.5021 39.2341V61.9448" stroke="var(--stroke-0, #221815)" stroke-width="0.827273" stroke-miterlimit="10" stroke-linecap="round"/>
<path id="Vector_23" d="M82.4725 39.2341V44.7882" stroke="var(--stroke-0, #221815)" stroke-width="0.827273" stroke-miterlimit="10" stroke-linecap="round"/>
<path id="Vector_24" d="M84.5486 39.2341V44.7882" stroke="var(--stroke-0, #221815)" stroke-width="0.827273" stroke-miterlimit="10" stroke-linecap="round"/>
<path id="Vector_25" d="M59.5021 41.4956H82.4725" stroke="var(--stroke-0, #221815)" stroke-width="0.827273" stroke-miterlimit="10" stroke-linecap="round"/>
<path id="Vector_26" d="M59.5021 44.6676H80.8248" stroke="var(--stroke-0, #221815)" stroke-width="0.827273" stroke-miterlimit="10" stroke-linecap="round"/>
<path id="Vector_27" d="M59.5624 48.0265H65.1813" stroke="var(--stroke-0, #221815)" stroke-width="0.827273" stroke-miterlimit="10" stroke-linecap="round"/>
<path id="Vector_28" d="M59.5624 51.1985H65.1813" stroke="var(--stroke-0, #221815)" stroke-width="0.827273" stroke-miterlimit="10" stroke-linecap="round"/>
<path id="Vector_29" d="M59.5624 54.3706H65.1813" stroke="var(--stroke-0, #221815)" stroke-width="0.827273" stroke-miterlimit="10" stroke-linecap="round"/>
<path id="Vector_30" d="M59.5624 57.5486H65.1813" stroke="var(--stroke-0, #221815)" stroke-width="0.827273" stroke-miterlimit="10" stroke-linecap="round"/>
<path id="Vector_31" d="M59.5624 60.7206H65.1813" stroke="var(--stroke-0, #221815)" stroke-width="0.827273" stroke-miterlimit="10" stroke-linecap="round"/>
<path id="Vector_32" d="M57.3052 59.3758H50.763" stroke="var(--stroke-0, #221815)" stroke-width="0.827273" stroke-miterlimit="10" stroke-linecap="round"/>
<path id="Vector_33" d="M51.8071 63.6514H65.4288" stroke="var(--stroke-0, #221815)" stroke-width="0.827273" stroke-miterlimit="10" stroke-linecap="round"/>
<path id="Vector_34" d="M67.1368 46.5008H102.57V64.9178H67.1368V48.2074" stroke="var(--stroke-0, #221815)" stroke-width="0.827273" stroke-miterlimit="10" stroke-linecap="round"/>
<path id="Vector_35" d="M100.699 48.2075V62.2524H68.8508" stroke="var(--stroke-0, #221815)" stroke-width="0.827273" stroke-miterlimit="10" stroke-linecap="round"/>
<path id="Vector_36" d="M67.7282 65.8827V68.0718" stroke="var(--stroke-0, #221815)" stroke-width="0.827273" stroke-miterlimit="10" stroke-linecap="round"/>
<path id="Vector_37" d="M67.5653 69.1392H71.5184V71.5393L72.9125 72.0217" stroke="var(--stroke-0, #221815)" stroke-width="0.827273" stroke-miterlimit="10" stroke-linecap="round"/>
<path id="Vector_38" d="M82.901 72.3413L83.758 71.491L86.7515 71.4368L87.3671 72.0519H92.31L92.8049 71.5574" stroke="var(--stroke-0, #221815)" stroke-width="0.827273" stroke-miterlimit="10" stroke-linecap="round"/>
<path id="Vector_39" d="M94.2353 71.6478H103.638" stroke="var(--stroke-0, #221815)" stroke-width="0.827273" stroke-miterlimit="10" stroke-linecap="round"/>
<path id="Vector_40" d="M78.2296 74.6389C80.3396 74.6389 82.05 72.9299 82.05 70.8216C82.05 68.7134 80.3396 67.0044 78.2296 67.0044C76.1197 67.0044 74.4093 68.7134 74.4093 70.8216C74.4093 72.9299 76.1197 74.6389 78.2296 74.6389Z" stroke="var(--stroke-0, #221815)" stroke-width="0.827273" stroke-miterlimit="10" stroke-linecap="round"/>
<path id="Vector_41" d="M78.2296 73.0167C79.4429 73.0167 80.4265 72.034 80.4265 70.8216C80.4265 69.6093 79.4429 68.6266 78.2296 68.6266C77.0164 68.6266 76.0328 69.6093 76.0328 70.8216C76.0328 72.034 77.0164 73.0167 78.2296 73.0167Z" stroke="var(--stroke-0, #221815)" stroke-width="0.827273" stroke-miterlimit="10" stroke-linecap="round"/>
<path id="Vector_42" d="M107.941 74.6389C110.051 74.6389 111.762 72.9299 111.762 70.8216C111.762 68.7134 110.051 67.0044 107.941 67.0044C105.832 67.0044 104.121 68.7134 104.121 70.8216C104.121 72.9299 105.832 74.6389 107.941 74.6389Z" stroke="var(--stroke-0, #221815)" stroke-width="0.827273" stroke-miterlimit="10" stroke-linecap="round"/>
<path id="Vector_43" d="M110.138 70.8216C110.138 72.0338 109.155 73.0167 107.941 73.0167C106.728 73.0167 105.745 72.0338 105.745 70.8216C105.745 69.6095 106.728 68.6266 107.941 68.6266C109.155 68.6266 110.138 69.6095 110.138 70.8216Z" stroke="var(--stroke-0, #221815)" stroke-width="0.827273" stroke-miterlimit="10" stroke-linecap="round"/>
<path id="Vector_44" d="M104.332 65.0806V50.5593H116.355L119.722 59.4784V71.8649H117.103V70.9061H113.096C113.096 70.9061 113.578 65.0867 109.619 65.0867H105.666" stroke="var(--stroke-0, #221815)" stroke-width="0.827273" stroke-miterlimit="10" stroke-linecap="round"/>
<path id="Vector_45" d="M112.939 68.7653H116.892" stroke="var(--stroke-0, #221815)" stroke-width="0.827273" stroke-miterlimit="10" stroke-linecap="round"/>
<path id="Vector_46" d="M118.817 64.7068H117.532V67.9632L118.871 68.4999" stroke="var(--stroke-0, #221815)" stroke-width="0.827273" stroke-miterlimit="10" stroke-linecap="round"/>
<path id="Vector_47" d="M119.722 59.4723L113.47 56.9637H108.768V52.0006H115.552" stroke="var(--stroke-0, #221815)" stroke-width="0.827273" stroke-miterlimit="10" stroke-linecap="round"/>
<path id="Vector_48" d="M108.605 58.6763H109.625V61.396H108.557" stroke="var(--stroke-0, #221815)" stroke-width="0.827273" stroke-miterlimit="10" stroke-linecap="round"/>
<path id="Vector_49" d="M84.615 69.9955H100.271V68.8738" stroke="var(--stroke-0, #221815)" stroke-width="0.827273" stroke-miterlimit="10" stroke-linecap="round"/>
<path id="Vector_50" d="M98.3996 69.1934H84.6693" stroke="var(--stroke-0, #221815)" stroke-width="0.827273" stroke-miterlimit="10" stroke-linecap="round"/>
<path id="Vector_51" d="M82.901 67.7522H100.216V66.6305" stroke="var(--stroke-0, #221815)" stroke-width="0.827273" stroke-miterlimit="10" stroke-linecap="round"/>
<path id="Vector_52" d="M98.3453 66.9501H82.9553" stroke="var(--stroke-0, #221815)" stroke-width="0.827273" stroke-miterlimit="10" stroke-linecap="round"/>
<path id="Vector_53" d="M57.7639 75.5435C59.2426 75.0128 58.295 74.0118 58.295 74.0118C58.295 74.0118 56.1284 72.48 55.8688 72.269L55.0661 71.8348L55.1325 55.4922V54.1233L40.5935 53.7012L39.5554 52.483C39.5554 52.483 38.6561 51.5363 37.6543 50.0588C36.6524 48.5813 34.9082 43.4132 33.6408 41.6704C32.3734 39.9276 29.9955 38.9266 28.3599 38.1366C26.7243 37.3466 23.767 34.657 23.767 34.657L22.0228 33.3183L21.9746 31.5453L22.1254 30.689C25.1974 30.1704 28.9031 28.0235 29.6877 25.9551C30.5809 23.5851 31.0034 18.6462 30.5326 16.6863L31.3232 16.035C31.3232 16.035 35.7049 11.2347 31.9026 7.80341C30.8827 6.88075 29.4463 6.39228 27.8348 6.1993L27.7805 5.42741L27.515 3.94995C26.145 1.78501 21.2865 -0.850296 15.897 0.783957C10.5135 2.41821 7.0251 7.9602 6.3914 10.3362C5.75769 12.7122 6.44571 18.1456 6.44571 18.1456L6.83197 19.207C6.56642 19.5387 6.44571 20.1658 6.65695 21.2573C7.34497 24.8997 9.82549 24.158 9.82549 24.158C9.92809 24.4535 10.0367 24.7369 10.1514 25.0083C9.48147 25.3762 8.92622 25.6897 8.92622 25.6897C8.92622 25.6897 7.34497 26.7451 7.44757 28.91C7.55017 31.0749 8.34683 31.8106 7.76141 32.5524C7.18202 33.2881 3.32546 34.7173 4.64719 38.9386C4.64719 38.9386 4.68944 38.9688 4.7679 39.0231C4.07384 39.3789 3.45824 39.7286 3.00559 40.0482C0.838914 41.58 0.736313 44.3238 0.736313 44.3238C0.736313 44.3238 0.102606 56.246 0.313842 57.1989C0.525078 58.1517 2.5288 58.8331 2.5288 58.8331L3.11422 58.9839C3.46427 61.0041 4.05573 64.3329 4.273 65.0565C4.42389 65.551 5.92668 67.9813 7.48379 70.4116L7.33894 72.1242C7.33894 72.1242 7.39326 74.5002 6.97079 75.3445C6.54831 76.1888 5.75769 76.9787 6.3914 77.9798C7.0251 78.9808 8.50375 79.4573 9.4513 79.5598L10.3023 79.7347L10.2419 82.7258L13.1027 83.365C13.2053 84.1128 13.3622 84.7882 13.6217 85.15C14.3097 86.0968 15.2029 86.3621 16.6333 86.8928C18.0576 87.4175 20.1157 87.4717 20.1157 87.4717C20.1157 87.4717 22.1194 87.6828 22.9161 86.5732L23.7972 85.7651L29.5187 87.0496L49.6042 83.1841L49.6344 83.3047C49.1576 84.8847 51.4329 84.7279 51.4329 84.7279C51.4329 84.7279 55.6576 84.5711 56.925 84.0404C58.1924 83.5097 57.8726 81.4533 57.6674 80.6633C57.4561 79.8734 56.1887 75.7546 56.1887 75.7546L56.1706 75.6038C56.6051 75.7244 57.1544 75.7666 57.776 75.5435" fill="var(--fill-0, white)"/>
<path id="Vector_54" d="M30.4662 16.8732C30.4662 16.8732 35.1134 12.5494 33.1037 9.4859C31.0999 6.42846 27.8771 6.2174 26.0303 6.10885C26.0303 6.10885 25.4509 2.52073 19.6932 1.83326C13.9355 1.14578 8.28647 7.79737 7.65277 10.3784L7.44153 16.9757C7.44153 16.9757 15.046 10.7523 21.8056 10.5895C28.5651 10.4327 30.7801 14.069 30.4662 16.8672" fill="var(--fill-0, #EE7800)"/>
<path id="Vector_55" d="M24.9741 11.0176C24.9741 11.0176 23.0187 14.2379 19.0052 14.9193C14.9917 15.6068 13.5674 15.4983 12.8793 15.5525C12.1913 15.6068 11.6662 15.7636 11.0325 16.5054C10.3988 17.2411 9.34265 19.7739 9.34265 19.7739L8.02092 18.9839L8.07524 16.6621C8.07524 16.6621 12.988 12.3866 16.9471 11.4398C20.9063 10.487 24.9741 11.0176 24.9741 11.0176Z" fill="var(--fill-0, #B8A490)"/>
<path id="Vector_56" d="M10.2962 65.8887L10.3988 54.1233L38.4871 53.6469C38.4871 53.6469 36.6403 50.692 35.898 49.1603C35.1557 47.6285 35.4755 44.2515 33.0976 42.5147C30.7197 40.7719 29.7178 40.4583 28.716 39.7166C27.7141 38.9808 25.7587 38.1848 25.7587 38.1848L25.6561 40.5608L22.4875 38.5527L23.0187 41.2965L23.9662 45.7832L21.2201 45.94L20.1096 38.818L17.2067 40.983C17.2067 40.983 15.9936 40.9287 15.4081 40.2955C14.8287 39.6623 13.0845 37.3948 13.0845 37.3948C13.0845 37.3948 5.48006 40.5066 4.68943 40.9287C3.89881 41.3508 2.31152 43.6183 2.10029 45.2043C1.88905 46.7843 1.99769 56.8611 1.99769 56.8611C1.99769 56.8611 5.90253 54.9615 8.49168 55.3837L8.96847 62.2946L9.39094 64.0856L10.2902 65.8767L10.2962 65.8887Z" fill="var(--fill-0, #EE7800)"/>
<path id="Vector_57" d="M10.6644 26.2144C10.6644 26.2144 12.5112 29.5914 15.2573 30.0136L16.9471 30.3814C16.9471 30.3814 17.261 33.3906 16.2048 33.6499C15.1486 33.9153 14.0381 34.0721 14.0381 34.0721C14.0381 34.0721 10.767 36.0259 9.97033 36.5023C9.17971 36.9787 5.85425 38.613 5.85425 38.613C5.85425 38.613 4.69548 36.0259 6.22241 35.1817C7.75538 34.3374 9.54786 33.2821 9.97033 32.8599C10.3928 32.4378 9.39094 31.6478 9.17971 30.5925C8.96847 29.5372 7.91229 27.5351 10.6584 26.2144" fill="var(--fill-0, #B8A490)"/>
<path id="Vector_58" d="M10.4531 66.3109L10.5799 56.0772L29.3074 55.6551L53.5935 56.1496L53.6659 81.5438L29.5187 87.0496L19.4699 84.7942L18.637 81.0372C18.637 81.0372 21.3831 83.4132 21.5943 83.4615C21.8056 83.5158 22.7048 83.4072 22.5479 82.4604C22.391 81.5076 20.7554 78.9809 20.1217 78.607C19.488 78.2391 16.7963 76.5506 16.7963 76.5506L14.0502 74.1263L10.4531 66.3169V66.3109Z" fill="var(--fill-0, #E8CFB2)"/>
<path id="Vector_59" d="M10.3023 79.7286L10.9299 74.9103L8.2925 71.8529C8.2925 71.8529 8.50374 73.5957 8.3951 74.4399C8.2925 75.2842 8.34079 75.9174 8.02695 76.5506C7.71312 77.1838 7.39324 78.818 7.39324 78.818L10.3023 79.7347V79.7286Z" fill="var(--fill-0, #EE7800)"/>
<path id="Vector_60" d="M7.1277 80.2412C7.1277 80.2412 6.28275 86.3078 7.1277 90.4266" stroke="var(--stroke-0, #221815)" stroke-width="0.827273" stroke-miterlimit="10" stroke-linecap="round"/>
<path id="Vector_61" d="M7.33893 72.1122C7.33893 72.1122 7.39325 74.4882 6.97078 75.3324C6.5483 76.1767 5.75768 76.9667 6.39139 77.9677C7.02509 78.9688 8.50374 79.4452 9.45129 79.5477" stroke="var(--stroke-0, #221815)" stroke-width="0.827273" stroke-miterlimit="10" stroke-linecap="round"/>
<path id="Vector_62" d="M19.5423 84.8063L29.5187 87.0436L55.0179 82.1408L55.1265 55.4922" stroke="var(--stroke-0, #221815)" stroke-width="0.827273" stroke-miterlimit="10" stroke-linecap="round"/>
<path id="Vector_63" d="M10.3506 77.232L10.2419 82.7197L13.3079 83.4072" stroke="var(--stroke-0, #221815)" stroke-width="0.827273" stroke-miterlimit="10" stroke-linecap="round"/>
<path id="Vector_64" d="M29.4644 85.7229V54.9676" stroke="var(--stroke-0, #221815)" stroke-width="0.827273" stroke-miterlimit="10" stroke-linecap="round"/>
<path id="Vector_65" d="M55.1265 54.1233L29.573 53.3876L10.248 54.1233V64.6766" stroke="var(--stroke-0, #221815)" stroke-width="0.827273" stroke-miterlimit="10" stroke-linecap="round"/>
<path id="Vector_66" d="M13.9416 73.9092C14.2071 74.2771 16.5307 76.3878 17.2127 76.7556C17.9007 77.1235 19.8018 78.1788 20.5925 79.1316C21.3831 80.0844 22.8617 82.2976 22.5962 82.9851C22.3306 83.6726 21.8056 83.6183 21.1719 83.0936C20.5381 82.5629 18.6913 81.0372 18.6913 81.0372C18.6913 81.0372 19.2224 84.5711 19.5906 84.8364" stroke="var(--stroke-0, #221815)" stroke-width="0.827273" stroke-miterlimit="10" stroke-linecap="round"/>
<path id="Vector_67" d="M8.66067 55.3354C8.66067 55.3354 8.81758 62.6685 9.13746 63.4585C9.45733 64.2485 13.676 73.5354 13.9416 73.9032C13.9416 73.9032 12.7828 74.06 12.143 74.645C11.5093 75.2239 10.773 76.5445 11.2981 77.1235C11.8292 77.7024 12.5655 78.9688 12.7767 80.0784C12.988 81.188 12.9337 84.1912 13.6217 85.144C14.3097 86.0968 15.2029 86.3561 16.6333 86.8868C18.0576 87.4175 20.1217 87.4657 20.1217 87.4657C20.1217 87.4657 22.1254 87.6768 22.9221 86.5672" stroke="var(--stroke-0, #221815)" stroke-width="0.827273" stroke-miterlimit="10" stroke-linecap="round"/>
<path id="Vector_68" d="M11.0386 75.8571C11.0386 75.8571 4.5989 66.0998 4.27903 65.0445C3.96519 63.9891 2.8547 57.3979 2.8547 57.3979" stroke="var(--stroke-0, #221815)" stroke-width="0.827273" stroke-miterlimit="10" stroke-linecap="round"/>
<path id="Vector_69" d="M2.53483 58.821C2.53483 58.821 0.531112 58.1336 0.319876 57.1868C0.10864 56.234 0.742347 44.3118 0.742347 44.3118C0.742347 44.3118 0.850983 41.5679 3.01162 40.0362C5.1783 38.5044 11.0929 36.2913 11.8292 35.6038C12.5655 34.9163 14.4184 33.6499 14.4184 33.6499" stroke="var(--stroke-0, #221815)" stroke-width="0.827273" stroke-miterlimit="10" stroke-linecap="round"/>
<path id="Vector_70" d="M12.7285 36.9245C12.7285 36.9245 14.3459 39.1376 15.7039 40.5066C16.2169 41.0252 17.0377 41.0794 17.611 40.6272L20.0131 38.7215L21.8116 40.0905" stroke="var(--stroke-0, #221815)" stroke-width="0.827273" stroke-miterlimit="10" stroke-linecap="round"/>
<path id="Vector_71" d="M22.1797 38.4562L24.95 40.2593C25.2638 40.4644 25.6742 40.2412 25.6802 39.8734L25.7164 37.9316" stroke="var(--stroke-0, #221815)" stroke-width="0.827273" stroke-miterlimit="10" stroke-linecap="round"/>
<path id="Vector_72" d="M20.4899 41.2001L21.2262 45.8918L23.9722 45.7892L23.1273 41.4111" stroke="var(--stroke-0, #221815)" stroke-width="0.827273" stroke-miterlimit="10" stroke-linecap="round"/>
<path id="Vector_73" d="M8.1356 43.9922C8.1356 43.9922 10.6161 48.2135 10.936 53.7494" stroke="var(--stroke-0, #221815)" stroke-width="0.827273" stroke-miterlimit="10" stroke-linecap="round"/>
<path id="Vector_74" d="M1.79853 57.0782C1.79853 57.0782 5.33522 54.654 9.29438 55.444" stroke="var(--stroke-0, #221815)" stroke-width="0.827273" stroke-miterlimit="10" stroke-linecap="round"/>
<path id="Vector_75" d="M1.42434 54.648C1.42434 54.648 6.54831 52.3263 8.87191 53.2248" stroke="var(--stroke-0, #221815)" stroke-width="0.827273" stroke-miterlimit="10" stroke-linecap="round"/>
<path id="Vector_76" d="M30.7318 44.3118C30.7318 44.3118 31.6854 46.6335 32.2648 47.7913C32.8441 48.9492 33.9546 51.4337 34.1116 53.4358" stroke="var(--stroke-0, #221815)" stroke-width="0.827273" stroke-miterlimit="10" stroke-linecap="round"/>
<path id="Vector_77" d="M23.761 34.657C23.761 34.657 26.7183 37.3466 28.3539 38.1366C29.9894 38.9266 32.3673 39.9337 33.6348 41.6704C34.9022 43.4132 36.6464 48.5813 37.6482 50.0588C38.6501 51.5363 39.5494 52.483 39.5494 52.483" stroke="var(--stroke-0, #221815)" stroke-width="0.827273" stroke-miterlimit="10" stroke-linecap="round"/>
<path id="Vector_78" d="M55.8628 72.275C56.1283 72.4861 58.289 74.0178 58.289 74.0178C58.289 74.0178 59.2426 75.0188 57.7639 75.5495C56.2853 76.0802 55.1748 75.1274 55.1748 75.1274" stroke="var(--stroke-0, #221815)" stroke-width="0.827273" stroke-miterlimit="10" stroke-linecap="round"/>
<path id="Vector_79" d="M56.1827 75.7546C56.1827 75.7546 57.4501 79.8673 57.6613 80.6633C57.8726 81.4533 58.1864 83.5097 56.919 84.0404C55.6516 84.5711 51.4268 84.7279 51.4268 84.7279C51.4268 84.7279 49.1576 84.8847 49.6344 83.3047" stroke="var(--stroke-0, #221815)" stroke-width="0.827273" stroke-miterlimit="10" stroke-linecap="round"/>
<path id="Vector_80" d="M33.3692 86.4646L32.9467 90.6317" stroke="var(--stroke-0, #221815)" stroke-width="0.827273" stroke-miterlimit="10" stroke-linecap="round"/>
<path id="Vector_81" d="M40.4486 55.3897L40.3943 60.6121L46.152 60.7206L46.2003 55.1244" stroke="var(--stroke-0, #221815)" stroke-width="0.827273" stroke-miterlimit="10" stroke-linecap="round"/>
<path id="Vector_82" d="M15.9996 34.6027C15.9996 34.6027 20.0674 37.4009 20.858 37.6119C21.6487 37.823 22.2824 36.3455 22.2824 36.3455" stroke="var(--stroke-0, #221815)" stroke-width="0.827273" stroke-miterlimit="10" stroke-linecap="round"/>
<path id="Vector_83" d="M22.0711 35.2359L21.9685 31.5453" stroke="var(--stroke-0, #221815)" stroke-width="0.827273" stroke-miterlimit="10" stroke-linecap="round"/>
<path id="Vector_84" d="M15.897 33.4931C15.897 33.4931 16.6393 33.4931 16.8506 32.5946C17.0618 31.6961 16.9049 30.3272 16.9049 30.3272C16.9049 30.3272 12.0465 30.5925 9.83151 24.152C9.83151 24.152 7.351 24.8877 6.66298 21.2513C5.97495 17.6089 8.82965 19.0864 9.08917 19.7196" stroke="var(--stroke-0, #221815)" stroke-width="0.827273" stroke-miterlimit="10" stroke-linecap="round"/>
<path id="Vector_85" d="M9.82548 18.5135C9.82548 18.5135 10.8273 15.6671 12.5172 15.5043C14.2071 15.3475 17.9007 15.6611 20.2786 14.5032C22.6565 13.3454 23.7127 13.1283 24.5033 11.7594" stroke="var(--stroke-0, #221815)" stroke-width="0.827273" stroke-miterlimit="10" stroke-linecap="round"/>
<path id="Vector_86" d="M7.55017 16.9275C7.55017 16.9275 16.0479 9.64872 23.2299 10.6498C30.4119 11.6508 30.0438 14.7143 30.5145 16.6621C30.9913 18.616 30.5688 23.573 29.6696 25.949C28.7703 28.325 24.0205 30.8036 20.7977 30.8036" stroke="var(--stroke-0, #221815)" stroke-width="0.827273" stroke-miterlimit="10" stroke-linecap="round"/>
<path id="Vector_87" d="M31.3112 16.0289C31.3112 16.0289 35.6928 11.2287 31.8906 7.79737C28.0883 4.36605 18.5827 6.89884 15.5228 8.64164C12.4569 10.3844 8.92018 13.864 8.92018 13.864" stroke="var(--stroke-0, #221815)" stroke-width="0.827273" stroke-miterlimit="10" stroke-linecap="round"/>
<path id="Vector_88" d="M6.44571 18.1396C6.44571 18.1396 5.75769 12.7062 6.3914 10.3302C7.0251 7.95417 10.5075 2.41821 15.897 0.777926C21.2805 -0.856327 26.1389 1.77898 27.515 3.94391L27.7805 5.42138" stroke="var(--stroke-0, #221815)" stroke-width="0.827273" stroke-miterlimit="10" stroke-linecap="round"/>
<path id="Vector_89" d="M24.9741 14.5032C24.9741 14.5032 26.2113 12.1634 27.5089 13.6047C27.9857 14.1354 27.8228 15.7154 27.8228 15.7154" stroke="var(--stroke-0, #221815)" stroke-width="0.827273" stroke-miterlimit="10" stroke-linecap="round"/>
<path id="Vector_90" d="M18.5887 24.1037L23.5015 24.2062C23.5015 24.2062 23.3446 27.6074 20.5442 27.529C18.6431 27.4747 18.0094 25.6837 18.0094 25.6837" stroke="var(--stroke-0, #221815)" stroke-width="0.827273" stroke-miterlimit="10" stroke-linecap="round"/>
<path id="Vector_91" d="M21.1719 19.9367C21.1719 19.9367 22.228 21.1488 22.6505 21.4141L21.0693 22.3609" stroke="var(--stroke-0, #221815)" stroke-width="0.827273" stroke-miterlimit="10" stroke-linecap="round"/>
<path id="Vector_92" d="M8.92621 25.6837C8.92621 25.6837 7.34496 26.739 7.44756 28.904C7.5562 31.0689 8.34682 31.8046 7.76743 32.5464C7.18805 33.2881 3.33149 34.7113 4.65322 38.9326" stroke="var(--stroke-0, #221815)" stroke-width="0.827273" stroke-miterlimit="10" stroke-linecap="round"/>
<path id="Vector_93" d="M26.0303 18.9356C26.0303 19.6653 25.6863 20.2563 25.2638 20.2563C24.8413 20.2563 24.4973 19.6653 24.4973 18.9356C24.4973 18.2059 24.8413 17.615 25.2638 17.615C25.6863 17.615 26.0303 18.2059 26.0303 18.9356Z" fill="var(--fill-0, #221815)"/>
<path id="Vector_94" d="M16.6876 19.2492C16.6876 19.9789 16.3436 20.5699 15.9211 20.5699C15.4987 20.5699 15.1547 19.9789 15.1547 19.2492C15.1547 18.5195 15.4987 17.9285 15.9211 17.9285C16.3436 17.9285 16.6876 18.5195 16.6876 19.2492Z" fill="var(--fill-0, #221815)"/>
<path id="Vector_95" d="M11.2981 77.1235C11.2981 77.1235 12.4086 78.9688 12.6681 79.4995C12.9337 80.0301 13.0363 82.5087 13.0363 82.5087L13.0966 83.359L10.2359 82.7197L10.4471 75.0188L11.2921 77.1295L11.2981 77.1235Z" fill="var(--fill-0, #E8CFB2)"/>
</g>
<defs>
<clipPath id="clip0_6_483">
<rect width="120" height="90.9091" fill="white"/>
</clipPath>
</defs>
</svg>
