<svg width="124" height="49" viewBox="0 0 124 49" fill="none" xmlns="http://www.w3.org/2000/svg">
<path d="M118.27 12C117.903 11.3112 117.659 10.9549 117.114 10.3254C119.525 9.85036 120.236 7.85511 120.236 6.61995C120.236 5.65796 119.759 3.88836 117.67 3.71021C117.325 8.05701 115.648 11.2993 114.47 11.2993C113.603 11.2993 111.992 9.73159 111.992 7.53444C111.992 4.981 114.17 2 117.436 2C119.87 2 121.992 3.7696 121.992 6.60808C121.992 7.15439 121.948 8.67458 120.681 10.2779C120.003 11.1211 119.214 11.5606 118.27 12ZM115.803 4.06651C114.514 4.5772 113.636 6.32304 113.636 7.39192C113.636 8.30641 114.114 8.99525 114.348 8.99525C114.614 8.99525 114.825 8.46081 114.948 8.15202C115.425 6.97625 115.792 5.61045 115.803 4.06651Z" fill="black"/>
<path d="M107.354 0L109.1 0.980392C109.164 1.01961 109.229 1.09804 109.229 1.15033C109.229 1.22876 109.164 1.29412 109.035 1.29412C108.983 1.29412 108.932 1.28105 108.815 1.26797C107.962 2.54902 107.522 3.12418 107.302 3.41176H109.992V5.05882H105.828C105.298 5.55556 105.052 5.75163 104.833 5.92157H108.764V12H106.901V11.5163H102.621V12H100.759V8.33987C99.7765 8.75817 99.3239 8.90196 99.0006 8.99346C98.6127 7.92157 98.186 7.39869 97.992 7.15033C99.7506 6.86274 101.897 5.83007 103.061 5.05882H98.2506V3.41176H102.738V2.71895H99.1429V1.09804H102.738V0L104.768 0.0784309C104.845 0.0784309 104.975 0.0915029 104.975 0.222222C104.975 0.326797 104.884 0.366013 104.651 0.457515V1.09804H106.177V1.98693C106.914 0.941176 107.199 0.313725 107.354 0ZM102.621 10.0392H106.901V9.43791H102.621V10.0392ZM102.621 8.07843H106.901V7.46405H102.621V8.07843ZM104.651 3.41176H105.001C105.117 3.29412 105.259 3.13725 105.608 2.71895H104.651V3.41176Z" fill="black"/>
<path d="M92.3316 9.71858V12H90.6767V9.77014C89.4964 10.8013 87.9511 11.7293 87.2575 11.9613C86.6613 11.1235 86.3327 10.9044 85.992 10.6853C87.9267 10.0021 89.2287 8.88077 89.5329 8.62299H85.992V7.20516H90.6767V6.81847H87.3914V5.51665H90.6767V5.15575H86.5761V3.77658H88.888C88.8272 3.62191 88.6447 3.20945 88.6203 3.15789H85.992V1.74006H87.4765C87.2818 1.35338 87.1845 1.18582 87.0141 0.902255L88.4135 0C88.7055 0.489796 89.0584 1.19871 89.1801 1.4565L88.6812 1.74006H89.5208V0.180451L91.1391 0.244898C91.2608 0.244898 91.3825 0.270676 91.3825 0.386681C91.3825 0.515575 91.2973 0.554242 91.1391 0.631578V1.74006H91.7354V0.180451L93.3659 0.244898C93.4146 0.244898 93.6214 0.257787 93.6214 0.41246C93.6214 0.541353 93.4511 0.618689 93.3659 0.644468V1.74006H94.315L93.6214 1.4565C93.7553 1.19871 94.0717 0.631578 94.242 0.128894L95.9334 0.760473C95.9942 0.786251 96.0429 0.837809 96.0429 0.902255C96.0429 1.08271 95.8482 1.06982 95.69 1.06982C95.5805 1.23738 95.544 1.28894 95.3006 1.74006H96.9798V3.15789H94.4124C94.315 3.41568 94.2177 3.67347 94.169 3.77658H96.2619V5.15575H92.3316V5.51665H95.5197V6.81847H92.3316V7.20516H96.9798V8.62299H93.4754C94.8383 9.83459 96.2863 10.3759 96.992 10.6337C96.1159 11.3298 95.9334 11.652 95.7874 11.9484C94.9843 11.6778 93.3537 10.7497 92.3316 9.71858ZM92.5506 3.15789H90.4942C90.5794 3.36412 90.6159 3.45435 90.7498 3.77658H92.2829C92.3681 3.58324 92.4168 3.49302 92.5506 3.15789Z" fill="black"/>
<path d="M83.3334 7.05343H83.992V8.28353H83.3334V10.4558H81.3839V10.0371H78.9602V10.8746C78.9602 11.542 78.7889 12 76.8263 12C76.5628 12 76.2994 11.9869 76.1281 11.9738C76.0227 11.385 75.7988 10.8222 75.509 10.3381C75.8778 10.3904 76.3916 10.4427 76.6287 10.4427C77.0107 10.4427 77.0107 10.3119 77.0107 10.0371H72.9009V8.72846H77.0107V8.28353H71.992V7.05343H77.0107V6.63468H72.9009V5.4831H77.0107V5.11668H73.6649V2.4602H77.0107V2.09378H71.992V0.719738H77.0107V0L79.0524 0.0785164C79.1446 0.0785164 79.25 0.130861 79.25 0.248637C79.25 0.366412 79.1709 0.392584 78.9602 0.497273V0.719738H83.9393V2.09378H78.9602V2.4602H82.2533V5.11668H78.9602V5.4831H83.3334V7.05343ZM78.9602 8.72846H81.3839V8.28353H78.9602V8.72846ZM78.9602 7.05343H81.3839V6.63468H78.9602V7.05343ZM80.554 3.50709H78.9602V4.01745H80.554V3.50709ZM75.4036 4.01745H77.0107V3.50709H75.4036V4.01745Z" fill="black"/>
<path d="M65.7102 6.49471H63.1182V4.8203H66.0541V4.0592H63.5546V2.49894H64.7051C64.3481 1.92812 64.1497 1.67442 63.5546 1.02748L64.93 0C65.4854 0.520085 66.0673 1.19239 66.5037 1.85201C66.3847 1.96617 65.816 2.39746 65.7102 2.49894H67.0724C67.4427 2.05497 67.9981 1.28118 68.5536 0.0253707L70.3125 0.583509C70.4315 0.621565 70.5241 0.646935 70.5241 0.748414C70.5241 0.926004 70.3257 0.951375 70.1009 0.989429C69.9818 1.2685 69.8231 1.62368 69.2148 2.49894H70.6828V4.0592H67.9849V4.8203H71.3704V6.49471H68.3287C69.2941 7.82664 70.4447 8.34672 71.3837 8.65116C71.0663 8.87949 70.3257 9.42495 70.1009 10.0338C68.5403 9.43763 67.3765 7.91543 67.1782 7.63636C66.4905 8.67653 65.5912 9.34884 64.2158 9.99577C63.6604 9.24736 63.5017 9.05708 62.8669 8.73996C64.2952 8.15645 65.1812 7.67442 65.7102 6.49471ZM59.2433 1.30655L60.6054 0.164905C61.1873 0.63425 62.1924 1.4334 62.7479 2.11839C62.695 2.16913 61.7824 2.90486 61.3064 3.31078C61.0286 3.00634 60.1293 1.99154 59.2433 1.30655ZM59.3226 4.8203H62.4701V9.05708C62.4701 9.41226 62.7214 9.72939 63.052 9.93235C63.4355 10.1607 63.7926 10.3129 66.0012 10.3129C70.0215 10.3129 70.9208 10.2114 71.992 10.0465C71.4762 10.9471 71.3704 11.2643 71.3704 11.8605H65.3002C64.1894 11.8605 62.5892 11.8605 61.5973 10.6681C61.3989 10.8203 60.46 11.4672 60.2748 11.6068C60.2748 11.8097 60.2748 12 60.0897 12C59.9839 12 59.931 11.9239 59.9045 11.8605L58.992 10.1734C59.2697 10.0592 59.8384 9.81818 60.4996 9.34884V6.49471H59.3226V4.8203Z" fill="black"/>
<path d="M54.9993 3.0596V3.40397H57.93V7.45695H54.9993V7.82781H58.5349V9.13907H54.9993V9.8808H53.2919V9.13907H50.0251V7.82781H53.2919V7.45695H50.3612V3.40397H53.2919V3.0596H51.0199V2.56954H49.5008V0.0927159H58.5349V2.56954H57.0158V3.0596H54.9993ZM54.9993 4.46358V4.96689H56.1957V4.46358H54.9993ZM53.2919 4.96689V4.46358H52.0954V4.96689H53.2919ZM54.9993 5.8808V6.39735H56.1957V5.8808H54.9993ZM53.2919 6.39735V5.8808H52.0954V6.39735H53.2919ZM54.9993 1.43046V1.8543H56.9082V1.43046H54.9993ZM53.2919 1.8543V1.43046H51.1275V1.8543H53.2919ZM46.1264 1.19205L47.4305 0C48.1564 0.596027 48.7076 1.11258 49.3798 1.88079C48.7614 2.33113 48.3581 2.71523 47.901 3.23179C47.2557 2.33113 46.6911 1.7351 46.1264 1.19205ZM46.4088 4.71523H49.6756V8.66225C49.6756 10.106 51.3291 10.1457 53.8834 10.1457C55.5908 10.1457 57.2981 9.98675 58.992 9.81457C58.7097 10.4238 58.5349 10.9801 58.4812 11.7881H52.5928C51.0872 11.7881 49.7562 11.6821 48.748 10.5033C48.4791 10.755 48.0354 11.1523 47.296 11.5894C47.3095 11.8543 47.3229 12 47.1213 12C47.0406 12 46.9465 11.894 46.8927 11.7881L45.992 10.0397C46.7045 9.76159 47.1885 9.49669 47.7128 9.17881V6.43709H46.4088V4.71523Z" fill="black"/>
<path d="M39.8416 1.94595H42.9211C43.3649 1.94595 43.6069 1.85513 43.8759 1.75135L44.992 2.67243C44.75 3.06162 43.9297 4.83892 43.6204 5.50054C41.5495 9.98919 38.5641 11.4292 37.3808 12C37.1522 11.7146 36.7756 11.2865 35.646 10.5211C37.6901 9.69081 39.3172 8.26378 40.0165 7.44649C41.1057 6.17513 41.7243 4.6054 42.0201 3.81405H38.6583C37.7976 5.04649 36.7756 6.14919 35.6326 7.13513C34.9064 6.39567 34.6375 6.12324 33.992 5.73405C37.2597 3.06162 38.1069 0.778378 38.4028 0L40.3392 0.908108C40.393 0.934054 40.514 0.998919 40.514 1.1027C40.514 1.23243 40.3258 1.27135 40.1913 1.28432C39.9761 1.68649 39.9358 1.79027 39.8416 1.94595Z" fill="black"/>
<path d="M23.992 4.31772L25.7987 3.60615C26.2329 4.26501 26.8211 5.41142 27.0872 6.01757C26.7371 6.13616 25.9388 6.43924 25.3085 6.83455C24.9304 5.97804 24.4542 5.12152 23.992 4.31772ZM26.8211 3.69839L28.6559 3C29.1321 3.73792 29.4682 4.40996 29.8043 5.47731C28.7819 5.83309 28.4458 5.96486 28.0396 6.16252C27.7735 5.49048 27.1993 4.31772 26.8211 3.69839ZM31.6951 3.22401L33.7259 3.81699C33.88 3.85652 33.992 3.89605 33.992 4.01464C33.992 4.14641 33.7959 4.15959 33.7259 4.15959C32.5494 8.83748 30.2945 10.6823 27.0452 12C26.8772 11.7233 26.457 11.0776 25.7147 10.511C29.3001 9.20644 31.0929 7.41435 31.6951 3.22401Z" fill="black"/>
<path d="M13.5203 1H20.4998V2.78953H13.5203V1ZM11.992 3.91581H19.7898C20.1629 3.91581 20.4758 3.9033 20.8247 3.80319L21.992 4.66667C21.7874 5.06712 20.909 6.84414 20.7164 7.19454C19.501 9.40956 18.2014 10.8237 15.4818 12C15.1448 11.4118 14.5432 10.7486 14.1701 10.3857C15.2772 9.98521 18.0209 8.99659 19.2122 5.74289H11.992V3.91581Z" fill="black"/>
<path d="M5.0494 5.24802L5.74332 4.25142C7.54506 5.18573 9.09114 6.25708 9.99201 7.17894C9.44419 7.98868 9.38332 8.07588 8.84766 8.92299C8.44592 8.53681 7.22853 7.37826 5.0494 6.15742V12H2.99201V1L5.0494 1.09966C5.13462 1.09966 5.28071 1.11212 5.28071 1.23669C5.28071 1.36127 5.14679 1.4111 5.0494 1.43601V5.24802Z" fill="black"/>
<path d="M118.676 24.2018V26.8317H117.095V24.2479C115.734 25.609 114.154 26.428 113.623 26.7048C113.174 26.105 112.92 25.9204 112.343 25.4937C113.001 25.286 113.75 24.9977 114.823 24.2594H113.312V21.1796H117.095V20.7413H112.551V19.3686H117.095V18.7111L118.756 18.9649C118.86 18.9764 118.929 19.0457 118.929 19.1264C118.929 19.2418 118.814 19.2764 118.676 19.334V19.3686H123.117V20.7413H118.676V21.1796H122.494V23.3597C122.494 24.1902 121.652 24.3517 121.19 24.4209C122.148 25.0207 122.921 25.2976 123.324 25.436C122.655 25.8628 122.448 26.0127 122.032 26.6933C120.775 26.0589 119.599 25.263 118.676 24.2018ZM119.414 18.3305H118.964C118.791 18.5958 118.664 18.7458 118.537 18.9072C117.891 18.6189 117.811 18.5958 117.095 18.4112C117.119 18.3882 117.142 18.3536 117.165 18.3305H116.38C116.484 18.5612 116.553 18.6996 116.669 19.0457C116.069 19.0687 115.757 19.1264 115.065 19.2879C114.881 18.7227 114.846 18.6189 114.719 18.3305H114.339C114.016 18.7573 113.843 18.9534 113.681 19.1379C113.358 18.9649 112.828 18.7342 112.251 18.5958C112.574 18.2498 113.393 17.3385 113.877 16.1158L115.434 16.4157C115.515 16.4272 115.584 16.4849 115.584 16.5541C115.584 16.681 115.457 16.7502 115.296 16.7733C115.261 16.831 115.227 16.9002 115.192 16.9694H117.603V17.7191C117.811 17.35 118.053 16.8656 118.318 16.0927L119.956 16.3926C120.025 16.4042 120.118 16.4503 120.118 16.5657C120.118 16.6695 120.002 16.7387 119.818 16.7271L119.714 16.9694H122.932V18.3305H121.19C121.317 18.5612 121.479 18.9072 121.525 19.0341C120.89 19.0572 120.602 19.1033 119.806 19.2533C119.725 19.0226 119.656 18.8034 119.414 18.3305ZM120.833 22.5061H119.126C119.333 22.7714 119.818 23.3943 120.498 23.9249C120.325 23.452 120.221 23.2674 120.025 22.9791C120.106 22.9906 120.51 23.0367 120.602 23.0367C120.764 23.0367 120.833 22.9791 120.833 22.8176V22.5061ZM114.938 22.5061V24.1787C115.238 23.948 116.023 23.3597 116.726 22.5061H114.938Z" fill="#E8821A"/>
<path d="M106.968 19.161H109.09V16.2542L110.855 16.3465C111.04 16.358 111.12 16.4042 111.12 16.4849C111.12 16.6118 110.97 16.6579 110.832 16.7041V19.161H111.893V20.6952H110.832V25.1245C110.832 26.6241 110.151 26.7856 108.202 26.7856C108.087 25.9551 107.868 25.4937 107.406 24.9169C107.729 24.9746 108.364 25.0553 108.675 25.0553C108.998 25.0553 109.09 24.94 109.09 24.3979V20.6952H106.806V19.2994H106.183C105.941 20.7644 105.526 21.8717 105.111 22.7714C105.63 23.5673 106.103 24.3979 106.518 25.2514C105.537 25.7128 105.18 25.9435 104.892 26.1281C104.684 25.5167 104.511 25.0784 104.199 24.3979C103.138 25.932 102.446 26.4857 102.031 26.8086C101.616 26.2896 101.281 26.0473 100.601 25.782C101.685 25.0784 102.515 24.0172 103.184 22.8983C102.561 22.0447 102.077 21.4565 101.177 20.6259L102.458 19.7378C103.196 20.3606 103.819 21.145 103.969 21.3411C104.257 20.6605 104.384 20.1645 104.569 19.2994H101.05V17.8345H103.161V16.1965L105.018 16.2888C105.076 16.2888 105.226 16.3004 105.226 16.4272C105.226 16.5541 105.088 16.6118 105.018 16.6349V17.8345H106.968V19.161ZM105.999 21.9525L107.406 21.145C107.787 21.641 108.283 22.4139 108.629 23.3136C108.467 23.3943 107.591 23.8788 107.072 24.1556C106.899 23.5558 106.322 22.4369 105.999 21.9525Z" fill="#E8821A"/>
<path d="M97.3362 21.1911V21.5141H98.5589V22.1024H97.3362V22.4254H98.5589V23.0713H97.3362V23.3943H100.024C100.024 23.9018 99.9546 25.2284 99.4817 26.0473C99.2741 26.4049 98.928 26.8432 97.4746 26.774C97.4746 26.3242 97.4169 26.0704 97.1747 25.5167C97.3362 25.5398 97.6015 25.5513 97.763 25.5513C98.0052 25.5513 98.4551 25.5513 98.4781 24.3402H95.4099V24.5247H94.0718V21.8025C93.8988 21.9063 93.8411 21.9294 93.7027 22.0101C93.5643 21.8025 93.472 21.6641 93.0798 21.2834V25.5975C93.0798 26.5779 92.4915 26.6356 91.5111 26.7394C91.3496 26.1511 91.0728 25.6782 91.0151 25.5859C90.9343 25.9435 90.8074 26.4395 90.5768 26.8894C90.323 26.7625 89.827 26.5318 89.1464 26.4049C89.504 25.6551 89.8847 24.6747 89.8847 21.7448V16.5426H93.0798V20.7644C93.5989 20.4414 93.8527 20.2107 94.0141 20.0377H93.2644V19.0803H94.7293C94.787 18.9765 94.8793 18.8034 94.9254 18.7111H93.5066V17.6615H94.141C93.8873 17.2231 93.8296 17.1309 93.5297 16.7387L94.6255 16.1043C94.7408 16.2427 95.11 16.7271 95.3291 17.2693C94.96 17.4654 94.8677 17.5115 94.6601 17.6615H95.2714C95.4329 17.004 95.456 16.5541 95.4675 16.185L97.0709 16.4157C97.1632 16.4272 97.2324 16.4618 97.2324 16.5311C97.2324 16.6118 97.1747 16.6464 96.9901 16.7502C96.9325 17.0271 96.8517 17.3731 96.7825 17.6615H98.0744C97.7745 17.4769 97.4746 17.3731 97.3477 17.327C97.4746 17.1193 97.8437 16.5541 97.936 16.1504L99.2741 16.6003C99.3317 16.6233 99.4355 16.6579 99.4355 16.7387C99.4355 16.8425 99.2971 16.8656 99.1241 16.8656C98.9857 17.1539 98.8703 17.3385 98.6512 17.6615H99.3894V18.7111H98.1206C98.1782 18.815 98.2128 18.8842 98.3282 19.0803H99.9546V20.0377H99.0664C99.5855 20.5567 99.9661 20.7644 100.255 20.9258C99.9661 21.1911 99.6086 21.6064 99.3894 21.9409C99.1241 21.791 98.8819 21.6756 98.3628 21.1911H97.3362ZM96.0558 21.5141V21.1911H95.4099V21.5141H96.0558ZM96.0558 22.4254V22.1024H95.4099V22.4254H96.0558ZM97.3708 20.0377H95.8251C95.779 20.1184 95.6636 20.2914 95.5598 20.4183H97.6361C97.5323 20.2914 97.4515 20.1645 97.3708 20.0377ZM96.0558 23.3943V23.0713H95.4099V23.3943H96.0558ZM96.7479 18.7111H96.275C96.2288 18.8265 96.2058 18.8957 96.125 19.0803H96.8863C96.8402 18.9765 96.8171 18.9188 96.7479 18.7111ZM91.7533 20.3952H91.2688V21.7564H91.7533V20.3952ZM91.2688 19.1841H91.7533V17.9037H91.2688V19.1841ZM91.7533 23.0829H91.2688C91.2573 23.6365 91.1766 24.617 91.0958 25.1361C91.2112 25.1591 91.3496 25.1707 91.4649 25.1707C91.6726 25.1707 91.7533 25.1245 91.7533 24.8362V23.0829ZM93.8181 24.4671L94.8447 24.8131C94.9139 24.8362 94.9831 24.8823 94.9831 24.9515C94.9831 25.0438 94.8908 25.0669 94.7408 25.0784C94.7062 25.2514 94.5447 25.9089 94.2102 26.6587C94.0026 26.5549 93.5181 26.3011 93.0337 26.1858C93.4143 25.6551 93.7027 24.94 93.8181 24.4671ZM96.1366 24.7785L96.8863 24.617C97.0594 25.1015 97.117 25.4014 97.1516 25.7013C96.6556 25.8166 96.4826 25.8858 96.3327 25.9435C96.3096 25.609 96.275 25.3668 96.1366 24.7785ZM94.9946 24.8938L95.8251 24.767C95.9405 25.2745 95.9981 25.6551 96.0212 26.2088C95.8713 26.2088 95.629 26.2088 95.0638 26.3588C95.0638 25.8282 95.0638 25.2745 94.9946 24.8938ZM97.1632 24.5939L97.9129 24.3632C98.1436 24.9631 98.1552 25.113 98.1782 25.263C97.9129 25.3091 97.7284 25.3783 97.4054 25.4937C97.3823 25.2399 97.3362 25.0323 97.1632 24.5939Z" fill="#E8821A"/>
<path d="M85.6975 25.7013H82.4331V26.1281H80.8875V23.1175H85.7436V25.2284C86.0435 25.2976 86.1012 25.3091 86.2281 25.3091C86.4357 25.3091 86.4934 25.2284 86.4934 24.9977V22.6561H80.1261V26.7971H78.4536V21.4449H88.1198V25.4937C88.1198 26.4972 87.693 26.8432 86.1358 26.8894C86.0551 26.5318 85.9628 26.1742 85.6975 25.7013ZM84.1749 24.1095H82.4331V24.6632H84.1749V24.1095ZM80.1492 18.5727H86.4127V21.0527H80.1492V18.5727ZM84.8439 19.5532H81.718V20.0723H84.8439V19.5532ZM84.1749 16.8656H88.5466V18.1805H77.9807V16.8656H82.3755V16.1504L84.1749 16.2196C84.2441 16.2196 84.4056 16.2542 84.4056 16.3696C84.4056 16.4388 84.3479 16.4965 84.1749 16.5657V16.8656Z" fill="#E8821A"/>
<path d="M74.774 18.2267V19.4494H76.8502V26.8317H75.3161V26.3818H71.2673V26.8317H69.7332V19.4494H71.798V18.2267H69.6409V17.1655C69.5717 17.1885 69.5487 17.1885 69.4794 17.2001C69.1795 17.9614 69.0873 18.2152 68.9373 18.5266L69.1565 18.6189C69.2257 18.6535 69.3064 18.6996 69.3064 18.7804C69.3064 18.8726 69.2487 18.9072 69.0873 18.988V26.8317H67.4493V21.1681C67.2878 21.4103 67.1494 21.5718 66.9994 21.7679C66.6649 21.0989 66.342 20.7413 65.9728 20.3952C67.2878 18.7112 67.8646 16.8079 68.026 16.185L69.6409 16.7272V16.6695H77.1155V18.2267H74.774ZM73.5628 21.1104H73.0207V24.8131H73.5628V21.1104ZM73.5513 19.4494V18.2267H73.0207V19.4494H73.5513ZM75.3161 21.1104H74.7855V24.8131H75.3161V21.1104ZM71.2673 21.1104V24.8131H71.798V21.1104H71.2673Z" fill="#E8821A"/>
<path d="M58.4867 23.3828V26.8317H56.8141V23.4289C56.2951 23.5789 55.9721 23.6596 55.5684 23.7634C55.5222 23.9134 55.453 24.121 55.3377 24.121C55.3146 24.121 55.1877 24.1095 55.1531 23.948L54.8301 22.1716C55.776 21.9871 56.0413 21.9178 56.8141 21.7333V19.7839H56.2951C56.1913 20.2338 56.1451 20.4299 56.0182 20.8566C55.603 20.649 55.0954 20.4414 54.5533 20.3606C54.9455 19.1495 55.1185 18.4112 55.1531 17.0155L56.5834 17.1424C56.6642 17.1539 56.7795 17.1655 56.8141 17.2116V16.2427L58.4867 16.3234C58.6021 16.3234 58.7751 16.335 58.7751 16.4618C58.7751 16.5657 58.6943 16.6003 58.4867 16.7041V18.2613H59.1557V19.1495C59.7094 18.0652 60.0208 16.7733 60.1362 16.185L61.8318 16.5426C61.9126 16.5541 61.9933 16.6003 61.9933 16.681C61.9933 16.8079 61.8318 16.8425 61.6588 16.8656C61.4512 17.5115 61.4281 17.5923 61.1859 18.1805H65.3269C65.3269 23.6019 65.1193 25.0784 64.8078 25.8166C64.6348 26.2088 64.3349 26.7971 62.2817 26.8086C62.1548 26.1512 62.0741 25.8628 61.6242 25.113C61.1397 25.7013 60.7129 26.1742 59.9055 26.7625C59.4902 26.255 59.2595 26.0589 58.6597 25.6667C59.4441 25.2053 61.6819 23.3943 62.6854 19.7032H62.2125C61.6473 21.6756 60.563 23.5097 59.6171 24.4209C59.1903 23.9134 59.1327 23.8672 58.4867 23.3828ZM58.4867 20.3145V21.2488C58.8212 21.145 59.0519 21.0643 59.4672 20.9258C59.3749 21.5487 59.3634 21.6525 59.3518 22.4946C60.0554 21.6872 60.6322 20.6952 60.9782 19.7032H60.5168C60.4592 19.83 60.1247 20.4991 59.6979 20.9951C59.2134 20.6721 59.0404 20.5567 58.4867 20.3145ZM58.4867 22.8752V23.3366C58.7751 23.0829 58.9942 22.8868 59.3172 22.5407C58.9712 22.6907 58.5674 22.8522 58.4867 22.8752ZM61.7049 25.0092C61.8895 25.0323 62.4086 25.0553 62.7546 25.0553C63.1929 25.0553 63.366 24.8477 63.4467 24.3979C63.6313 23.4058 63.6659 22.6907 63.7235 21.1219C63.2391 22.6792 62.4662 24.0403 61.7049 25.0092ZM58.4867 19.5532V20.1761C58.6828 19.9338 58.7981 19.7608 58.925 19.5532H58.4867ZM56.422 18.2613H56.8141V17.3385C56.7449 17.4308 56.6527 17.4769 56.5027 17.5231C56.4796 17.673 56.4681 17.7768 56.422 18.2613Z" fill="#E8821A"/>
<path d="M50.1701 20.1415C50.9314 20.1415 51.5773 20.7643 51.5773 21.5487C51.5773 22.3216 50.9429 22.956 50.1701 22.956C49.3972 22.956 48.7628 22.3216 48.7628 21.5487C48.7628 20.7643 49.3972 20.1415 50.1701 20.1415Z" fill="#E8821A"/>
<path d="M37.0318 21.4218L38.7621 21.7102C38.9235 21.7333 39.0043 21.7564 39.0043 21.8371C39.0043 21.9524 38.8774 21.987 38.7044 22.0332C38.6236 22.5638 38.5775 22.8406 38.5083 23.1405C38.7967 23.5789 39.1427 23.971 39.7195 24.3517V20.7644H36.4781V16.4849H44.7487V20.7644H41.4612V21.791H44.8409V23.3712H41.4612V24.9861C41.8649 25.0438 42.4994 25.1015 43.3529 25.1015C44.4372 25.1015 45.3023 25.0207 45.9483 24.9515C45.4984 25.6436 45.3369 26.0358 45.2216 26.6933C43.9528 26.751 41.5535 26.7048 40.3539 26.3588C39.4311 26.0819 38.6006 25.5975 37.9892 24.8246C37.5509 25.7705 37.101 26.3011 36.6858 26.7279C36.1898 26.3588 35.8553 26.1742 35.117 25.9089C36.6512 24.3517 36.9626 22.956 37.0318 21.4218ZM42.9608 17.9729H38.243V19.2764H42.9608V17.9729Z" fill="#E8821A"/>
<path d="M30.0878 20.3837L31.2298 19.2302C32.4525 20.1069 34.0443 21.6871 34.598 22.4369C34.4942 22.5292 33.4445 23.4866 33.2138 23.7404C31.8757 21.9063 30.3531 20.7297 30.0878 20.5452V26.8317H28.2538V21.3296C26.9157 22.5869 25.7738 23.1751 24.5972 23.6365C24.2281 22.9098 23.9167 22.5292 23.3861 22.0793C26.512 21.2373 28.1846 18.8611 28.6806 18.0998H23.7898V16.5195H34.3442V18.0998H31.0106C30.653 18.6535 30.3762 19.0111 30.1801 19.2417C30.2724 19.2764 30.3762 19.311 30.3762 19.4494C30.3762 19.5878 30.2262 19.6455 30.0878 19.6801V20.3837Z" fill="#E8821A"/>
<path d="M18.576 18.5266V19.4725H22.1403V21.0643H18.576V21.8602H22.9016V23.4866H18.576V25.2168C18.576 26.6587 17.8954 26.8663 15.8538 26.9009C15.7154 25.9897 15.3924 25.4821 15.104 25.0899C15.5423 25.1822 16.1767 25.2168 16.2229 25.2168C16.6958 25.2168 16.7189 24.9861 16.7189 24.6516V23.4866H12.1741V21.8602H16.7189V21.0643H12.9354V19.4725H16.7189V18.7458C15.5885 18.8265 14.3081 18.8496 13.6506 18.8496C13.5929 18.4689 13.4545 17.8691 13.0047 17.2693C14.6311 17.3154 17.7686 17.3846 20.6523 16.1735L21.8173 17.5692C21.8634 17.6269 21.8865 17.6845 21.8865 17.7192C21.8865 17.7999 21.8173 17.9268 21.6789 17.9268C21.552 17.9268 21.4021 17.846 21.3328 17.7999C20.6292 18.0652 19.9025 18.3074 18.576 18.5266Z" fill="#E8821A"/>
<path d="M5.05712 16.2312L6.90271 16.358C7.15647 16.3811 7.17954 16.4965 7.17954 16.5311C7.17954 16.6118 7.14494 16.6579 6.90271 16.7733C6.82196 20.4068 6.76429 23.0713 11.4359 25.3552C10.8361 25.8166 10.5477 26.1281 10.2132 26.7856C9.3135 26.3588 8.65601 25.8743 7.87164 25.1246C7.05266 24.3402 6.72968 23.8326 6.03759 22.7484C5.88764 23.1406 5.6108 23.8557 4.31889 25.113C3.48838 25.9089 2.87703 26.2896 1.93117 26.774C1.30829 25.9551 0.996845 25.7013 0.477776 25.3899C2.87703 24.617 4.01899 22.9329 4.44578 21.8717C4.97638 20.5221 5.12633 19.2533 5.05712 16.2312Z" fill="#E8821A"/>
<path d="M115.763 34.0156H122.444V46.4504C122.444 47.3589 122.444 48.5702 119.908 48.5702C119.435 48.5702 118.791 48.5134 118.337 48.4945C118.185 47.0939 117.788 46.2611 117.334 45.4662C117.788 45.5798 118.848 45.7122 119.075 45.7122C119.321 45.7122 119.567 45.5987 119.567 45.012V43.0247C119.454 43.1382 118.753 43.7628 118.148 44.8038C116.993 44.2738 115.46 43.1004 114.362 40.9049C113.302 42.8543 111.183 44.6523 110.274 45.1634C109.952 44.4442 109.687 44.0467 109.044 43.3843V48.5512H106.167V34.0156H112.848V31.1198L115.914 31.2334C116.141 31.2334 116.274 31.3469 116.274 31.4983C116.274 31.6876 116.028 31.8012 115.763 31.8769V34.0156ZM119.567 36.7032H115.763C115.857 37.9145 116.122 38.8986 116.804 39.8071C117.296 40.4696 118.11 41.4348 119.567 42.2487V36.7032ZM109.044 36.7032V42.4758C112.318 40.4885 112.64 37.782 112.772 36.7032H109.044Z" fill="black"/>
<path d="M104.88 44.4063H99.8077C101.738 45.8636 104.047 46.4882 104.748 46.6775C104.407 46.8857 103.953 47.1885 103.044 48.7405C100.129 47.567 98.4071 46.2422 97.4986 45.4472V48.6269H94.811V45.3148C93.1833 46.8289 91.2528 47.8888 89.1141 48.7405C88.2056 47.1885 87.7514 46.8857 87.4107 46.6775C89.8901 46.015 91.4232 45.1066 92.3506 44.4063H87.5621V42.4001H94.811V41.3969C93.2401 41.8323 91.1771 42.0783 89.5305 42.0783C89.2466 41.0184 89.1898 40.7913 88.5652 39.8828C89.0384 39.9207 89.6062 39.9585 90.439 39.9585C91.8206 39.9585 92.767 39.826 93.9215 39.5421C93.2401 39.4096 92.9751 39.3718 92.6723 39.3339C92.5588 39.4286 92.483 39.4854 92.2559 39.6746C91.7638 39.2961 90.8175 38.6904 90.0983 38.539C90.5147 38.1983 90.7797 37.9712 91.196 37.5738H87.5621V35.6243H92.9373C93.4105 35.0187 93.5997 34.6969 93.8647 34.2805H90.5336V35.1512H87.9596V32.3122H94.6407V31.0819L97.6879 31.1766C97.8393 31.1766 98.0853 31.1766 98.0853 31.4037C98.0853 31.6119 97.8204 31.7444 97.6879 31.8011V32.3122H104.388V35.0565H101.644V34.2805H97.3283C97.4229 34.6023 97.1012 34.6401 96.7226 34.678C96.363 35.1512 96.2684 35.2458 96.0034 35.6243H104.88V37.5738H101.227C101.303 37.6116 101.341 37.6684 101.341 37.7252C101.341 37.9144 100.962 37.9712 100.83 37.9901C100.622 38.2173 100.413 38.4255 99.8266 38.9365C100.508 39.1257 101.984 39.58 103.461 40.3181C103.082 40.7156 102.401 41.5294 101.965 42.4001H104.88V44.4063ZM97.8393 37.5738H94.4136L93.9215 38.1037C95.4735 38.2551 95.6627 38.274 96.6091 38.4444C97.0444 38.1983 97.4608 37.9144 97.8393 37.5738ZM101.946 42.4001C100.394 41.4916 99.5048 41.0184 97.5743 40.4317C96.8551 40.7724 96.0413 41.0941 94.8489 41.3969L97.6122 41.5105C97.7825 41.5105 97.9718 41.5484 97.9718 41.7376C97.9718 41.8701 97.7636 42.0594 97.4986 42.2108V42.4001H101.946Z" fill="black"/>
<path d="M81.922 32.2175L83.3793 35.1133C81.6192 35.8136 79.6508 36.987 78.6098 38.1983C77.9285 37.6116 77.2092 37.006 76.6225 36.5707C77.3228 35.9272 77.4932 35.7947 78.042 35.3404C76.8686 35.4351 73.6889 35.6054 72.0801 35.5675L71.9287 32.4068C73.0643 32.5961 75.3923 32.6528 76.6414 32.6528C79.0262 32.6528 81.1081 32.3311 81.922 32.2175ZM73.3104 39.5421L75.4301 41.3402C74.9002 41.7944 73.9539 42.7786 73.9539 43.4032C73.9539 44.7659 76.5468 44.7659 77.3417 44.7659C79.9158 44.7659 82.4709 44.3684 84.9313 43.6303C84.9502 44.1035 84.9881 45.1444 85.4234 46.8478C83.9661 47.2642 81.2974 47.7184 78.0231 47.7184C75.0705 47.7184 73.8971 47.3967 72.9697 47.0182C72.364 46.7721 70.566 45.8826 70.566 43.971C70.566 42.0026 72.5344 40.2424 73.3104 39.5421ZM84.5906 31.839L85.6695 30.552C85.9534 30.817 86.5022 31.3091 87.4486 32.4068C86.9565 32.8232 86.5401 33.2774 86.2373 33.6938C85.8398 33.1449 85.0259 32.2365 84.5906 31.839ZM83.0008 33.4099L84.2121 32.1608C84.7231 32.6339 85.518 33.5235 85.9344 34.148C85.6505 34.4319 85.4045 34.6591 84.8178 35.5108C84.0228 34.4887 83.9093 34.3752 83.0008 33.4099Z" fill="black"/>
<path d="M63.2379 47.7871C62.7295 46.8936 62.3906 46.4314 61.6357 45.6149C64.9787 44.9987 65.9646 42.4106 65.9646 40.8085C65.9646 39.5606 65.3022 37.2652 62.406 37.0341C61.9284 42.6725 59.6022 46.8782 57.9692 46.8782C56.7676 46.8782 54.5338 44.8447 54.5338 41.9947C54.5338 38.6825 57.5533 34.8158 62.0825 34.8158C65.4563 34.8158 68.3987 37.1112 68.3987 40.793C68.3987 41.5017 68.3371 43.4736 66.5808 45.5533C65.6411 46.6471 64.5473 47.2171 63.2379 47.7871ZM59.8179 37.4963C58.0308 38.1587 56.8138 40.4233 56.8138 41.8098C56.8138 42.996 57.4763 43.8895 57.7998 43.8895C58.1695 43.8895 58.4622 43.1963 58.6317 42.7957C59.2941 41.2706 59.8025 39.499 59.8179 37.4963Z" fill="black"/>
<path d="M46.3892 38.8418V39.9017H52.1808V42.2865H48.774L51.1966 43.2517C51.3669 43.3275 51.4805 43.3653 51.4805 43.4789C51.4805 43.6871 51.1776 43.7249 50.8748 43.7438C50.5531 44.5766 50.3259 45.1444 49.9663 45.7879H52.8621V48.1159H36.9827V45.7879H40.1434C39.6892 44.747 39.4242 44.2738 38.6671 43.2896L40.5219 42.2865H37.7587V39.9017H43.6259V38.8418H40.9005V37.517C39.6513 38.3119 39.3106 38.539 37.7587 39.3907C37.0584 38.5012 36.3959 37.8009 35.5632 37.2331C40.8437 34.9808 43.2285 32.1607 43.7963 31.1008L46.8813 31.4415C46.9949 31.4605 47.1273 31.4794 47.1273 31.6308C47.1273 31.8201 46.9381 31.9147 46.7488 31.9715C49.9096 35.3026 52.9757 36.4192 54.4898 36.9681C54.1302 37.2709 52.8053 38.4822 52.4079 39.4286C51.1209 38.8797 50.3827 38.4255 49.0768 37.517V38.8418H46.3892ZM46.3892 42.2865V45.7879H48.6983C47.9412 45.3715 47.5816 45.2012 47.222 45.0498C48.0358 43.8385 48.4144 42.8164 48.5847 42.2865H46.3892ZM43.6259 45.7879V42.2865H41.2222C41.4683 42.5893 42.1686 43.5167 42.7742 44.8416C41.9793 45.2769 41.6197 45.4851 41.1655 45.7879H43.6259ZM42.4903 36.4003H47.5437C46.4649 35.5865 45.8593 35.0187 45.0454 34.0723C44.0802 35.1701 42.9446 36.0596 42.4903 36.4003Z" fill="black"/>
<path d="M26.2323 41.0184H24.4343V39.0122H26.5919C26.6298 38.7283 26.6298 38.558 26.6676 38.3498H24.8885V36.3246H25.3996C24.8318 35.3594 24.6236 35.0376 24.4343 34.7726L26.2134 34.0724C25.8349 34.0724 25.4563 34.0724 25.1535 34.0534C25.1157 33.7885 24.9075 32.8232 24.3207 31.9147C26.7623 31.9904 30.434 31.9147 32.9891 31.0252L34.5979 33.0882C34.6547 33.1639 34.7115 33.2396 34.7115 33.2964C34.7115 33.4288 34.6547 33.4856 34.4843 33.4856C34.314 33.4856 34.1058 33.3531 33.9165 33.2585C33.7651 33.2774 33.1027 33.391 32.9702 33.4288L34.7304 34.2616C34.8061 34.2995 34.8818 34.3563 34.8818 34.4698C34.8818 34.6969 34.6925 34.7348 34.314 34.7537C34.0869 35.2269 33.8408 35.719 33.4812 36.3246H34.5979V38.3498H29.2417C29.2227 38.7094 29.2038 38.8419 29.1849 39.0122H35.355V41.0184H28.7117C28.6928 41.2077 28.636 41.5673 28.5982 41.6998H33.5569L34.1815 42.3811C33.4055 44.217 32.2699 45.4851 32.005 45.769C33.4623 46.4504 34.7493 46.6207 35.3171 46.6964C34.2761 48.1348 34.1626 48.3998 33.9923 48.873C32.3267 48.5323 30.7369 47.586 30.2826 47.3021C29.9798 47.5292 28.8631 48.3809 27.5761 48.7784C26.9894 47.9456 26.3459 47.4156 25.9674 47.1128C25.1914 48.0024 24.7371 48.3241 24.3207 48.608C23.8665 48.0024 23.488 47.567 22.8066 47.056C22.6741 48.3998 21.671 48.5702 20.1758 48.5702C19.6648 48.5702 19.5134 48.5512 19.097 48.4755C18.9456 47.3021 18.7374 46.6586 18.321 45.5987C18.567 45.6555 19.343 45.769 19.7026 45.769C20.3083 45.769 20.3083 45.523 20.3083 44.7848V42.4758C20.0433 42.5515 19.4755 42.7408 19.1348 42.7975C19.0402 43.1193 18.9456 43.2896 18.7752 43.2896C18.6617 43.2896 18.6049 43.1571 18.586 43.0625L17.9992 40.3749C18.5103 40.2614 18.9834 40.1667 20.3083 39.8071V36.6842H18.321V34.2995H20.3083V31.2901L22.9769 31.3848C23.1851 31.3848 23.3176 31.5173 23.3176 31.6497C23.3176 31.8201 23.1662 31.9147 22.8445 32.0472V34.2995H23.999V36.6842H22.8445V39.0311C23.469 38.8229 23.6962 38.7094 23.999 38.5769C23.9422 39.4286 23.9422 39.7125 23.9422 40.0342C23.9422 40.5074 23.9611 40.7156 23.999 40.9806C23.3176 41.3402 23.0905 41.4348 22.8445 41.5294V46.4125C24.51 45.3905 25.6835 43.4978 26.2323 41.0184ZM29.6391 36.3246H30.7369C31.2857 35.5676 31.7968 34.7159 32.2131 33.5424C31.4939 33.656 30.8126 33.7695 30.0934 33.8452C30.7369 34.8294 30.8504 35.189 30.9829 35.6811C30.6612 35.8136 30.3016 35.9461 29.6391 36.3246ZM27.6897 34.4509L28.8253 33.9209C27.2733 34.0156 27.103 34.0345 26.6298 34.0534C27.0651 34.6969 27.4058 35.2458 27.6897 35.9272C27.5572 35.9839 26.9515 36.2678 26.8191 36.3246H28.6549C28.1061 35.0755 27.8979 34.7537 27.6897 34.4509ZM31.1533 43.4789H28.9767C29.2038 43.7439 29.6013 44.217 30.2826 44.747C30.6422 44.3306 30.8126 44.1035 31.1533 43.4789ZM27.5383 44.7281C27.0272 45.7879 26.6298 46.28 26.0809 46.9803C27.7465 46.4125 28.1818 46.1097 28.5224 45.8826C28.0871 45.4473 27.8032 45.0877 27.5383 44.7281Z" fill="black"/>
<path d="M10.1447 33.6749H17.4314V36.1354H10.1447V37.5927H13.5893L14.9142 38.6904C14.0246 40.867 12.6998 42.8354 10.9396 44.3684C11.9049 44.8605 13.9679 45.769 17.3747 46.1854C16.4662 47.1696 16.0876 47.8888 15.7659 48.7026C13.5136 48.2484 11.2424 47.6238 8.74411 46.0151C6.3215 47.5481 4.31527 48.097 1.81696 48.6837C1.21131 47.4535 0.738139 46.8478 0.17034 46.1854C2.74436 45.8826 4.88307 45.2391 6.51077 44.3684C5.92404 43.8196 5.29946 43.2328 3.99352 41.5294L5.52658 40.1857H2.21442V37.5927H7.22998V36.1354H0V33.6749H7.22998V31.1387L10.2772 31.2712C10.4097 31.2712 10.5611 31.3658 10.5611 31.5362C10.5611 31.6876 10.4097 31.7633 10.1447 31.8958V33.6749ZM10.9017 40.1857H6.18901C6.94608 41.4916 8.21416 42.5326 8.64948 42.8732C9.17942 42.4001 10.2204 41.5105 10.9017 40.1857Z" fill="black"/>
</svg>
