<svg xmlns="http://www.w3.org/2000/svg" viewBox="0 0 123.317 48.161" fill="none">
  <g transform="translate(2.99, 0)">
    <g id="&#227;&#131;&#136;&#227;&#131;&#169;&#227;&#131;&#131;&#227;&#130;&#175;&#233;&#129;&#139;&#233;&#128;&#129;&#228;&#186;&#139;&#230;&#165;&#173;&#232;&#128;&#133;&#227;&#129;&#174;">
<path id="Vector" d="M108.139 10.875C107.776 10.237 107.534 9.907 106.995 9.324C109.382 8.884 110.086 7.036 110.086 5.892C110.086 5.001 109.613 3.362 107.545 3.197C107.204 7.223 105.543 10.226 104.377 10.226C103.519 10.226 101.924 8.774 101.924 6.739C101.924 4.374 104.08 1.613 107.314 1.613C109.723 1.613 111.824 3.252 111.824 5.881C111.824 6.387 111.78 7.795 110.526 9.28C109.855 10.061 109.074 10.468 108.139 10.875ZM105.697 3.527C104.421 4 103.552 5.617 103.552 6.607C103.552 7.454 104.025 8.092 104.256 8.092C104.52 8.092 104.729 7.597 104.85 7.311C105.323 6.222 105.686 4.957 105.697 3.527Z" fill="var(--fill-0, black)"/>
<path id="Vector_2" d="M98.34 0.288001L99.96 1.188C100.02 1.224 100.08 1.296 100.08 1.344C100.08 1.416 100.02 1.476 99.9 1.476C99.852 1.476 99.804 1.464 99.696 1.452C98.904 2.628 98.496 3.156 98.292 3.42H100.788V4.932H96.924C96.432 5.388 96.204 5.568 96 5.724H99.648V11.304H97.92V10.86H93.948V11.304H92.22V7.944C91.308 8.328 90.888 8.46 90.588 8.544C90.228 7.56 89.832 7.08 89.652 6.852C91.284 6.588 93.276 5.64 94.356 4.932H89.892V3.42H94.056V2.784H90.72V1.296H94.056V0.288001L95.94 0.360001C96.012 0.360001 96.132 0.372001 96.132 0.492001C96.132 0.588001 96.048 0.624001 95.832 0.708V1.296H97.248V2.112C97.932 1.152 98.196 0.576001 98.34 0.288001ZM93.948 9.504H97.92V8.952H93.948V9.504ZM93.948 7.704H97.92V7.14H93.948V7.704ZM95.832 3.42H96.156C96.264 3.312 96.396 3.168 96.72 2.784H95.832V3.42Z" fill="var(--fill-0, black)"/>
<path id="Vector_3" d="M84.18 9.18V11.304H82.548V9.228C81.384 10.188 79.86 11.052 79.176 11.268C78.588 10.488 78.264 10.284 77.928 10.08C79.836 9.444 81.12 8.4 81.42 8.16H77.928V6.84H82.548V6.48H79.308V5.268H82.548V4.932H78.504V3.648H80.784C80.724 3.504 80.544 3.12 80.52 3.072H77.928V1.752H79.392C79.2 1.392 79.104 1.236 78.936 0.972001L80.316 0.132001C80.604 0.588001 80.952 1.248 81.072 1.488L80.58 1.752H81.408V0.300001L83.004 0.360001C83.124 0.360001 83.244 0.384001 83.244 0.492001C83.244 0.612001 83.16 0.648 83.004 0.72V1.752H83.592V0.300001L85.2 0.360001C85.248 0.360001 85.452 0.372 85.452 0.516001C85.452 0.636001 85.284 0.708 85.2 0.732001V1.752H86.136L85.452 1.488C85.584 1.248 85.896 0.720001 86.064 0.252001L87.732 0.840001C87.792 0.864001 87.84 0.912001 87.84 0.972001C87.84 1.14 87.648 1.128 87.492 1.128C87.384 1.284 87.348 1.332 87.108 1.752H88.764V3.072H86.232C86.136 3.312 86.04 3.552 85.992 3.648H88.056V4.932H84.18V5.268H87.324V6.48H84.18V6.84H88.764V8.16H85.308C86.652 9.288 88.08 9.792 88.776 10.032C87.912 10.68 87.732 10.98 87.588 11.256C86.796 11.004 85.188 10.14 84.18 9.18ZM84.396 3.072H82.368C82.452 3.264 82.488 3.348 82.62 3.648H84.132C84.216 3.468 84.264 3.384 84.396 3.072Z" fill="var(--fill-0, black)"/>
<path id="Vector_4" d="M76.248 6.756H76.848V7.884H76.248V9.876H74.472V9.492H72.264V10.26C72.264 10.872 72.108 11.292 70.32 11.292C70.08 11.292 69.84 11.28 69.684 11.268C69.588 10.728 69.384 10.212 69.12 9.768C69.456 9.816 69.924 9.864 70.14 9.864C70.488 9.864 70.488 9.744 70.488 9.492H66.744V8.292H70.488V7.884H65.916V6.756H70.488V6.372H66.744V5.316H70.488V4.98H67.44V2.544H70.488V2.208H65.916V0.948001H70.488V0.288001L72.348 0.360001C72.432 0.360001 72.528 0.408001 72.528 0.516001C72.528 0.624001 72.456 0.648 72.264 0.744V0.948001H76.8V2.208H72.264V2.544H75.264V4.98H72.264V5.316H76.248V6.756ZM72.264 8.292H74.472V7.884H72.264V8.292ZM72.264 6.756H74.472V6.372H72.264V6.756ZM73.716 3.504H72.264V3.972H73.716V3.504ZM69.024 3.972H70.488V3.504H69.024V3.972Z" fill="var(--fill-0, black)"/>
<path id="Vector_5" d="M59.556 6.144H57.204V4.56H59.868V3.84H57.6V2.364H58.644C58.32 1.824 58.14 1.584 57.6 0.972001L58.848 0C59.352 0.492 59.88 1.128 60.276 1.752C60.168 1.86 59.652 2.268 59.556 2.364H60.792C61.128 1.944 61.632 1.212 62.136 0.0240006L63.732 0.552C63.84 0.588 63.924 0.612001 63.924 0.708C63.924 0.876 63.744 0.900001 63.54 0.936C63.432 1.2 63.288 1.536 62.736 2.364H64.068V3.84H61.62V4.56H64.692V6.144H61.932C62.808 7.404 63.852 7.896 64.704 8.184C64.416 8.4 63.744 8.916 63.54 9.492C62.124 8.928 61.068 7.488 60.888 7.224C60.264 8.208 59.448 8.844 58.2 9.456C57.696 8.748 57.552 8.568 56.976 8.268C58.272 7.716 59.076 7.26 59.556 6.144ZM53.688 1.236L54.924 0.156C55.452 0.6 56.364 1.356 56.868 2.004C56.82 2.052 55.992 2.748 55.56 3.132C55.308 2.844 54.492 1.884 53.688 1.236ZM53.76 4.56H56.616V8.568C56.616 8.904 56.844 9.204 57.144 9.396C57.492 9.612 57.816 9.756 59.82 9.756C63.468 9.756 64.284 9.66 65.256 9.504C64.788 10.356 64.692 10.656 64.692 11.22H59.184C58.176 11.22 56.724 11.22 55.824 10.092C55.644 10.236 54.792 10.848 54.624 10.98C54.624 11.172 54.624 11.352 54.456 11.352C54.36 11.352 54.312 11.28 54.288 11.22L53.46 9.624C53.712 9.516 54.228 9.288 54.828 8.844V6.144H53.76V4.56Z" fill="var(--fill-0, black)"/>
<path id="Vector_6" d="M49.56 3.216V3.528H52.176V7.2H49.56V7.536H52.716V8.724H49.56V9.396H48.036V8.724H45.12V7.536H48.036V7.2H45.42V3.528H48.036V3.216H46.008V2.772H44.652V0.528001H52.716V2.772H51.36V3.216H49.56ZM49.56 4.488V4.944H50.628V4.488H49.56ZM48.036 4.944V4.488H46.968V4.944H48.036ZM49.56 5.772V6.24H50.628V5.772H49.56ZM48.036 6.24V5.772H46.968V6.24H48.036ZM49.56 1.74V2.124H51.264V1.74H49.56ZM48.036 2.124V1.74H46.104V2.124H48.036ZM41.64 1.524L42.804 0.444C43.452 0.984 43.944 1.452 44.544 2.148C43.992 2.556 43.632 2.904 43.224 3.372C42.648 2.556 42.144 2.016 41.64 1.524ZM41.892 4.716H44.808V8.292C44.808 9.6 46.284 9.636 48.564 9.636C50.088 9.636 51.612 9.492 53.124 9.336C52.872 9.888 52.716 10.392 52.668 11.124H47.412C46.068 11.124 44.88 11.028 43.98 9.96C43.74 10.188 43.344 10.548 42.684 10.944C42.696 11.184 42.708 11.316 42.528 11.316C42.456 11.316 42.372 11.22 42.324 11.124L41.52 9.54C42.156 9.288 42.588 9.048 43.056 8.76V6.276H41.892V4.716Z" fill="var(--fill-0, black)"/>
<path id="Vector_7" d="M35.904 2.148H38.652C39.048 2.148 39.264 2.064 39.504 1.968L40.5 2.82C40.284 3.18 39.552 4.824 39.276 5.436C37.428 9.588 34.764 10.92 33.708 11.448C33.504 11.184 33.168 10.788 32.16 10.08C33.984 9.312 35.436 7.992 36.06 7.236C37.032 6.06 37.584 4.608 37.848 3.876H34.848C34.08 5.016 33.168 6.036 32.148 6.948C31.5 6.264 31.26 6.012 30.684 5.652C33.6 3.18 34.356 1.068 34.62 0.348001L36.348 1.188C36.396 1.212 36.504 1.272 36.504 1.368C36.504 1.488 36.336 1.524 36.216 1.536C36.024 1.908 35.988 2.004 35.904 2.148Z" fill="var(--fill-0, black)"/>
<path id="Vector_8" d="M20.52 3.912L22.068 3.264C22.44 3.864 22.944 4.908 23.172 5.46C22.872 5.568 22.188 5.844 21.648 6.204C21.324 5.424 20.916 4.644 20.52 3.912ZM22.944 3.348L24.516 2.712C24.924 3.384 25.212 3.996 25.5 4.968C24.624 5.292 24.336 5.412 23.988 5.592C23.76 4.98 23.268 3.912 22.944 3.348ZM27.12 2.916L28.86 3.456C28.992 3.492 29.088 3.528 29.088 3.636C29.088 3.756 28.92 3.768 28.86 3.768C27.852 8.028 25.92 9.708 23.136 10.908C22.992 10.656 22.632 10.068 21.996 9.552C25.068 8.364 26.604 6.732 27.12 2.916Z" fill="var(--fill-0, black)"/>
<path id="Vector_9" d="M10.428 0.816H17.388V2.532H10.428V0.816ZM8.904 3.612H16.68C17.052 3.612 17.364 3.6 17.712 3.504L18.876 4.332C18.672 4.716 17.796 6.42 17.604 6.756C16.392 8.88 15.096 10.236 12.384 11.364C12.048 10.8 11.448 10.164 11.076 9.816C12.18 9.432 14.916 8.484 16.104 5.364H8.904V3.612Z" fill="var(--fill-0, black)"/>
<path id="Vector_10" d="M2.028 4.572L2.712 3.612C4.488 4.512 6.012 5.544 6.9 6.432C6.36 7.212 6.3 7.296 5.772 8.112C5.376 7.74 4.176 6.624 2.028 5.448V11.076H0V0.48L2.028 0.576001C2.112 0.576001 2.256 0.588 2.256 0.708C2.256 0.828 2.124 0.876 2.028 0.900001V4.572Z" fill="var(--fill-0, black)"/>
</g>
  </g>
  <g transform="translate(0.47, 15.54)">
    <g id="&#228;&#186;&#186;&#230;&#137;&#139;&#228;&#184;&#141;&#232;&#182;&#179;&#227;&#131;&#187;&#231;&#137;&#169;&#228;&#190;&#161;&#233;&#171;&#152;&#233;&#168;&#176;&#229;&#175;&#190;&#231;&#173;&#150;">
<path id="Vector" d="M118.198 8.10902V10.739H116.618V8.15516C115.257 9.51628 113.676 10.3353 113.146 10.6121C112.696 10.0123 112.442 9.82772 111.865 9.40093C112.523 9.1933 113.273 8.90493 114.345 8.1667H112.834V5.08688H116.618V4.64856H112.073V3.27591H116.618V2.61842L118.279 2.87219C118.383 2.88372 118.452 2.95293 118.452 3.03367C118.452 3.14902 118.336 3.18363 118.198 3.2413V3.27591H122.639V4.64856H118.198V5.08688H122.016V7.26698C122.016 8.09749 121.174 8.25898 120.713 8.32819C121.67 8.928 122.443 9.20484 122.847 9.34326C122.177 9.77005 121.97 9.92 121.555 10.6006C120.297 9.96614 119.121 9.17023 118.198 8.10902ZM118.936 2.23777H118.486C118.313 2.50307 118.186 2.65302 118.06 2.81451C117.414 2.52614 117.333 2.50307 116.618 2.31851C116.641 2.29544 116.664 2.26084 116.687 2.23777H115.903C116.006 2.46846 116.076 2.60688 116.191 2.95293C115.591 2.976 115.28 3.03367 114.588 3.19516C114.403 2.62995 114.368 2.52614 114.241 2.23777H113.861C113.538 2.66456 113.365 2.86065 113.203 3.04521C112.88 2.87219 112.35 2.64149 111.773 2.50307C112.096 2.15702 112.915 1.24577 113.399 0.0230703L114.957 0.322977C115.037 0.334512 115.107 0.392186 115.107 0.461396C115.107 0.588279 114.98 0.657489 114.818 0.680559C114.784 0.738233 114.749 0.807442 114.714 0.876652H117.125V1.62642C117.333 1.2573 117.575 0.772838 117.84 0L119.478 0.299907C119.548 0.311442 119.64 0.357582 119.64 0.47293C119.64 0.576744 119.524 0.645954 119.34 0.634419L119.236 0.876652H122.454V2.23777H120.713C120.839 2.46846 121.001 2.81451 121.047 2.9414C120.413 2.96447 120.124 3.0106 119.328 3.16056C119.248 2.92986 119.178 2.7107 118.936 2.23777ZM120.355 6.4134H118.648C118.855 6.6787 119.34 7.30158 120.02 7.83219C119.847 7.35926 119.744 7.1747 119.548 6.88633C119.628 6.89786 120.032 6.944 120.124 6.944C120.286 6.944 120.355 6.88633 120.355 6.72484V6.4134ZM114.461 6.4134V8.08595C114.761 7.85526 115.545 7.26698 116.249 6.4134H114.461Z" fill="var(--fill-0, #E8821A)"/>
<path id="Vector_2" d="M106.49 3.06828H108.612V0.161488L110.377 0.253767C110.562 0.265302 110.643 0.311441 110.643 0.392185C110.643 0.519069 110.493 0.565209 110.354 0.611349V3.06828H111.415V4.60242H110.354V9.03181C110.354 10.5313 109.674 10.6928 107.724 10.6928C107.609 9.86232 107.39 9.40093 106.928 8.82419C107.251 8.88186 107.886 8.9626 108.197 8.9626C108.52 8.9626 108.612 8.84726 108.612 8.30512V4.60242H106.329V3.2067H105.706C105.463 4.67163 105.048 5.77898 104.633 6.6787C105.152 7.4746 105.625 8.30512 106.04 9.1587C105.06 9.62009 104.702 9.85079 104.414 10.0353C104.206 9.424 104.033 8.98567 103.722 8.30512C102.66 9.83926 101.968 10.3929 101.553 10.7159C101.138 10.1968 100.803 9.9546 100.123 9.6893C101.207 8.98567 102.038 7.92446 102.707 6.80558C102.084 5.952 101.599 5.36372 100.7 4.53321L101.98 3.64502C102.718 4.26791 103.341 5.05228 103.491 5.24837C103.779 4.56781 103.906 4.07181 104.091 3.2067H100.573V1.74177H102.684V0.103813L104.541 0.196093C104.598 0.196093 104.748 0.207627 104.748 0.334511C104.748 0.461395 104.61 0.519069 104.541 0.542139V1.74177H106.49V3.06828ZM105.521 5.85972L106.928 5.05228C107.309 5.54828 107.805 6.32112 108.151 7.22084C107.99 7.30158 107.113 7.78605 106.594 8.06288C106.421 7.46307 105.844 6.34419 105.521 5.85972Z" fill="var(--fill-0, #E8821A)"/>
<path id="Vector_3" d="M96.8584 5.09842V5.4214H98.0811V6.00968H96.8584V6.33265H98.0811V6.97861H96.8584V7.30158H99.546C99.546 7.80912 99.4768 9.13563 99.0039 9.95461C98.7963 10.3122 98.4502 10.7505 96.9968 10.6813C96.9968 10.2314 96.9392 9.97768 96.6969 9.424C96.8584 9.44707 97.1237 9.45861 97.2852 9.45861C97.5274 9.45861 97.9773 9.45861 98.0004 8.24744H94.9321V8.432H93.594V5.70977C93.421 5.81358 93.3633 5.83665 93.2249 5.9174C93.0865 5.70977 92.9942 5.57135 92.602 5.1907V9.50475C92.602 10.4852 92.0138 10.5429 91.0333 10.6467C90.8718 10.0584 90.595 9.58549 90.5373 9.49321C90.4566 9.85079 90.3297 10.3468 90.099 10.7967C89.8452 10.6698 89.3492 10.4391 88.6686 10.3122C89.0262 9.56242 89.4069 8.58196 89.4069 5.65209V0.449862H92.602V4.67163C93.1211 4.34865 93.3749 4.11795 93.5364 3.94493H92.7866V2.98754H94.2515C94.3092 2.88372 94.4015 2.7107 94.4476 2.61842H93.0288V1.56875H93.6633C93.4095 1.13042 93.3518 1.03814 93.0519 0.645955L94.1477 0.0115356C94.2631 0.149955 94.6322 0.63442 94.8514 1.17656C94.4822 1.37265 94.3899 1.41879 94.1823 1.56875H94.7937C94.9552 0.911257 94.9782 0.461397 94.9898 0.0922804L96.5931 0.322978C96.6854 0.334513 96.7546 0.369117 96.7546 0.438326C96.7546 0.519071 96.6969 0.553675 96.5124 0.657489C96.4547 0.934327 96.374 1.28037 96.3047 1.56875H97.5967C97.2967 1.38419 96.9968 1.28037 96.87 1.23423C96.9968 1.02661 97.366 0.461397 97.4582 0.0576754L98.7963 0.507536C98.854 0.530606 98.9578 0.565211 98.9578 0.645955C98.9578 0.749769 98.8193 0.772839 98.6463 0.772839C98.5079 1.06121 98.3926 1.24577 98.1734 1.56875H98.9116V2.61842H97.6428C97.7005 2.72223 97.7351 2.79144 97.8504 2.98754H99.4768V3.94493H98.5886C99.1077 4.464 99.4884 4.67163 99.7767 4.83312C99.4884 5.09842 99.1308 5.51368 98.9116 5.84819C98.6463 5.69823 98.4041 5.58289 97.885 5.09842H96.8584ZM95.578 5.4214V5.09842H94.9321V5.4214H95.578ZM95.578 6.33265V6.00968H94.9321V6.33265H95.578ZM96.893 3.94493H95.3473C95.3012 4.02568 95.1859 4.1987 95.082 4.32558H97.1583C97.0545 4.1987 96.9738 4.07182 96.893 3.94493ZM95.578 7.30158V6.97861H94.9321V7.30158H95.578ZM96.2701 2.61842H95.7972C95.7511 2.73377 95.728 2.80298 95.6473 2.98754H96.4086C96.3624 2.88372 96.3393 2.82605 96.2701 2.61842ZM91.2755 4.30251H90.7911V5.66363H91.2755V4.30251ZM90.7911 3.09135H91.2755V1.81098H90.7911V3.09135ZM91.2755 6.99014H90.7911C90.7795 7.54382 90.6988 8.52428 90.618 9.04335C90.7334 9.06642 90.8718 9.07796 90.9872 9.07796C91.1948 9.07796 91.2755 9.03182 91.2755 8.74344V6.99014ZM93.3403 8.37433L94.3669 8.72037C94.4361 8.74344 94.5053 8.78958 94.5053 8.85879C94.5053 8.95107 94.413 8.97414 94.2631 8.98568C94.2285 9.1587 94.067 9.81619 93.7325 10.566C93.5248 10.4621 93.0404 10.2084 92.5559 10.093C92.9366 9.56242 93.2249 8.84726 93.3403 8.37433ZM95.6588 8.68577L96.4086 8.52428C96.5816 9.00875 96.6393 9.30865 96.6739 9.60856C96.1779 9.72391 96.0048 9.79312 95.8549 9.85079C95.8318 9.51628 95.7972 9.27405 95.6588 8.68577ZM94.5168 8.80112L95.3473 8.67423C95.4627 9.18177 95.5204 9.56242 95.5434 10.1161C95.3935 10.1161 95.1513 10.1161 94.586 10.266C94.586 9.73544 94.586 9.18177 94.5168 8.80112ZM96.6854 8.50121L97.4352 8.27051C97.6659 8.87033 97.6774 9.02028 97.7005 9.17023C97.4352 9.21637 97.2506 9.28558 96.9276 9.40093C96.9046 9.14716 96.8584 8.93954 96.6854 8.50121Z" fill="var(--fill-0, #E8821A)"/>
<path id="Vector_4" d="M85.2197 9.60856H81.9553V10.0353H80.4097V7.02474H85.2659V9.13563C85.5658 9.20484 85.6234 9.21637 85.7503 9.21637C85.958 9.21637 86.0156 9.13563 86.0156 8.90493V6.56335H79.6484V10.7044H77.9758V5.35219H87.642V9.40093C87.642 10.4045 87.2153 10.7505 85.658 10.7967C85.5773 10.4391 85.485 10.0815 85.2197 9.60856ZM83.6971 8.01674H81.9553V8.57042H83.6971V8.01674ZM79.6714 2.48H85.9349V4.96H79.6714V2.48ZM84.3661 3.46047H81.2402V3.97954H84.3661V3.46047ZM83.6971 0.772838H88.0688V2.08781H77.5029V0.772838H81.8977V0.0576744L83.6971 0.126884C83.7663 0.126884 83.9278 0.161489 83.9278 0.276837C83.9278 0.346047 83.8701 0.403721 83.6971 0.47293V0.772838Z" fill="var(--fill-0, #E8821A)"/>
<path id="Vector_5" d="M74.2962 2.13395V3.35665H76.3725V10.739H74.8383V10.2891H70.7896V10.739H69.2554V3.35665H71.3202V2.13395H69.1632V1.07274C69.0939 1.09581 69.0709 1.09581 69.0017 1.10735C68.7018 1.86865 68.6095 2.12242 68.4595 2.43386L68.6787 2.52614C68.7479 2.56074 68.8286 2.60688 68.8286 2.68763C68.8286 2.77991 68.771 2.81451 68.6095 2.89526V10.739H66.9715V5.07535C66.81 5.31758 66.6716 5.47907 66.5217 5.67516C66.1872 5.00614 65.8642 4.64856 65.4951 4.30251C66.81 2.61842 67.3868 0.715163 67.5483 0.0922794L69.1632 0.634419V0.576745H76.6378V2.13395H74.2962ZM73.085 5.01767H72.5429V8.72037H73.085V5.01767ZM73.0735 3.35665V2.13395H72.5429V3.35665H73.0735ZM74.8383 5.01767H74.3077V8.72037H74.8383V5.01767ZM70.7896 5.01767V8.72037H71.3202V5.01767H70.7896Z" fill="var(--fill-0, #E8821A)"/>
<path id="Vector_6" d="M58.0089 7.29005V10.739H56.3364V7.33619C55.8173 7.48614 55.4943 7.56688 55.0906 7.6707C55.0445 7.82065 54.9753 8.02828 54.8599 8.02828C54.8368 8.02828 54.71 8.01674 54.6753 7.85526L54.3524 6.07888C55.2982 5.89433 55.5635 5.82512 56.3364 5.64056V3.69116H55.8173C55.7135 4.14102 55.6673 4.33712 55.5405 4.76391C55.1252 4.55628 54.6177 4.34865 54.0755 4.26791C54.4677 3.05674 54.6407 2.31851 54.6753 0.922791L56.1057 1.04967C56.1864 1.06121 56.3018 1.07274 56.3364 1.11888V0.149954L58.0089 0.230698C58.1243 0.230698 58.2973 0.242233 58.2973 0.369116C58.2973 0.47293 58.2166 0.507536 58.0089 0.61135V2.16856H58.6779V3.05674C59.2316 1.97247 59.5431 0.680559 59.6584 0.0922794L61.354 0.449861C61.4348 0.461396 61.5155 0.507535 61.5155 0.588279C61.5155 0.715163 61.354 0.749767 61.181 0.772838C60.9734 1.41879 60.9503 1.49954 60.7081 2.08781H64.8491C64.8491 7.50921 64.6415 8.98567 64.33 9.72391C64.157 10.1161 63.8571 10.7044 61.8039 10.7159C61.677 10.0584 61.5963 9.77005 61.1464 9.02028C60.662 9.60856 60.2352 10.0815 59.4277 10.6698C59.0125 10.1622 58.7818 9.96614 58.182 9.57395C58.9663 9.11256 61.2041 7.30158 62.2076 3.61042H61.7347C61.1695 5.58288 60.0852 7.41693 59.1393 8.32819C58.7126 7.82065 58.6549 7.77451 58.0089 7.29005ZM58.0089 4.22177V5.15609C58.3434 5.05228 58.5741 4.97154 58.9894 4.83312C58.8971 5.456 58.8856 5.55981 58.874 6.40186C59.5777 5.59442 60.1544 4.60242 60.5005 3.61042H60.0391C59.9814 3.7373 59.6469 4.40633 59.2201 4.90233C58.7356 4.57935 58.5626 4.464 58.0089 4.22177ZM58.0089 6.78251V7.24391C58.2973 6.99014 58.5165 6.79405 58.8394 6.448C58.4934 6.59795 58.0897 6.75944 58.0089 6.78251ZM61.2272 8.91647C61.4117 8.93954 61.9308 8.96261 62.2768 8.96261C62.7152 8.96261 62.8882 8.75498 62.9689 8.30512C63.1535 7.31312 63.1881 6.59795 63.2458 5.02921C62.7613 6.58642 61.9885 7.94754 61.2272 8.91647ZM58.0089 3.46047V4.08335C58.205 3.84112 58.3204 3.66809 58.4473 3.46047H58.0089ZM55.9442 2.16856H56.3364V1.24577C56.2672 1.33805 56.1749 1.38419 56.0249 1.43033C56.0019 1.58028 55.9903 1.68409 55.9442 2.16856Z" fill="var(--fill-0, #E8821A)"/>
<path id="Vector_7" d="M49.6923 4.04874C50.4536 4.04874 51.0995 4.67163 51.0995 5.456C51.0995 6.22884 50.4651 6.86326 49.6923 6.86326C48.9194 6.86326 48.285 6.22884 48.285 5.456C48.285 4.67163 48.9194 4.04874 49.6923 4.04874Z" fill="var(--fill-0, #E8821A)"/>
<path id="Vector_8" d="M36.554 5.32912L38.2843 5.61749C38.4458 5.64056 38.5265 5.66363 38.5265 5.74437C38.5265 5.85972 38.3996 5.89432 38.2266 5.94046C38.1459 6.47107 38.0997 6.74791 38.0305 7.04781C38.3189 7.48614 38.6649 7.87832 39.2417 8.25898V4.67163H36.0004V0.392185H44.2709V4.67163H40.9834V5.69823H44.3632V7.27851H40.9834V8.89339C41.3872 8.95107 42.0216 9.00874 42.8752 9.00874C43.9594 9.00874 44.8246 8.928 45.4705 8.85879C45.0207 9.55088 44.8592 9.94307 44.7438 10.6006C43.475 10.6582 41.0757 10.6121 39.8761 10.266C38.9533 9.98921 38.1228 9.50474 37.5114 8.73191C37.0731 9.67777 36.6233 10.2084 36.208 10.6352C35.712 10.266 35.3775 10.0815 34.6393 9.81619C36.1734 8.25898 36.4848 6.86326 36.554 5.32912ZM42.483 1.88019H37.7652V3.18363H42.483V1.88019Z" fill="var(--fill-0, #E8821A)"/>
<path id="Vector_9" d="M29.61 4.29098L30.752 3.13749C31.9747 4.01414 33.5665 5.59442 34.1202 6.34419C34.0164 6.43647 32.9667 7.39386 32.736 7.64763C31.398 5.81358 29.8753 4.63702 29.61 4.45247V10.739H27.776V5.23684C26.438 6.49414 25.296 7.08242 24.1194 7.54381C23.7503 6.81712 23.4389 6.43646 22.9083 5.9866C26.0342 5.14456 27.7068 2.76837 28.2028 2.00707H23.312V0.42679H33.8664V2.00707H30.5328C30.1753 2.56074 29.8984 2.91833 29.7023 3.14902C29.7946 3.18363 29.8984 3.21823 29.8984 3.35665C29.8984 3.49507 29.7485 3.55274 29.61 3.58735V4.29098Z" fill="var(--fill-0, #E8821A)"/>
<path id="Vector_10" d="M18.0982 2.43386V3.37972H21.6625V4.97154H18.0982V5.76744H22.4238V7.39386H18.0982V9.12409C18.0982 10.566 17.4177 10.7736 15.376 10.8082C15.2376 9.89693 14.9146 9.3894 14.6262 8.99721C15.0646 9.08949 15.699 9.12409 15.7451 9.12409C16.218 9.12409 16.2411 8.8934 16.2411 8.55888V7.39386H11.6964V5.76744H16.2411V4.97154H12.4577V3.37972H16.2411V2.65302C15.1107 2.73377 13.8303 2.75684 13.1728 2.75684C13.1152 2.37619 12.9767 1.77637 12.5269 1.17656C14.1533 1.2227 17.2908 1.29191 20.1745 0.0807457L21.3395 1.47647C21.3857 1.53414 21.4087 1.59182 21.4087 1.62642C21.4087 1.70716 21.3395 1.83405 21.2011 1.83405C21.0742 1.83405 20.9243 1.7533 20.8551 1.70716C20.1514 1.97247 19.4247 2.2147 18.0982 2.43386Z" fill="var(--fill-0, #E8821A)"/>
<path id="Vector_11" d="M4.57935 0.13842L6.42493 0.265304C6.6787 0.288373 6.70177 0.403722 6.70177 0.438326C6.70177 0.519071 6.66716 0.565211 6.42493 0.68056C6.34419 4.31405 6.28651 6.97861 10.9581 9.26251C10.3583 9.72391 10.07 10.0353 9.73544 10.6928C8.83572 10.266 8.17823 9.78158 7.39386 9.03182C6.57488 8.24744 6.25191 7.73991 5.55981 6.65563C5.40986 7.04782 5.13302 7.76298 3.84112 9.02028C3.0106 9.81619 2.39926 10.1968 1.4534 10.6813C0.830512 9.86233 0.51907 9.60856 0 9.29712C2.39926 8.52428 3.54121 6.84019 3.968 5.77898C4.49861 4.4294 4.64856 3.16056 4.57935 0.13842Z" fill="var(--fill-0, #E8821A)"/>
</g>
  </g>
  <g transform="translate(0, 29.84)">
    <g id="&#230;&#148;&#175;&#230;&#143;&#180;&#233;&#135;&#145;&#227;&#129;&#174;&#227;&#129;&#148;&#230;&#161;&#136;&#229;&#134;&#133;">
<path id="Vector" d="M115.763 3.46357H122.444V15.8984C122.444 16.8069 122.444 18.0182 119.908 18.0182C119.435 18.0182 118.791 17.9614 118.337 17.9425C118.185 16.5419 117.788 15.7091 117.334 14.9142C117.788 15.0278 118.848 15.1602 119.075 15.1602C119.321 15.1602 119.567 15.0467 119.567 14.46V12.4727C119.454 12.5862 118.753 13.2108 118.148 14.2518C116.993 13.7218 115.46 12.5484 114.362 10.3529C113.302 12.3023 111.183 14.1003 110.274 14.6114C109.952 13.8922 109.687 13.4947 109.044 12.8323V17.9992H106.167V3.46357H112.848V0.567799L115.914 0.681357C116.141 0.681357 116.274 0.794919 116.274 0.946331C116.274 1.1356 116.028 1.24916 115.763 1.32486V3.46357ZM119.567 6.15116H115.763C115.857 7.36246 116.122 8.34665 116.804 9.25513C117.296 9.91756 118.11 10.8828 119.567 11.6967V6.15116ZM109.044 6.15116V11.9238C112.318 9.93649 112.64 7.22998 112.772 6.15116H109.044Z" fill="var(--fill-0, black)"/>
<path id="Vector_2" d="M104.88 13.8543H99.8077C101.738 15.3117 104.047 15.9362 104.748 16.1255C104.407 16.3337 103.953 16.6365 103.044 18.1885C100.129 17.0151 98.4071 15.6902 97.4986 14.8953V18.0749H94.811V14.7628C93.1833 16.2769 91.2528 17.3368 89.1141 18.1885C88.2056 16.6365 87.7514 16.3337 87.4107 16.1255C89.8901 15.4631 91.4232 14.5546 92.3506 13.8543H87.5621V11.8481H94.811V10.845C93.2401 11.2803 91.1771 11.5263 89.5305 11.5263C89.2466 10.4664 89.1898 10.2393 88.5652 9.33083C89.0384 9.36869 89.6062 9.40654 90.439 9.40654C91.8206 9.40654 92.767 9.27405 93.9215 8.99015C93.2401 8.85767 92.9751 8.81981 92.6723 8.78196C92.5588 8.87659 92.483 8.93337 92.2559 9.12264C91.7638 8.74411 90.8175 8.13846 90.0983 7.98704C90.5147 7.64636 90.7797 7.41924 91.196 7.02178H87.5621V5.07234H92.9373C93.4105 4.46669 93.5997 4.14493 93.8647 3.72855H90.5336V4.59917H87.9596V1.76018H94.6407V0.529945L97.6879 0.624578C97.8393 0.624578 98.0853 0.624579 98.0853 0.851698C98.0853 1.05989 97.8204 1.19238 97.6879 1.24916V1.76018H104.388V4.50454H101.644V3.72855H97.3283C97.4229 4.0503 97.1012 4.08815 96.7226 4.12601C96.363 4.59917 96.2684 4.69381 96.0034 5.07234H104.88V7.02178H101.227C101.303 7.05964 101.341 7.11642 101.341 7.1732C101.341 7.36246 100.962 7.41924 100.83 7.43817C100.622 7.66529 100.413 7.87348 99.8266 8.3845C100.508 8.57377 101.984 9.02801 103.461 9.76615C103.082 10.1636 102.401 10.9775 101.965 11.8481H104.88V13.8543ZM97.8393 7.02178H94.4136L93.9215 7.55173C95.4735 7.70314 95.6627 7.72207 96.6091 7.89241C97.0444 7.64636 97.4608 7.36246 97.8393 7.02178ZM101.946 11.8481C100.394 10.9396 99.5048 10.4664 97.5743 9.87971C96.8551 10.2204 96.0413 10.5421 94.8489 10.845L97.6122 10.9585C97.7825 10.9585 97.9718 10.9964 97.9718 11.1856C97.9718 11.3181 97.7636 11.5074 97.4986 11.6588V11.8481H101.946Z" fill="var(--fill-0, black)"/>
<path id="Vector_3" d="M81.922 1.66554L83.3793 4.56132C81.6192 5.26161 79.6508 6.43506 78.6098 7.64636C77.9285 7.05964 77.2092 6.45398 76.6225 6.01867C77.3228 5.37517 77.4932 5.24268 78.042 4.78844C76.8686 4.88307 73.6889 5.05341 72.0801 5.01556L71.9287 1.85481C73.0643 2.04408 75.3923 2.10086 76.6414 2.10086C79.0262 2.10086 81.1081 1.7791 81.922 1.66554ZM73.3104 8.99015L75.4301 10.7882C74.9002 11.2424 73.9539 12.2266 73.9539 12.8512C73.9539 14.2139 76.5468 14.2139 77.3417 14.2139C79.9158 14.2139 82.4709 13.8164 84.9313 13.0783C84.9502 13.5515 84.9881 14.5924 85.4234 16.2958C83.9661 16.7122 81.2974 17.1665 78.0231 17.1665C75.0705 17.1665 73.8971 16.8447 72.9697 16.4662C72.364 16.2201 70.566 15.3306 70.566 13.419C70.566 11.4506 72.5344 9.69044 73.3104 8.99015ZM84.5906 1.28701L85.6695 0C85.9534 0.264973 86.5022 0.757064 87.4486 1.85481C86.9565 2.2712 86.5401 2.72544 86.2373 3.14182C85.8398 2.59295 85.0259 1.68447 84.5906 1.28701ZM83.0008 2.85792L84.2121 1.60876C84.7231 2.08193 85.518 2.97148 85.9344 3.59606C85.6505 3.87996 85.4045 4.10708 84.8178 4.95878C84.0228 3.93674 83.9093 3.82318 83.0008 2.85792Z" fill="var(--fill-0, black)"/>
<path id="Vector_4" d="M63.2379 17.2351C62.7295 16.3416 62.3906 15.8795 61.6357 15.063C64.9787 14.4468 65.9646 11.8586 65.9646 10.2565C65.9646 9.00864 65.3022 6.71324 62.406 6.48216C61.9284 12.1205 59.6022 16.3262 57.9692 16.3262C56.7676 16.3262 54.5338 14.2927 54.5338 11.4427C54.5338 8.13054 57.5533 4.26378 62.0825 4.26378C65.4563 4.26378 68.3987 6.55919 68.3987 10.2411C68.3987 10.9497 68.3371 12.9216 66.5808 15.0013C65.6411 16.0951 64.5473 16.6651 63.2379 17.2351ZM59.8179 6.94432C58.0308 7.60675 56.8138 9.87135 56.8138 11.2578C56.8138 12.444 57.4763 13.3376 57.7998 13.3376C58.1695 13.3376 58.4622 12.6443 58.6317 12.2438C59.2941 10.7186 59.8025 8.94702 59.8179 6.94432Z" fill="var(--fill-0, black)"/>
<path id="Vector_5" d="M46.3892 8.28987V9.34976H52.1808V11.7345H48.774L51.1966 12.6998C51.3669 12.7755 51.4805 12.8133 51.4805 12.9269C51.4805 13.1351 51.1776 13.1729 50.8748 13.1919C50.5531 14.0246 50.3259 14.5924 49.9663 15.2359H52.8621V17.5639H36.9827V15.2359H40.1434C39.6892 14.195 39.4242 13.7218 38.6671 12.7376L40.5219 11.7345H37.7587V9.34976H43.6259V8.28987H40.9005V6.965C39.6513 7.75992 39.3106 7.98704 37.7587 8.83874C37.0584 7.94919 36.3959 7.2489 35.5632 6.68111C40.8437 4.42883 43.2285 1.60877 43.7963 0.548874L46.8813 0.889553C46.9949 0.908479 47.1273 0.927406 47.1273 1.07882C47.1273 1.26809 46.9381 1.36272 46.7488 1.4195C49.9096 4.75059 52.9757 5.86726 54.4898 6.41613C54.1302 6.71896 52.8053 7.93026 52.4079 8.8766C51.1209 8.32772 50.3827 7.87348 49.0768 6.965V8.28987H46.3892ZM46.3892 11.7345V15.2359H48.6983C47.9412 14.8196 47.5816 14.6492 47.222 14.4978C48.0358 13.2865 48.4144 12.2645 48.5847 11.7345H46.3892ZM43.6259 15.2359V11.7345H41.2222C41.4683 12.0373 42.1686 12.9648 42.7742 14.2896C41.9793 14.7249 41.6197 14.9331 41.1655 15.2359H43.6259ZM42.4903 5.84833H47.5437C46.4649 5.03449 45.8593 4.46669 45.0454 3.52036C44.0802 4.6181 42.9446 5.50765 42.4903 5.84833Z" fill="var(--fill-0, black)"/>
<path id="Vector_6" d="M26.2323 10.4664H24.4343V8.46021H26.5919C26.6298 8.17631 26.6298 8.00597 26.6676 7.79778H24.8885V5.77263H25.3996C24.8318 4.80737 24.6236 4.48562 24.4343 4.22064L26.2134 3.52036C25.8349 3.52036 25.4563 3.52036 25.1535 3.50143C25.1157 3.23646 24.9075 2.2712 24.3207 1.36272C26.7623 1.43843 30.434 1.36272 32.9891 0.473167L34.5979 2.53617C34.6547 2.61188 34.7115 2.68758 34.7115 2.74436C34.7115 2.87685 34.6547 2.93363 34.4843 2.93363C34.314 2.93363 34.1058 2.80114 33.9165 2.70651C33.7651 2.72544 33.1027 2.839 32.9702 2.87685L34.7304 3.70962C34.8061 3.74748 34.8818 3.80426 34.8818 3.91782C34.8818 4.14494 34.6925 4.18279 34.314 4.20172C34.0869 4.67488 33.8408 5.16697 33.4812 5.77263H34.5979V7.79778H29.2417C29.2227 8.15738 29.2038 8.28987 29.1849 8.46021H35.355V10.4664H28.7117C28.6928 10.6557 28.636 11.0153 28.5982 11.1478H33.5569L34.1815 11.8292C33.4055 13.665 32.2699 14.9331 32.005 15.217C33.4623 15.8984 34.7493 16.0687 35.3171 16.1444C34.2761 17.5829 34.1626 17.8478 33.9923 18.321C32.3267 17.9803 30.7369 17.034 30.2826 16.7501C29.9798 16.9772 28.8631 17.8289 27.5761 18.2264C26.9894 17.3936 26.3459 16.8636 25.9674 16.5608C25.1914 17.4504 24.7371 17.7721 24.3207 18.056C23.8665 17.4504 23.488 17.0151 22.8066 16.504C22.6741 17.8478 21.671 18.0182 20.1758 18.0182C19.6648 18.0182 19.5134 17.9992 19.097 17.9235C18.9456 16.7501 18.7374 16.1066 18.321 15.0467C18.567 15.1035 19.343 15.217 19.7026 15.217C20.3083 15.217 20.3083 14.971 20.3083 14.2328V11.9238C20.0433 11.9995 19.4755 12.1888 19.1348 12.2455C19.0402 12.5673 18.9456 12.7376 18.7752 12.7376C18.6617 12.7376 18.6049 12.6051 18.586 12.5105L17.9992 9.82293C18.5103 9.70937 18.9834 9.61474 20.3083 9.25513V6.13223H18.321V3.74748H20.3083V0.73814L22.9769 0.832773C23.1851 0.832773 23.3176 0.96526 23.3176 1.09775C23.3176 1.26809 23.1662 1.36272 22.8445 1.49521V3.74748H23.999V6.13223H22.8445V8.47914C23.469 8.27094 23.6962 8.15738 23.999 8.0249C23.9422 8.8766 23.9422 9.1605 23.9422 9.48225C23.9422 9.95542 23.9611 10.1636 23.999 10.4286C23.3176 10.7882 23.0905 10.8828 22.8445 10.9775V15.8605C24.51 14.8385 25.6835 12.9458 26.2323 10.4664ZM29.6391 5.77263H30.7369C31.2857 5.01556 31.7968 4.16386 32.2131 2.99041C31.4939 3.10397 30.8126 3.21753 30.0934 3.29324C30.7369 4.27742 30.8504 4.63703 30.9829 5.12912C30.6612 5.26161 30.3016 5.39409 29.6391 5.77263ZM27.6897 3.89889L28.8253 3.36894C27.2733 3.46358 27.103 3.4825 26.6298 3.50143C27.0651 4.14494 27.4058 4.69381 27.6897 5.37517C27.5572 5.43195 26.9515 5.71585 26.8191 5.77263H28.6549C28.1061 4.52347 27.8979 4.20172 27.6897 3.89889ZM31.1533 12.9269H28.9767C29.2038 13.1919 29.6013 13.665 30.2826 14.195C30.6422 13.7786 30.8126 13.5515 31.1533 12.9269ZM27.5383 14.1761C27.0272 15.2359 26.6298 15.728 26.0809 16.4283C27.7465 15.8605 28.1818 15.5577 28.5224 15.3306C28.0871 14.8953 27.8032 14.5357 27.5383 14.1761Z" fill="var(--fill-0, black)"/>
<path id="Vector_7" d="M10.1447 3.12289H17.4314V5.58336H10.1447V7.04071H13.5893L14.9142 8.13845C14.0246 10.315 12.6998 12.2834 10.9396 13.8164C11.9049 14.3085 13.9679 15.217 17.3747 15.6334C16.4662 16.6176 16.0876 17.3368 15.7659 18.1506C13.5136 17.6964 11.2424 17.0718 8.74411 15.4631C6.3215 16.9961 4.31528 17.545 1.81696 18.1317C1.21131 16.9015 0.73814 16.2958 0.170341 15.6334C2.74436 15.3306 4.88307 14.6871 6.51077 13.8164C5.92404 13.2676 5.29946 12.6808 3.99352 10.9775L5.52658 9.63366H2.21442V7.04071H7.22998V5.58336H8.9407e-07V3.12289H7.22998V0.586723L10.2772 0.719211C10.4097 0.719211 10.5611 0.813843 10.5611 0.984183C10.5611 1.1356 10.4097 1.2113 10.1447 1.34379V3.12289ZM10.9017 9.63366H6.18901C6.94608 10.9396 8.21416 11.9806 8.64948 12.3212C9.17942 11.8481 10.2204 10.9585 10.9017 9.63366Z" fill="var(--fill-0, black)"/>
</g>
  </g>
</svg>
